<?xml version="1.0" standalone="no"?>
<!DOCTYPE svg PUBLIC "-//W3C//DTD SVG 1.1//EN" "http://www.w3.org/Graphics/SVG/1.1/DTD/svg11.dtd" >
<svg xmlns="http://www.w3.org/2000/svg" xmlns:xlink="http://www.w3.org/1999/xlink" version="1.1">
<metadata>
Created by FontForge 20200427 at Mon Mar  5 19:54:58 2018
 By www
Unicorn Scribbles (c) Chequered Ink Ltd. 2018. All Rights Reserved
</metadata>
<defs>
<font id="UnicornScribbles" horiz-adv-x="1158" >
  <font-face 
    font-family="Unicorn Scribbles"
    font-weight="400"
    font-stretch="normal"
    units-per-em="2048"
    panose-1="2 0 5 0 0 0 0 0 0 0"
    ascent="1638"
    descent="-410"
    x-height="830"
    cap-height="1420"
    bbox="-228 -480 2234 1820"
    underline-thickness="150"
    underline-position="-292"
    unicode-range="U+001D-2265"
  />
<missing-glyph horiz-adv-x="1424" 
d="M1232 1572q76 0 88 -92q0 -48 -208 -272q7 -18 24 -28h16q139 0 164 -188q0 -143 -152 -228q-30 -14 -84 -24q24 -131 24 -148v-12q0 -90 -188 -108q-374 -88 -396 -88h-8q-84 20 -84 80v12q0 20 32 128v4q-12 0 -168 -52h-12q-71 0 -84 92q0 11 28 88v4q-13 -4 -28 -4
q-96 16 -96 96q0 35 100 152v4q-84 30 -84 104q0 77 156 100q49 19 64 56q31 92 140 164q108 48 216 48h24q91 0 208 -36q274 148 304 148h4zM1048 420q69 0 88 -92q-6 -70 -92 -92v-8q0 -25 4 -104h40q69 0 84 -88q0 -100 -196 -100q-5 -4 -124 -12q-71 0 -84 92
q0 72 100 88v28q0 21 -4 68h-8q-96 11 -96 88q0 92 212 116q42 12 76 16zM612 332h20q100 -15 100 -84q0 -96 -128 -96q-36 -22 -36 -68l8 -4h12q14 0 68 8q71 0 84 -92q0 -85 -140 -96h-32q-155 0 -180 184q0 172 160 236q43 12 64 12z" />
    <glyph glyph-name=".notdef" horiz-adv-x="1424" 
d="M1232 1572q76 0 88 -92q0 -48 -208 -272q7 -18 24 -28h16q139 0 164 -188q0 -143 -152 -228q-30 -14 -84 -24q24 -131 24 -148v-12q0 -90 -188 -108q-374 -88 -396 -88h-8q-84 20 -84 80v12q0 20 32 128v4q-12 0 -168 -52h-12q-71 0 -84 92q0 11 28 88v4q-13 -4 -28 -4
q-96 16 -96 96q0 35 100 152v4q-84 30 -84 104q0 77 156 100q49 19 64 56q31 92 140 164q108 48 216 48h24q91 0 208 -36q274 148 304 148h4zM1048 420q69 0 88 -92q-6 -70 -92 -92v-8q0 -25 4 -104h40q69 0 84 -88q0 -100 -196 -100q-5 -4 -124 -12q-71 0 -84 92
q0 72 100 88v28q0 21 -4 68h-8q-96 11 -96 88q0 92 212 116q42 12 76 16zM612 332h20q100 -15 100 -84q0 -96 -128 -96q-36 -22 -36 -68l8 -4h12q14 0 68 8q71 0 84 -92q0 -85 -140 -96h-32q-155 0 -180 184q0 172 160 236q43 12 64 12z" />
    <glyph glyph-name=".null" horiz-adv-x="0" 
 />
    <glyph glyph-name=".null" horiz-adv-x="0" 
 />
    <glyph glyph-name="nonmarkingreturn" horiz-adv-x="508" 
 />
    <glyph glyph-name="space" unicode=" " horiz-adv-x="508" 
 />
    <glyph glyph-name="space" unicode="&#xa0;" horiz-adv-x="508" 
 />
    <glyph glyph-name="exclam" unicode="!" horiz-adv-x="311" 
d="M116 1420q67 0 84 -88q-4 -902 -4 -980q-11 -104 -100 -104q-74 16 -80 96q4 671 4 892q4 107 21 157q29 27 75 27zM100 208q108 -20 108 -108q0 -79 -108 -100q-86 0 -100 108v4q0 75 100 96z" />
    <glyph glyph-name="quotedbl" unicode="&#x22;" horiz-adv-x="582" 
d="M96 1432q65 0 80 -108v-268q-6 -96 -96 -96q-65 0 -80 108v268q6 96 96 96zM376 1432q65 0 80 -108v-268q-6 -96 -96 -96q-65 0 -80 108v268q6 96 96 96z" />
    <glyph glyph-name="numbersign" unicode="#" horiz-adv-x="1062" 
d="M408 1424q71 0 84 -92q-16 -153 -40 -272q0 -9 4 -12h80q21 0 68 4q40 310 70 337q31 27 66 27q66 0 88 -92q-40 -256 -44 -260q0 -6 4 -12h88q65 0 80 -92q0 -78 -120 -88h-80l-45 -272h85q96 -7 96 -92v-4q0 -74 -104 -84h-104q-52 -337 -72 -384q-25 -34 -72 -36
q-88 16 -88 84v4q0 29 48 328h-140q-48 -364 -68 -364q-30 -28 -72 -28q-69 0 -84 88q40 284 40 304h-80q-96 8 -96 92q0 74 104 88h100q8 34 40 264h-132q-88 15 -92 88q0 78 100 92h92q20 0 60 4q38 339 73 360q32 20 63 20zM432 868q-11 0 -44 -272h136q12 0 48 272h-140
z" />
    <glyph glyph-name="dollar" unicode="$" horiz-adv-x="1071" 
d="M472 1592q65 0 84 -88v-84h4q82 0 324 -68q52 -29 52 -84q-15 -88 -88 -88q-209 56 -292 56q0 -126 -4 -456q420 -96 420 -360v-44q0 -259 -288 -352q-64 -16 -136 -24v-36q-10 -104 -92 -104q-76 0 -88 104v40h-4q-243 28 -292 68q-28 25 -28 60q0 72 92 88
q182 -36 232 -36v4q4 335 4 456q-372 119 -372 384v44q0 258 288 336q88 16 88 20q0 128 44 152q31 12 52 12zM180 1092v-80q0 -87 140 -156q34 -16 44 -16h8q4 166 4 248v152h-4q-138 0 -188 -120zM552 592v-4q-4 -214 -4 -344v-60h4q240 25 240 180v68q0 100 -240 160z
" />
    <glyph glyph-name="percent" unicode="%" horiz-adv-x="1378" 
d="M252 1448q200 0 268 -320q8 -52 8 -112q0 -252 -176 -332q-42 -12 -64 -12h-24q-165 0 -240 236q-24 78 -24 168q0 289 200 364q36 8 52 8zM892 1444q69 -12 80 -84v-4q0 -31 -220 -596q-229 -615 -284 -740q-32 -32 -64 -32h-16q-76 12 -80 92q0 26 500 1324
q22 36 84 40zM180 1072q0 -157 76 -216q7 -4 16 -4h8q58 0 68 156v12q-4 196 -92 248q-76 -26 -76 -196zM980 756h28q179 0 252 -288q8 -57 8 -120q0 -258 -172 -352q-36 -12 -80 -16q-208 0 -272 352q0 50 -4 72q0 279 196 344q16 8 44 8zM920 408q0 -168 84 -244h24
q60 46 60 184v12q0 163 -90 224l-18 -8q-60 -37 -60 -168z" />
    <glyph glyph-name="ampersand" unicode="&#x26;" horiz-adv-x="1397" 
d="M1072 1516q69 0 88 -92q0 -57 -147 -165q-42 -35 -89 -35q-80 25 -80 80v16q0 55 144 152q43 44 84 44zM472 1460h8q243 0 368 -276q24 -87 24 -152q0 -225 -196 -308q-22 -9 -60 -16v-12l208 -204h8q6 2 128 168q30 32 72 32q73 0 84 -96q0 -36 -156 -236v-8
q160 -167 160 -188v-20q0 -76 -92 -88q-44 0 -136 108l-48 48q-6 0 -104 -108q-145 -104 -352 -104q-280 0 -368 228q-20 57 -20 132q0 317 232 444q-76 148 -76 196q-12 53 -12 84q0 220 184 344q69 32 144 32zM324 1084q0 -115 100 -224l8 -4q166 20 220 56q40 43 40 128
v4q0 173 -184 236h-52q-101 0 -132 -180v-16zM1172 1228h4q78 0 84 -92q0 -86 -182 -119q-35 -9 -70 -9q-92 13 -92 88q0 89 206 127q32 4 50 5zM1000 960q248 -59 252 -108q4 -8 4 -36q-16 -88 -84 -88h-4q-51 0 -224 72q-32 31 -32 72q15 88 88 88zM180 364v-20
q0 -164 204 -164h8q228 0 320 164q-205 228 -336 316q-85 0 -164 -116q-32 -83 -32 -180z" />
    <glyph glyph-name="quotesingle" unicode="'" horiz-adv-x="262" 
d="M96 1432q65 0 80 -108v-268q-6 -96 -96 -96q-65 0 -80 108v268q6 96 96 96z" />
    <glyph glyph-name="parenleft" unicode="(" horiz-adv-x="555" 
d="M392 1572q71 0 84 -92q0 -31 -108 -180q-188 -329 -188 -612q0 -402 256 -720q8 -25 8 -40q0 -75 -92 -88q-104 0 -268 384q-84 227 -84 464q0 420 316 848q33 36 76 36z" />
    <glyph glyph-name="parenright" unicode=")" horiz-adv-x="510" 
d="M116 1578q80 0 148 -220q140 -372 140 -692v-28q0 -428 -252 -764q-28 -24 -56 -24h-12q-68 0 -84 88q0 26 100 180q124 258 124 512v44q0 341 -200 804v16q0 71 92 84z" />
    <glyph glyph-name="asterisk" unicode="*" horiz-adv-x="989" 
d="M452 1432q86 0 184 -196q200 -44 222 -71q26 -23 26 -77q0 -72 -132 -184l-4 -8q48 -125 48 -168v-20q-14 -112 -112 -112q-54 0 -232 84q-133 -100 -216 -100q-75 0 -112 92q-8 32 -8 68q0 56 24 160q-140 145 -140 224q0 128 260 128q108 180 188 180h4zM300 1072
l-75 3l11 -11q92 -85 92 -128v-4l-28 -134l8 6l104 68q16 4 32 4h4q21 0 136 -63l-4 11q-32 82 -32 100q0 54 88 112l17 14l-21 2q-95 0 -128 52q-46 84 -53 105l-7 -9q-65 -97 -96 -120q-28 -8 -48 -8z" />
    <glyph glyph-name="plus" unicode="+" horiz-adv-x="818" 
d="M372 1066q74 0 88 -104v-176h176q96 -7 96 -92q0 -73 -96 -84h-176v-176q-13 -104 -92 -104q-78 0 -88 100v180h-184q-96 8 -96 92q0 73 96 84h184v180q12 96 92 100z" />
    <glyph glyph-name="comma" unicode="," horiz-adv-x="326" 
d="M112 198h8q94 0 108 -112v-16q-37 -280 -132 -280q-96 12 -96 92q0 12 32 116v8q-32 42 -32 88q0 87 112 104z" />
    <glyph glyph-name="hyphen" unicode="-" horiz-adv-x="820" 
d="M96 786h540q96 -7 96 -92q0 -73 -96 -84h-540q-96 8 -96 92q0 73 96 84z" />
    <glyph glyph-name="hyphen" unicode="&#xad;" horiz-adv-x="820" 
d="M96 786h540q96 -7 96 -92q0 -73 -96 -84h-540q-96 8 -96 92q0 73 96 84z" />
    <glyph glyph-name="period" unicode="." horiz-adv-x="309" 
d="M104 204q102 -5 104 -104q-2 -92 -108 -100q-91 2 -100 108q1 86 104 96z" />
    <glyph glyph-name="slash" unicode="/" horiz-adv-x="713" 
d="M552 1582q88 -17 88 -88q0 -37 -444 -1508q-25 -136 -112 -136q-71 0 -84 92q0 12 220 752q240 809 260 852q37 35 72 36z" />
    <glyph glyph-name="zero" unicode="0" horiz-adv-x="1057" 
d="M480 1424h40q197 0 348 -276q100 -217 100 -464v-36q0 -467 -320 -624q-75 -24 -128 -24h-48q-274 0 -420 344q-52 143 -52 312v40q0 388 232 624q119 104 248 104zM180 692v-28q0 -359 216 -468q46 -16 80 -16h40q186 0 260 312q8 43 16 172q0 351 -184 540
q-50 38 -88 40h-44q-149 0 -252 -272q-44 -122 -44 -280z" />
    <glyph glyph-name="one" unicode="1" horiz-adv-x="591" 
d="M316 1424h20q93 0 132 -104q20 -70 20 -296q0 -691 -36 -976q-13 -48 -80 -48q-88 15 -88 88q24 492 28 904q-4 160 -8 236h-8q-23 0 -168 -124q-16 -8 -44 -8h-4q-80 16 -80 88q0 56 124 148q118 92 192 92z" />
    <glyph glyph-name="two" unicode="2" horiz-adv-x="965" 
d="M416 1424h28q251 0 356 -284q20 -75 20 -132v-24q0 -278 -506 -724q-18 -18 -82 -80q93 0 116 -4q296 8 432 20q69 0 88 -92q0 -92 -160 -92q-104 -12 -360 -12h-36q-256 0 -296 76q-16 26 -16 60q0 84 180 240q460 423 460 600v48q0 138 -136 212q-36 8 -52 8h-40
q-187 0 -248 -220q-37 -40 -80 -40q-73 0 -84 96q0 96 132 236q118 108 284 108z" />
    <glyph glyph-name="three" unicode="3" horiz-adv-x="999" 
d="M440 1424h28q294 0 404 -308q16 -54 16 -108v-24q0 -155 -128 -268q140 -124 140 -280v-44q0 -276 -264 -372q-66 -20 -140 -20h-32q-190 0 -324 116q-20 25 -20 56q15 88 88 88q17 0 148 -64q55 -16 100 -16h48q151 0 204 124q12 43 16 100q0 143 -112 188
q-69 24 -124 24h-76q-100 12 -100 92q0 81 112 88q190 0 268 112q16 34 20 92q-37 244 -240 244h-40q-178 0 -292 -164q-27 -16 -56 -16q-71 0 -84 92q0 85 184 204q116 64 256 64z" />
    <glyph glyph-name="four" unicode="4" horiz-adv-x="1112" 
d="M652 1424h12q121 0 148 -208q16 -142 16 -268q0 -93 -16 -448h4q112 16 128 16q71 0 84 -92q0 -86 -144 -96l-88 -12q-7 -261 -40 -294q-20 -19 -68 -22q-90 8 -92 88l20 212q-106 -8 -180 -8q-341 0 -420 148q-16 40 -16 68v24q0 233 368 696q180 196 284 196zM180 548
v-28q57 -48 260 -48q75 0 188 8q20 276 20 480q-6 260 -24 260h-4q-119 -96 -224 -244q-181 -259 -216 -428z" />
    <glyph glyph-name="five" unicode="5" horiz-adv-x="989" 
d="M464 1424h108q248 0 257 -27q27 -32 27 -65v-4q-3 -76 -76 -88h-4q-138 4 -216 4h-76q-280 0 -280 -40q-24 -79 -24 -156v-88q0 -24 12 -60q10 0 156 8q397 0 512 -268q28 -81 28 -148v-44q0 -311 -336 -420q-110 -28 -220 -28h-48q-206 1 -242 32q-19 12 -30 68
q11 96 88 96q46 -12 200 -20q412 0 412 288q0 264 -364 264q-49 0 -180 -12q-128 0 -164 212q-4 12 -4 56v48q0 273 124 348q95 44 340 44z" />
    <glyph glyph-name="six" unicode="6" horiz-adv-x="1050" 
d="M760 1424q76 0 88 -92q0 -66 -88 -84q-134 0 -328 -108q-146 -99 -212 -280l-8 -28q206 43 300 44q313 0 412 -248q20 -73 20 -140v-40q0 -317 -296 -432q-54 -16 -108 -16h-36q-238 0 -412 248q-92 155 -92 328v44q0 476 408 712q192 92 352 92zM180 556
q0 -193 172 -328q88 -48 148 -48h48q147 0 208 188q7 37 12 104q0 224 -252 224q-149 0 -336 -68v-72z" />
    <glyph glyph-name="seven" unicode="7" horiz-adv-x="1014" 
d="M596 1424h36q292 0 292 -144q0 -143 -448 -1212q-38 -68 -92 -68q-88 20 -88 88q0 24 160 404q212 513 280 748q-60 4 -88 4h-44q-256 0 -516 -36q-88 19 -88 88v4q0 82 116 92q245 32 480 32z" />
    <glyph glyph-name="eight" unicode="8" horiz-adv-x="999" 
d="M396 1424h36q290 0 388 -268q12 -28 16 -108q0 -149 -116 -284v-12q184 -116 184 -308v-36q0 -256 -280 -388q-85 -20 -132 -20h-48q-254 0 -400 232q-44 84 -44 172v36q0 162 156 288v8q-132 128 -132 296v16q0 260 264 360q54 16 108 16zM204 1056v-32q0 -163 200 -212
h40q100 0 188 136q24 52 24 104q0 134 -140 180q-24 12 -84 12h-40q-188 -26 -188 -188zM180 452v-56q0 -128 164 -196q45 -20 104 -20h48q171 0 228 204v76q0 80 -108 148q-58 24 -132 24q-233 0 -292 -132q-12 -36 -12 -48z" />
    <glyph glyph-name="nine" unicode="9" horiz-adv-x="1045" 
d="M396 1424h44q238 0 412 -248q92 -155 92 -328v-44q0 -470 -396 -704q-194 -100 -364 -100q-76 0 -88 92q0 79 116 88q122 0 316 116q151 111 204 296q-216 -44 -304 -44q-305 0 -408 244q-20 82 -20 144v36q0 335 312 440q42 12 84 12zM180 988v-76q0 -130 144 -172
q39 -8 104 -12q147 0 336 68q4 4 4 12q0 318 -244 420q-46 16 -80 16h-44q-153 0 -212 -188q-8 -32 -8 -68z" />
    <glyph glyph-name="colon" unicode=":" horiz-adv-x="306" 
d="M104 732q101 -16 104 -104q-10 -99 -104 -104q-97 4 -104 112q1 88 104 96zM104 204q95 -13 100 -92v-20q-2 -85 -104 -92q-91 1 -100 104q0 90 104 100z" />
    <glyph glyph-name="semicolon" unicode=";" horiz-adv-x="305" 
d="M116 730q86 0 100 -104q-3 -88 -100 -104q-91 0 -108 112q0 81 108 96zM120 202q91 0 108 -116v-16q-37 -280 -132 -280q-96 12 -96 92l32 120v4q-32 44 -32 88q5 99 120 108z" />
    <glyph glyph-name="semicolon" unicode="&#x37e;" horiz-adv-x="305" 
d="M116 730q86 0 100 -104q-3 -88 -100 -104q-91 0 -108 112q0 81 108 96zM120 202q91 0 108 -116v-16q-37 -280 -132 -280q-96 12 -96 92l32 120v4q-32 44 -32 88q5 99 120 108z" />
    <glyph glyph-name="less" unicode="&#x3c;" horiz-adv-x="1599" 
d="M452 1192q84 0 188 -200q183 -35 219 -72q25 -19 25 -72q0 -72 -132 -184l-4 -8q48 -123 48 -176v-12q-14 -112 -112 -112q-54 0 -232 84q-133 -100 -216 -100q-104 0 -120 148v12q0 56 24 160q-140 145 -140 224q0 128 260 128q108 180 188 180h4zM1260 1180
q71 0 84 -92q0 -82 -176 -116q-122 -44 -200 -60q-69 0 -88 92q0 80 160 112q184 64 220 64zM300 832h-73l9 -8q92 -85 92 -128v-4l-29 -134l9 6l104 68q16 4 32 4h4q19 0 136 -63l-4 11q-32 82 -32 100q0 54 83 112l16 15l-15 1q-95 0 -128 52q-52 96 -53 106l-7 -10
q-65 -97 -96 -120q-28 -8 -48 -8zM1008 832q401 -31 456 -56q28 -17 32 -64q-14 -100 -92 -100q-423 43 -452 60q-30 13 -36 68q14 89 92 92zM896 620h8q288 -63 328 -108q15 -19 16 -52q-15 -88 -88 -88q-318 76 -333 107q-15 28 -15 57q19 84 84 84z" />
    <glyph glyph-name="equal" unicode="=" horiz-adv-x="836" 
d="M96 936h540q96 -7 96 -92q0 -73 -96 -84h-540q-96 8 -96 92q0 73 96 84zM96 636h540q96 -7 96 -92q0 -73 -96 -84h-540q-96 8 -96 92q0 73 96 84z" />
    <glyph glyph-name="greater" unicode="&#x3e;" horiz-adv-x="1602" 
d="M848 1158h12q69 0 200 -96h8q164 80 224 80h16q100 -22 100 -100v-28q0 -42 -48 -168q110 -112 116 -128q20 -29 20 -68q0 -114 -244 -140q-99 -170 -136 -184q-22 -16 -56 -16q-82 0 -188 180h-8q-252 0 -252 128v4q0 75 136 216v4q-20 104 -20 160v20q15 136 120 136z
M240 1146q360 -93 360 -132q12 -20 12 -32v-28q-10 -73 -88 -76q-330 93 -362 129q-14 27 -14 51q6 83 92 88zM913 947l3 -13l24 -128q0 -43 -92 -128l-8 -9l68 1q82 0 132 -116l16 -22l4 10q72 136 108 136q84 13 84 20q-92 69 -92 120q0 16 32 100q-122 -56 -140 -56
q-37 0 -128 76zM496 798q80 -25 80 -80v-16q0 -84 -164 -92q-287 -28 -320 -28h-8q-73 0 -84 96q0 92 220 96q47 4 276 24zM512 562q88 -17 88 -84v-12q0 -84 -188 -112q-120 -40 -156 -40h-8q-73 0 -84 96q0 80 216 116q53 20 132 36z" />
    <glyph glyph-name="question" unicode="?" horiz-adv-x="1101" 
d="M516 1464h16q262 0 440 -300q40 -86 40 -160v-28q0 -275 -432 -528v-92q-11 -83 -80 -88h-16q-74 0 -84 104v112q0 93 132 140q300 198 300 348v32q0 132 -192 256q-56 24 -112 24h-16q-165 0 -380 -188q-14 -12 -48 -12q-71 0 -84 92q0 93 312 248q106 40 204 40z
M492 208q107 -11 108 -104q-4 -94 -108 -104q-104 9 -104 104q15 97 104 104z" />
    <glyph glyph-name="at" unicode="@" horiz-adv-x="1730" 
d="M840 1496q626 0 764 -476q16 -105 16 -160q0 -321 -224 -568q-104 -88 -208 -88q-95 0 -180 76h-4q-398 0 -556 192q-32 66 -32 104v44q0 145 192 236q102 36 236 36h56q21 0 68 -4l4 8q-19 80 -144 80h-56q-92 0 -240 -72l-28 -8q-88 19 -88 88v4q0 117 344 168h60
q206 0 300 -144q36 -74 36 -180q-24 -329 -24 -352q0 -96 52 -96h8q122 0 228 312q20 86 20 168q0 295 -280 404q-134 48 -292 48h-64q-326 0 -516 -240q-108 -146 -108 -352q0 -370 344 -572q167 -76 352 -76q64 -34 64 -88q-23 -88 -84 -88q-536 0 -784 484
q-72 168 -72 348q0 453 424 680q185 84 416 84zM596 612v-24q0 -89 356 -128v4q0 88 16 244h-4q-34 4 -56 4h-68q-193 0 -236 -76q-8 -13 -8 -24z" />
    <glyph glyph-name="A" unicode="A" horiz-adv-x="1145" 
d="M540 1424h12q347 0 456 -844q28 -274 28 -392v-92q-3 -91 -84 -96q-96 0 -96 156q0 91 -4 172q-502 -4 -648 -4q-8 -4 -12 -4q-12 -111 -12 -204q-9 -109 -100 -116q-76 11 -80 80v32q0 400 140 904q149 408 400 408zM212 504h12q210 0 608 4h9q-71 511 -181 660
q-59 76 -108 76h-20q-184 0 -304 -632q0 -12 -16 -108z" />
    <glyph glyph-name="B" unicode="B" 
d="M340 1424h48q297 0 452 -204q52 -89 52 -172q0 -139 -120 -268l96 -48q180 -105 180 -280v-36q0 -260 -372 -384q-118 -32 -236 -32h-44q-276 0 -336 188q-60 185 -60 512v40q0 495 112 620q79 64 228 64zM180 744v-52q0 -375 72 -484q69 -32 172 -32q279 0 424 164
q20 51 20 64v60q0 112 -236 160q-95 12 -176 12q-20 0 -116 -8q-92 19 -92 92q0 92 148 92q135 24 220 72q96 73 96 168q0 133 -236 184q-36 8 -96 8h-48q-92 0 -112 -64q-40 -140 -40 -436z" />
    <glyph glyph-name="C" unicode="C" horiz-adv-x="1173" 
d="M600 1424h40q231 0 428 -244q7 -18 7 -35v-4q0 -21 -10 -43q-21 -38 -86 -39q-45 7 -115 85q-121 100 -232 100h-36q-147 0 -288 -176q-128 -185 -128 -444v-20q0 -300 176 -396q74 -28 172 -28h48q171 0 332 128q16 8 44 8q56 0 80 -84v-4q0 -111 -300 -208
q-79 -20 -156 -20h-44q-364 0 -480 304q-52 140 -52 292v36q0 461 336 708q143 84 264 84z" />
    <glyph glyph-name="D" unicode="D" horiz-adv-x="1141" 
d="M180 1424h48q270 0 552 -208q248 -223 248 -520v-40q0 -462 -440 -620q-129 -36 -248 -36h-36q-174 0 -220 64q-84 180 -84 860v68q0 318 48 376q50 56 132 56zM192 1244q-12 -79 -12 -168v-320q0 -264 48 -572l92 -8q378 0 500 292q32 100 32 204q0 413 -496 556
q-64 16 -136 16h-28z" />
    <glyph glyph-name="E" unicode="E" horiz-adv-x="1071" 
d="M396 1424h28q294 0 504 -48q44 -25 44 -83v-5q-12 -73 -84 -80q-253 36 -472 36h-20q-160 0 -160 -48q-40 -140 -56 -416q54 0 412 16q88 -19 88 -88v-4q0 -88 -124 -88q-28 -4 -376 -16v-108q0 -212 48 -312q27 -4 60 -4q172 0 576 64q80 -5 88 -88v-4q0 -86 -144 -100
q-325 -48 -524 -48h-24q-152 0 -196 96q-64 148 -64 468v60q0 586 124 732q67 68 272 68z" />
    <glyph glyph-name="F" unicode="F" horiz-adv-x="1064" 
d="M444 1424h44q241 0 436 -48q48 -23 48 -84q-7 -77 -88 -84q-229 36 -400 36h-32q-256 0 -256 -104q-16 -65 -16 -220v-68l528 12q76 -13 80 -88v-4q-1 -71 -92 -88q-62 0 -512 -12v-4q16 -271 56 -580q0 -72 -96 -88q-79 0 -92 132q-52 434 -52 764v32q0 353 120 420
q107 76 324 76z" />
    <glyph glyph-name="G" unicode="G" horiz-adv-x="1137" 
d="M648 1424h52q108 -9 108 -96q0 -73 -96 -84h-60q-331 0 -436 -384q-36 -121 -36 -264v-32q0 -318 200 -372q50 -12 116 -12h40q227 0 308 176q16 36 16 76v44q0 164 -148 164h-12q-60 0 -164 -28q-77 2 -88 92q0 91 168 108q43 8 92 8q232 0 316 -220q16 -73 16 -132v-36
q0 -268 -308 -400q-105 -32 -196 -32h-36q-375 0 -472 340q-28 112 -28 212v60q0 371 228 644q190 168 420 168z" />
    <glyph glyph-name="H" unicode="H" horiz-adv-x="1062" 
d="M120 1424q84 -22 84 -80q-8 -222 -12 -516h4q77 0 572 8v492q17 88 84 88h12q80 -16 80 -80v-1232q-10 -100 -88 -104q-92 0 -92 136v192q0 120 4 328h-4q-52 0 -572 -8h-4q-4 -84 -4 -124v-64q0 -19 -4 -320q0 -99 -88 -116h-12q-76 14 -80 80v4q15 1252 34 1268
q22 45 86 48z" />
    <glyph glyph-name="I" unicode="I" horiz-adv-x="282" 
d="M96 1420q75 -4 84 -92q-4 -1120 -4 -1240q-3 -83 -92 -88q-74 3 -84 88q4 1062 4 1244q0 81 92 88z" />
    <glyph glyph-name="J" unicode="J" horiz-adv-x="941" 
d="M676 1424q81 -2 104 -180q56 -268 56 -560v-24q0 -480 -252 -620q-76 -40 -164 -40h-48q-258 0 -352 212q-20 45 -20 104v12q9 96 88 96q70 0 96 -144q34 -68 92 -91q47 -9 96 -9h56q183 0 224 356l8 152q0 253 -76 640v12q0 71 92 84z" />
    <glyph glyph-name="K" unicode="K" horiz-adv-x="1040" 
d="M104 1420q67 -3 80 -84v-4q-4 -281 -4 -476q17 0 288 196l272 180q19 8 42 8q50 -4 74 -88v-4q0 -62 -116 -128q-325 -221 -444 -312q342 -310 644 -568q16 -20 16 -51v-5q-9 -83 -92 -84q-50 0 -264 200l-348 308l-72 60v-452q0 -111 -96 -116q-84 12 -84 84
q4 849 4 1244q1 85 100 92z" />
    <glyph glyph-name="L" unicode="L" horiz-adv-x="1040" 
d="M164 1424q79 -5 84 -88q-68 -496 -68 -832v-48q0 -237 67 -259q36 -12 221 -21q211 8 380 28q85 -4 88 -88q0 -100 -181 -108q-78 -8 -291 -8h-20q-310 0 -376 104q-68 97 -68 356v48q0 385 76 860q20 56 88 56z" />
    <glyph glyph-name="M" unicode="M" horiz-adv-x="1388" 
d="M916 1420h28q230 0 312 -456q32 -202 32 -508v-12q-1 -376 -25 -412q-22 -29 -75 -32q-88 17 -88 80q8 160 12 360q0 633 -144 788q-15 12 -28 12h-12q-95 0 -180 -428q-28 -180 -40 -304q-12 -48 -88 -56q-92 0 -92 180q-60 553 -164 580h-4q-47 -18 -96 -160
q-84 -288 -84 -772v-132q-9 -112 -92 -112h-4q-73 0 -84 96v112q0 872 220 1088q72 60 140 60h20q157 0 248 -284h8q109 312 280 312z" />
    <glyph glyph-name="N" unicode="N" horiz-adv-x="1091" 
d="M828 1420q96 0 96 -164q56 -419 56 -804v-24q0 -345 -100 -404q-32 -24 -72 -24h-8q-159 0 -344 504q-204 524 -271 639l-1 -11q-4 -94 -4 -140v-40q0 -372 52 -864q0 -73 -96 -84q-79 0 -88 136q-48 444 -48 792v44q0 335 96 396q47 20 72 20q145 0 316 -480
q182 -474 296 -684l6 -11q13 76 18 243q0 261 -64 872v8q0 69 88 80z" />
    <glyph glyph-name="O" unicode="O" horiz-adv-x="1187" 
d="M524 1424h32q272 0 436 -344q84 -187 84 -388v-48q0 -406 -300 -592q-111 -52 -220 -52h-36q-340 0 -484 392q-36 125 -36 248v40q0 413 280 660q125 84 244 84zM180 688v-52q0 -314 224 -436q67 -20 112 -20h48q241 0 320 332q11 49 16 156q0 338 -212 532
q-74 44 -124 44h-48q-179 0 -296 -308q-40 -114 -40 -248z" />
    <glyph glyph-name="P" unicode="P" horiz-adv-x="985" 
d="M320 1424h36q241 0 452 -264q84 -139 84 -260v-40q0 -277 -304 -384q-85 -21 -224 -28l-168 12q16 -211 40 -372q-7 -77 -88 -88q-88 0 -100 128q-48 391 -48 684v44q0 448 176 532q71 36 144 36zM180 864v-208q0 -20 188 -28q348 0 348 248q0 238 -296 360q-40 8 -72 8
h-40q-96 0 -120 -196q-8 -82 -8 -184z" />
    <glyph glyph-name="Q" unicode="Q" horiz-adv-x="1190" 
d="M524 1424h32q272 0 436 -344q84 -187 84 -388v-48q0 -294 -172 -492q64 -84 64 -124q0 -67 -92 -84q-51 0 -120 100q-96 -44 -204 -44h-28q-351 0 -492 404q-32 118 -32 248v28q0 413 280 660q125 84 244 84zM180 688v-52q0 -319 228 -436q59 -20 108 -20h44q45 0 80 12
l4 4q-136 171 -136 212v4q10 81 96 84q55 0 185 -198l7 6q104 140 104 364q0 338 -212 532q-74 44 -124 44h-48q-179 0 -296 -308q-40 -114 -40 -248z" />
    <glyph glyph-name="R" unicode="R" horiz-adv-x="1041" 
d="M344 1424h44q267 0 456 -220q72 -103 72 -216q0 -316 -408 -448q-48 -15 -95 -27l11 -9q412 -268 484 -328q16 -22 17 -60q-7 -80 -93 -80q-43 0 -256 156l-384 252l-4 3v-7q8 -183 24 -352q-7 -80 -88 -88q-100 0 -100 180q-24 276 -24 572v44q0 463 120 552
q98 76 224 76zM180 796v-128q264 0 468 136q88 83 88 180v4q0 187 -312 256h-84q-114 0 -132 -96q-28 -105 -28 -352z" />
    <glyph glyph-name="S" unicode="S" horiz-adv-x="1085" 
d="M420 1424h40q221 0 440 -80q36 -26 36 -76q-8 -87 -88 -88q-223 64 -388 64h-32q-210 0 -244 -128l-4 -24v-80q0 -127 288 -208q356 -81 452 -216q52 -82 52 -168v-44q0 -259 -288 -352q-81 -24 -192 -24h-40q-198 0 -368 56q-38 22 -40 76q9 85 96 88q203 -44 332 -44
q238 0 304 120q16 40 16 68v68q0 119 -420 212q-372 119 -372 384v44q0 242 260 332q88 20 160 20z" />
    <glyph glyph-name="T" unicode="T" horiz-adv-x="1181" 
d="M996 1424q76 0 88 -92q0 -77 -112 -88h-340v-1160q0 -71 -92 -84q-77 0 -88 116v1124h-348q-104 8 -104 100q1 64 84 80h8q769 4 904 4z" />
    <glyph glyph-name="U" unicode="U" 
d="M976 1196q72 -259 72 -528v-28q0 -484 -336 -612q-83 -28 -168 -28h-48q-351 0 -468 384q-28 110 -28 240v40q0 328 124 704q20 40 80 40q86 -13 86 -79q0 -5 -1 -9l-1 -4q-108 -383 -108 -640v-52q0 -314 172 -412q70 -32 144 -32h52q226 0 296 248q28 110 28 236
q0 255 -112 672q-1 6 -1 11q0 58 93 77q90 0 124 -228z" />
    <glyph glyph-name="V" unicode="V" horiz-adv-x="1100" 
d="M92 1424q84 0 96 -148q116 -702 240 -1008q27 -58 40 -68q123 145 312 936q41 227 73 256q30 16 67 16q80 -9 80 -80v-12q-164 -792 -332 -1140q-93 -176 -196 -176h-8q-194 0 -328 624q-136 604 -136 716q0 71 92 84z" />
    <glyph glyph-name="W" unicode="W" horiz-adv-x="1409" 
d="M1196 1424q96 0 96 -196q12 -128 12 -388q0 -836 -340 -836h-8q-180 0 -296 212l-5 10q-123 -226 -311 -226h-20q-265 0 -316 596q-8 84 -8 240v116q0 407 49 439q22 13 59 13q88 -15 88 -88q-16 -167 -16 -432v-44q0 -522 124 -652q7 -6 16 -8h32q147 0 204 372
q8 99 8 112q0 18 -4 120q0 144 96 144q78 0 88 -112v-140q0 -270 120 -448q46 -42 88 -44h16q109 0 152 440l8 232q-8 304 -24 488q7 68 84 80h8z" />
    <glyph glyph-name="X" unicode="X" horiz-adv-x="1187" 
d="M936 1424q68 0 84 -88v-2q-2 -44 -200 -322q-172 -244 -172 -260q387 -551 428 -616q8 -16 8 -44q0 -56 -84 -80h-4q-65 0 -160 164q-277 389 -300 416q-38 -46 -392 -572q-25 -20 -60 -20q-71 0 -84 92q0 42 164 276q260 381 260 388v4q-364 503 -364 528q-4 5 -4 28
q19 80 80 80h16q58 0 164 -180q13 -13 212 -296h8q26 30 332 476q34 28 68 28z" />
    <glyph glyph-name="Y" unicode="Y" horiz-adv-x="990" 
d="M792 1424q81 0 88 -100q0 -508 -228 -728q-47 -38 -120 -72v-420q-9 -104 -96 -104q-72 0 -84 100v428q-121 34 -204 156q-148 236 -148 608v4q6 96 96 96q65 0 80 -84q0 -333 132 -544q58 -68 128 -68h16q168 0 236 432q12 231 36 260q18 24 68 36z" />
    <glyph glyph-name="Z" unicode="Z" horiz-adv-x="1086" 
d="M636 1424h44q224 0 284 -96q20 -32 20 -68v-12q0 -124 -392 -520q-386 -406 -412 -512q30 -32 256 -40q226 8 420 32q74 -5 80 -80v-16q-10 -74 -150 -93t-358 -19h-16q-329 0 -392 132q-20 24 -20 68v16q0 160 448 616q288 304 340 392v12q-39 8 -108 8h-24
q-226 0 -544 -48q-88 15 -88 88q0 100 164 100q223 40 448 40z" />
    <glyph glyph-name="bracketleft" unicode="[" horiz-adv-x="686" 
d="M268 1690q40 0 168 -108q92 -61 92 -124q-25 -80 -80 -80h-12q-48 0 -203 135q-57 39 -57 89q0 75 92 88zM164 1294q272 -61 300 -104q20 -16 20 -52q-19 -84 -84 -84h-8q-287 63 -311 110q-9 25 -9 42q0 73 92 88zM88 922q348 -44 348 -68q28 -27 28 -68q-4 -76 -96 -84
q-305 32 -344 68q-24 28 -24 56v12q0 65 88 84zM384 594q88 -11 88 -80q0 -100 -140 -100l-188 -16q-85 3 -96 88q0 100 180 100q98 8 156 8zM404 266q88 -17 88 -88v-4q0 -74 -136 -112q-126 -64 -160 -64q-69 0 -84 92q0 74 152 124q104 52 140 52zM480 -70q71 0 84 -92
q0 -61 -180 -176q-35 -32 -88 -32q-57 0 -80 84v4q0 63 108 124q108 88 156 88z" />
    <glyph glyph-name="backslash" unicode="\" horiz-adv-x="743" 
d="M92 1588q83 0 116 -184q436 -1423 436 -1456q0 -76 -92 -88q-83 0 -116 180q-436 1423 -436 1460v4q0 71 92 84z" />
    <glyph glyph-name="bracketright" unicode="]" horiz-adv-x="636" 
d="M348 1674q80 -17 80 -80v-16q0 -60 -160 -152q-87 -76 -128 -76h-8q-78 0 -84 92q0 58 148 148q101 84 152 84zM408 1262q65 0 84 -88q0 -87 -172 -116q-125 -44 -208 -60q-69 0 -88 92q0 85 192 120q155 52 192 52zM73 859q28 3 36 3q351 0 391 -36q28 -27 28 -68
q0 -65 -88 -84q-328 8 -352 8q-74 0 -88 100q0 58 73 77zM136 550q180 -28 332 -44q49 -17 52 -76v-16q-2 -76 -92 -84q-324 38 -360 72q-20 25 -20 60q15 88 88 88zM100 278h8q48 0 280 -100q32 -26 32 -68q-13 -88 -88 -88q-292 87 -304 132q-8 18 -8 40q13 84 80 84z
M92 -62q43 0 288 -160q20 -28 20 -52v-16q-7 -80 -86 -80h-2q-49 0 -292 164q-16 27 -16 56q15 88 88 88z" />
    <glyph glyph-name="asciicircum" unicode="^" horiz-adv-x="772" 
d="M372 1432q127 0 220 -316q80 -221 80 -272q-13 -84 -104 -84q-53 18 -72 80q-78 258 -128 356h-8q-106 -208 -196 -436q-36 -40 -80 -40q-71 0 -84 92q3 56 184 432q96 188 188 188z" />
    <glyph glyph-name="underscore" unicode="_" horiz-adv-x="1137" 
d="M96 176h852q96 -7 96 -92q0 -73 -96 -84h-852q-96 8 -96 92q0 73 96 84z" />
    <glyph glyph-name="grave" unicode="`" horiz-adv-x="462" 
d="M92 1812q48 0 248 -172q16 -25 16 -52q-10 -83 -92 -88q-47 0 -244 168q-20 25 -20 60q2 78 92 84z" />
    <glyph glyph-name="a" unicode="a" horiz-adv-x="898" 
d="M516 836h24q118 0 140 -36q30 0 116 -716q0 -71 -92 -84q-29 0 -76 40h-4q-77 -8 -108 -8h-80q-311 0 -416 232q-20 73 -20 124q0 324 324 424q78 24 192 24zM180 384q0 -117 132 -156q75 -16 112 -16h88q54 0 88 8q-44 315 -64 436h-32q-324 0 -324 -272z" />
    <glyph glyph-name="b" unicode="b" horiz-adv-x="888" 
d="M196 1424q65 0 84 -88q-52 -236 -84 -516l156 12q314 0 412 -252q20 -72 20 -128v-48q0 -278 -252 -384q-61 -20 -120 -20h-24q-207 0 -328 164q-60 126 -60 352q0 386 108 856q37 52 88 52zM184 632q-4 -54 -4 -76v-22q1 -282 80 -318q65 -36 124 -36h32q128 0 176 140
q12 24 12 76v52q0 204 -256 204q-121 -8 -164 -20z" />
    <glyph glyph-name="c" unicode="c" horiz-adv-x="854" 
d="M376 836h36q157 0 292 -72q32 -30 32 -72q-3 -82 -82 -84q-108 38 -230 48h-52q-134 0 -180 -144q-12 -49 -12 -108v-60q0 -109 84 -148q29 -16 64 -16h64q66 0 228 48l14 3q58 -5 78 -95q0 -107 -312 -136h-60q-250 0 -328 252q-12 49 -12 108v32q0 317 240 420
q73 24 136 24z" />
    <glyph glyph-name="d" unicode="d" horiz-adv-x="881" 
d="M556 1424h4q91 0 108 -192q100 -491 100 -812v-36q0 -260 -128 -324q-96 -60 -204 -60h-36q-265 0 -380 276q-20 73 -20 140v48q0 270 276 368q89 20 152 20h24q34 0 100 -4q-24 181 -84 488q2 77 88 88zM180 460v-48q0 -166 156 -224q38 -8 60 -8h44q148 0 150 138
q1 52 2 98q-8 244 -24 244q-47 12 -108 12h-36q-244 0 -244 -212z" />
    <glyph glyph-name="e" unicode="e" horiz-adv-x="891" 
d="M332 840h40q288 0 400 -268q16 -49 16 -84v-28q0 -128 -224 -128l-356 4v-8q26 -78 104 -120q50 -28 152 -28h24q85 0 168 32h8q88 -15 88 -88q0 -87 -156 -116q-52 -8 -112 -8q-342 0 -448 268q-36 99 -36 188q0 267 236 368q45 16 96 16zM188 516q139 -4 200 -4h209
l-1 12q0 56 -120 120q-50 16 -104 16h-52q-88 0 -130 -126z" />
    <glyph glyph-name="f" unicode="f" horiz-adv-x="854" 
d="M492 1404h8q244 -17 280 -92q8 -21 8 -41v-3q-13 -84 -88 -84q-130 40 -192 40h-24q-91 0 -108 -84q-24 -133 -24 -240v-12q105 4 156 4q100 -14 100 -92q0 -74 -100 -88h-60q-34 0 -100 -4v-4q0 -212 28 -616q-19 -88 -88 -88q-92 0 -92 128q-6 93 -24 472v104h-84
q-76 0 -88 92q0 88 140 88h32v4q0 344 112 444q90 72 208 72z" />
    <glyph glyph-name="g" unicode="g" horiz-adv-x="899" 
d="M396 838q185 0 340 -88q51 -29 64 -368q0 -408 -112 -616q-92 -156 -296 -156h-16q-208 0 -338 136q-15 25 -18 56q0 69 88 80q29 0 132 -64q71 -28 116 -28h64q99 0 140 124q20 52 20 72h-4l-108 -8q-249 0 -384 148q-84 103 -84 252q0 335 260 440q64 20 136 20z
M180 390v-28q0 -204 288 -204q140 4 140 24q4 35 4 60v108q0 276 -28 276q-98 32 -164 32h-48q-126 0 -176 -152q-16 -65 -16 -116z" />
    <glyph glyph-name="h" unicode="h" horiz-adv-x="828" 
d="M96 1424q73 -4 80 -84q8 -127 18 -513q101 69 174 69h60q190 0 272 -256q24 -81 24 -208v-20q-6 -263 -32 -336q-31 -72 -86 -72h-2q-88 19 -88 84v16q32 203 32 316q0 300 -148 300q-139 0 -180 -284q-8 -60 -8 -100v-76q0 -73 4 -184q-25 -76 -88 -76h-4q-83 0 -92 128
q0 105 -32 1216q0 67 96 80z" />
    <glyph glyph-name="i" unicode="i" horiz-adv-x="620" 
d="M272 1084q96 -11 100 -100q-14 -107 -104 -108q-88 2 -104 108v4q1 87 108 96zM212 836q88 -22 88 -88q-8 -38 -76 -228q-44 -140 -44 -240v-44q0 -56 72 -56h60q34 0 96 56q19 12 44 12q76 0 88 -92q0 -73 -140 -140q-57 -16 -88 -16h-36q-226 0 -272 188q-4 40 -4 60
v40q0 186 136 508q26 40 76 40z" />
    <glyph glyph-name="j" unicode="j" horiz-adv-x="689" 
d="M304 1102q104 -8 104 -100q-4 -99 -104 -108q-93 0 -104 112q0 78 104 96zM392 834q87 0 108 -180q76 -331 76 -580q0 -281 -140 -368q-93 -56 -164 -56h-32q-127 0 -228 128q-12 22 -12 44q20 84 80 84h16q30 0 112 -68q26 -8 36 -8h28q83 0 116 120q8 75 8 128
q0 230 -96 672q0 69 92 84z" />
    <glyph glyph-name="k" unicode="k" horiz-adv-x="779" 
d="M116 1420q84 -20 84 -80q0 -34 -8 -624q9 0 144 80q202 96 232 96h12q71 0 84 -92q0 -73 -160 -120q-211 -102 -268 -168v-8q40 -106 340 -324q64 -32 64 -92q0 -72 -96 -84q-60 0 -336 248q-13 12 -28 20v-152q0 -120 -96 -120q-84 20 -84 80q16 1279 31 1295
q24 44 85 45z" />
    <glyph glyph-name="l" unicode="l" horiz-adv-x="451" 
d="M104 1424q92 -19 92 -88q-16 -405 -16 -668v-172q0 -195 16 -308q45 16 64 16q76 0 88 -92q-19 -111 -140 -112h-16q-92 0 -156 100q-36 67 -36 416v40q3 805 32 832q22 32 72 36z" />
    <glyph glyph-name="m" unicode="m" horiz-adv-x="1050" 
d="M272 860q121 0 212 -124l5 -6q98 106 203 106h20q200 0 232 -368v-104q-1 -287 -36 -338q-27 -26 -80 -26q-56 0 -80 84v4q12 91 20 284q0 224 -60 284h-12q-104 0 -144 -268q0 -152 -100 -152q-58 9 -71.5 31t-16.5 57q8 73 8 88q0 174 -60 252q-17 16 -40 16h-12
q-77 -45 -80 -324v-24q0 -129 12 -248q0 -58 -88 -84q-85 0 -96 120q-8 105 -8 224q0 516 272 516z" />
    <glyph glyph-name="n" unicode="n" horiz-adv-x="854" 
d="M372 836h48q221 0 304 -244q16 -64 16 -128v-32q0 -194 -72 -388q-24 -42 -80 -44q-84 21 -84 76v24q60 216 60 336q0 149 -72 200q-37 20 -60 20h-72q-115 0 -164 -240q-6 -32 -8 -84q8 -111 8 -216q-21 -92 -88 -92q-100 0 -100 192q0 134 -8 448q22 76 88 76
q44 -5 44 -12q115 108 240 108z" />
    <glyph glyph-name="o" unicode="o" horiz-adv-x="896" 
d="M396 860h40q197 0 320 -276q32 -109 32 -188q0 -296 -276 -384q-51 -12 -108 -12q-323 0 -400 288q0 7 -4 72q0 256 228 440q91 60 168 60zM180 352q0 -136 156 -168q26 -4 52 -4h40q130 0 172 144q8 41 8 72q0 193 -148 280l-24 4h-40q-94 0 -192 -192q-24 -70 -24 -136
z" />
    <glyph glyph-name="p" unicode="p" horiz-adv-x="881" 
d="M280 884h12q274 0 436 -264q44 -96 44 -184v-40q0 -258 -232 -380q-91 -32 -180 -32q-71 0 -172 20v-4q0 -40 20 -352q0 -75 -92 -88q-92 0 -92 164q-24 314 -24 596q0 445 100 504q71 60 180 60zM180 212q0 -30 88 -40q43 -8 100 -8q169 0 216 160q8 48 8 76v40
q0 177 -232 256q-17 8 -64 8h-32q-68 0 -77 -93q-3 -48 -7 -399z" />
    <glyph glyph-name="q" unicode="q" horiz-adv-x="902" 
d="M500 898q203 0 272 -116q36 -80 36 -316q-16 -557 -16 -644v-9q16 9 40 9q68 0 80 -88q-8 -78 -124 -184q-19 -15 -72 -20q-89 0 -104 124q0 32 -4 76l8 272h-108q-378 16 -484 268q-24 71 -24 156v4q0 329 328 444q94 24 172 24zM180 426v-8q0 -150 144 -204
q94 -32 196 -32h72l28 4q8 185 8 284q0 236 -32 236q-33 8 -92 12q-236 0 -308 -180q-16 -41 -16 -112z" />
    <glyph glyph-name="r" unicode="r" horiz-adv-x="657" 
d="M96 896q71 -18 80 -88l1 -7q101 51 187 51h44q152 0 152 -104q-12 -80 -92 -84q-38 8 -60 8h-48q-117 0 -140 -132q-32 -163 -32 -416v-20q-6 -94 -88 -104q-90 13 -92 80q-4 194 -8 736q7 78 96 80z" />
    <glyph glyph-name="s" unicode="s" horiz-adv-x="780" 
d="M264 836h48q252 0 280 -84q4 -22 4 -36q-7 -80 -88 -84q-99 24 -196 24h-52q-80 0 -80 -32q5 -30 204 -96q288 -103 288 -280v-24q0 -191 -304 -224h-88q-186 4 -216 59q-4 20 -4 33v16q22 80 80 80q148 -12 160 -12q180 7 192 48v20q0 66 -324 172q-168 81 -168 196v28
q0 126 160 180q44 16 104 16z" />
    <glyph glyph-name="t" unicode="t" horiz-adv-x="916" 
d="M292 1236q88 -22 88 -88q-28 -157 -52 -324h260q96 -11 96 -88q0 -79 -112 -92h-56q-63 0 -208 -4v-12q0 -86 -4 -136q10 -280 72 -301q25 -10 68 -11h44q98 0 212 136q21 12 48 12q88 -15 88 -88q0 -88 -204 -208q-78 -32 -152 -32h-32q-216 0 -288 200q-36 146 -36 288
q1 86 4 152h-32q-96 8 -96 92q0 75 108 88h40q48 368 82 396q23 20 62 20z" />
    <glyph glyph-name="u" unicode="u" horiz-adv-x="885" 
d="M136 836q83 -10 84 -92q-40 -191 -40 -280v-112q15 -172 84 -172h40q182 0 272 364q16 86 28 200q14 58 84 60q82 -9 88 -92q-47 -644 -64 -644q-38 -44 -76 -44q-53 0 -92 72h-4q-115 -96 -240 -96h-36q-173 0 -248 228q-16 79 -16 144v52q0 225 60 376q19 34 76 36z
" />
    <glyph glyph-name="v" unicode="v" horiz-adv-x="860" 
d="M660 832h16q65 0 80 -84q0 -92 -184 -536q-109 -212 -220 -212h-12q-219 0 -340 712q2 72 80 84h16q82 0 104 -192q52 -229 120 -376q19 -32 24 -32h4q48 38 136 272q64 182 108 328q18 34 68 36z" />
    <glyph glyph-name="w" unicode="w" horiz-adv-x="1258" 
d="M1000 836q95 0 128 -240q24 -93 24 -204v-44q0 -250 -196 -332q-45 -16 -96 -16h-52q-136 0 -248 92q-120 -88 -232 -88h-80q-164 0 -232 176q-16 36 -16 100v44q0 179 128 460q26 31 68 32q87 -5 88 -92q0 -16 -76 -232q-28 -101 -28 -176v-44q0 -92 100 -92
q135 0 176 72q8 26 8 36q0 37 -4 68q0 120 96 120t96 -172q17 -124 144 -124h76q104 0 104 192q0 123 -64 368v12q0 67 88 84z" />
    <glyph glyph-name="x" unicode="x" horiz-adv-x="994" 
d="M176 836q56 0 160 -152l108 -128h8q249 228 312 276q9 4 28 4h4q69 0 88 -92q0 -47 -124 -148q-196 -177 -196 -192q228 -271 228 -300v-20q0 -73 -96 -84q-48 0 -192 196l-76 92q-294 -264 -296 -264q-21 -12 -48 -12q-71 0 -84 92q0 55 152 172l160 152l-216 276
q-12 21 -12 48q0 71 92 84z" />
    <glyph glyph-name="y" unicode="y" horiz-adv-x="903" 
d="M112 830q74 -12 80 -84v-4q-12 -99 -12 -156v-96q0 -231 104 -304q28 -8 44 -8q185 0 220 344v212q0 73 96 84q79 0 104 -184q52 -229 52 -440q0 -476 -316 -584q-58 -20 -120 -20h-52q-161 0 -240 120q-4 22 -4 32q0 76 92 84q15 0 116 -52q21 -4 40 -4h52
q169 0 232 220q20 116 20 156h-4q-125 -148 -292 -148q-251 0 -312 364q-12 74 -12 180q5 238 35 269q25 19 77 19z" />
    <glyph glyph-name="z" unicode="z" horiz-adv-x="911" 
d="M444 836h48q234 0 284 -60q32 -33 32 -80q0 -90 -240 -276q-239 -195 -284 -236l-5 -6q15 -2 33 -2q276 8 352 8q63 0 80 -88q0 -84 -128 -92q-163 -4 -296 -4h-16q-188 1 -264 50q-32 28 -32 74q0 79 212 240q283 231 340 284l9 8h-113q-238 0 -368 -12q-74 0 -88 100
q0 56 84 80q154 12 360 12z" />
    <glyph glyph-name="braceleft" unicode="{" horiz-adv-x="10" 
d="M96 -104q376 0 824 -188q32 -9 64 -9q8 0 16 1q29 5 84 40q16 4 32 4q71 0 84 -92q0 -91 -164 -128q-14 -4 -44 -4q-120 0 -360 108q-349 92 -560 92q-68 15 -72 88v4q0 73 96 84z" />
    <glyph glyph-name="bar" unicode="|" horiz-adv-x="275" 
d="M96 1728q67 0 80 -108v-1524q-6 -96 -96 -96q-76 20 -76 92q-4 42 -4 112v1428q6 96 96 96z" />
    <glyph glyph-name="braceright" unicode="}" horiz-adv-x="25" 
d="M1104 -104q96 -11 96 -84v-4q-4 -73 -72 -88q-211 0 -560 -92q-240 -108 -360 -108q-29 0 -44 4q-164 37 -164 128q13 92 84 92q17 0 32 -4q55 -35 84 -40q8 -1 16 -1q32 0 64 9q448 188 824 188z" />
    <glyph glyph-name="asciitilde" unicode="~" horiz-adv-x="969" 
d="M780 998q74 -2 80 -84v-20q0 -260 -196 -336q-30 -8 -56 -8h-36q-155 0 -288 224q-29 32 -36 32h-20q-48 -16 -52 -172q-17 -54 -88 -60q-69 0 -88 96q0 230 164 304q51 12 76 12q134 0 252 -200q45 -56 84 -56h32q63 0 84 220q16 46 88 48z" />
    <glyph glyph-name="exclamdown" unicode="&#xa1;" horiz-adv-x="302" 
d="M92 -360q-67 0 -84 88q4 902 4 980q11 104 100 104q74 -16 80 -96q-4 -671 -4 -892q-4 -107 -21 -157q-28 -27 -75 -27zM108 852q-108 20 -108 108q0 79 108 100q86 0 100 -108v-4q0 -75 -100 -96z" />
    <glyph glyph-name="cent" unicode="&#xa2;" horiz-adv-x="835" 
d="M440 1072q71 0 84 -92q0 -60 -16 -140q0 -16 116 -40q112 -34 112 -104q-9 -91 -88 -92q-126 40 -160 40q-52 -419 -52 -460h12q28 0 176 44q69 0 88 -92q0 -103 -276 -136q-28 0 -28 -28q-12 -187 -67 -206q-17 -6 -41 -6q-84 19 -84 84v16q0 37 16 144q-33 18 -68 36
q-164 103 -164 316v44q0 328 272 420q41 7 60 28q13 176 52 204q18 20 56 20zM180 412v-72q0 -95 68 -140l7 -3l1 7q48 409 48 436q-55 0 -104 -112q-20 -49 -20 -116z" />
    <glyph glyph-name="sterling" unicode="&#xa3;" horiz-adv-x="1108" 
d="M520 1424h32q222 0 436 -208q20 -25 20 -60q-19 -84 -84 -84h-8q-34 0 -136 88q-120 84 -224 84h-44q-101 0 -144 -84q-56 -139 -56 -336v-56l204 12q72 -16 84 -84v-8q0 -92 -160 -92q-9 0 -124 -8q24 -302 44 -408l40 4l456 16q67 0 80 -96q0 -63 -100 -84
q-511 -20 -560 -20q-90 0 -100 208q-36 251 -36 364l-8 4h-32q-100 8 -100 92q0 75 104 88h28v36q0 476 200 584q96 48 188 48z" />
    <glyph glyph-name="currency" unicode="&#xa4;" horiz-adv-x="1245" 
d="M808 1244h12q157 0 276 -164q44 -68 44 -152v-12q0 -294 -496 -672q-71 -44 -112 -44q-125 0 -428 408q-104 178 -104 304q0 221 280 316q46 8 68 8q108 0 212 -108q126 116 248 116zM556 880h-12q-62 0 -108 116q-50 60 -92 60h-4q-160 -42 -160 -144q0 -193 352 -520h4
q258 172 388 400q36 72 36 116v20q0 97 -132 136h-28q-80 -5 -188 -160q-28 -24 -56 -24z" />
    <glyph glyph-name="yen" unicode="&#xa5;" horiz-adv-x="1013" 
d="M840 1424q80 -25 80 -80v-12q0 -138 -120 -420q-48 -96 -160 -192q-100 -64 -132 -64v-40q129 4 172 4q80 -25 80 -80v-16q0 -84 -144 -84q-71 -4 -116 -4v-32l-4 -40q163 0 192 -48q16 -26 16 -52q0 -73 -92 -88q-17 0 -120 8v-72q-9 -112 -92 -112h-4q-73 0 -84 96v100
q-191 6 -229 49q-10 15 -11 55q0 65 96 84q130 -8 152 -8v52h-164q-92 9 -92 80v12q0 88 152 88q70 0 112 4v40l-112 60q-216 194 -216 600v8q0 69 88 84q92 0 92 -148q0 -175 100 -356q61 -76 144 -76q223 0 316 508q23 92 92 92h8z" />
    <glyph glyph-name="brokenbar" unicode="&#xa6;" horiz-adv-x="301" 
d="M100 1636q78 0 88 -116v-532q0 -68 -88 -84q-88 0 -88 140q0 108 -4 516q10 68 84 76h8zM112 716q80 -16 80 -80q0 -194 -20 -576q-20 -55 -84 -60q-88 16 -88 84q0 77 16 552q10 73 80 80h16z" />
    <glyph glyph-name="section" unicode="&#xa7;" horiz-adv-x="1107" 
d="M196 1684h52q57 0 136 -60q88 56 156 56q127 0 184 -160q8 -38 8 -48q0 -182 -300 -444q-27 -16 -56 -16q-97 21 -308 260q-68 105 -68 192q0 127 152 208q27 12 44 12zM180 1456q7 -85 192 -236h4q176 166 176 256q-8 18 -16 20q-31 0 -120 -80q-13 -8 -29 -8h-7
q-45 0 -120 88l-28 8h-8q-33 0 -44 -48zM748 1076q211 0 248 -388q0 -2 4 -52q0 -350 -224 -444q-31 -8 -68 -12q-140 0 -348 144q-140 123 -140 280q0 180 156 248q27 8 76 12q34 -4 56 -4q28 113 76 148q66 68 164 68zM684 788l4 -56q0 -67 -92 -88q-114 40 -156 40
q-34 0 -40 -88q0 -151 288 -232h28q82 0 104 252v28q0 171 -68 248h-28q-40 -17 -40 -104z" />
    <glyph glyph-name="dieresis" unicode="&#xa8;" horiz-adv-x="744" 
d="M106 1743q104 -15 104 -104q0 -83 -108 -100q-86 0 -100 108q0 81 104 96zM534 1743q104 -12 104 -104q-19 -96 -92 -96h-24q-76 0 -92 108q0 70 96 92h8z" />
    <glyph glyph-name="copyright" unicode="&#xa9;" horiz-adv-x="1551" 
d="M696 1454h44q349 0 580 -316q136 -210 136 -440v-36q0 -405 -372 -620q-166 -72 -340 -72h-40q-402 0 -616 360q-88 173 -88 356v40q0 384 324 620q165 108 372 108zM180 750v-80q0 -257 224 -436q146 -84 276 -84h88q280 0 436 240q72 129 72 248v84q0 208 -176 404
q-164 148 -344 148h-76q-301 0 -452 -312q-48 -122 -48 -212zM744 1122q208 0 208 -100v-16q0 -65 -92 -80q-54 12 -116 16q-220 0 -220 -280q0 -123 88 -156q37 -16 68 -16h64q28 0 132 16q84 -15 84 -80v-16q0 -100 -220 -100h-52q-225 0 -320 212q-24 84 -24 148
q0 311 244 424q59 20 156 28z" />
    <glyph glyph-name="ordfeminine" unicode="&#xaa;" horiz-adv-x="648" 
d="M372 1418q128 0 154 -67q6 -52 6 -57q-4 -246 -4 -392q-12 -112 -92 -112q-35 0 -80 40q-32 -8 -68 -8h-60q-154 0 -216 168q-12 34 -12 84q0 256 252 332q60 12 120 12zM180 1070q0 -68 56 -68h64q32 0 32 28q16 181 16 208h-4q-108 0 -148 -84q-16 -28 -16 -84z" />
    <glyph glyph-name="guillemotleft" unicode="&#xab;" horiz-adv-x="926" 
d="M548 1350q168 -16 168 -164q0 -109 -140 -224q-144 -92 -324 -92h-28q0 -20 52 -80q186 128 340 128h20q180 -19 180 -160q0 -149 -252 -232q-85 -12 -96 -12l-88 12v-8q40 -46 96 -80q8 0 76 44q36 20 76 20q138 -14 172 -172v-4q0 -107 -160 -124q-12 0 -92 12
q-45 -44 -92 -44q-56 0 -80 84v12l4 20q-216 152 -216 284q0 21 4 68q-136 156 -136 260q-32 29 -32 72t68 92q95 180 352 268q58 20 128 20zM296 1062v-8q123 0 216 88l12 20v4h-20q-75 0 -208 -104zM480 702v-4h12q45 0 104 32v4h-12q-32 0 -104 -32z" />
    <glyph glyph-name="logicalnot" unicode="&#xac;" horiz-adv-x="1041" 
d="M788 452q144 0 164 -52q8 -30 8 -40q0 -38 -4 -272q-19 -88 -88 -88q-88 16 -88 84v188h-668l-25 -1q-82 17 -87 93v4q5 70 84 80q454 4 704 4z" />
    <glyph glyph-name="registered" unicode="&#xae;" horiz-adv-x="1563" 
d="M696 1444h44q349 0 580 -316q136 -210 136 -440v-36q0 -405 -372 -620q-166 -72 -340 -72h-40q-402 0 -616 360q-88 173 -88 356v40q0 384 324 620q165 108 372 108zM180 740v-80q0 -257 224 -436q146 -84 276 -84h88q280 0 436 240q72 129 72 248v84q0 208 -176 404
q-164 148 -344 148h-76q-301 0 -452 -312q-48 -122 -48 -212zM660 1128q239 0 324 -180q16 -65 16 -92v-28q0 -133 -132 -224q145 -96 160 -120q8 -16 8 -36v-8q-17 -88 -84 -88q-45 0 -224 128q-9 2 -92 56h-8l4 -40v-60q-12 -100 -92 -100q-70 0 -88 100q-16 508 -16 596
q0 66 112 88q99 8 112 8zM616 944q4 -47 4 -68v-128l40 -4q160 0 160 84v28q0 92 -176 92h-20z" />
    <glyph glyph-name="macron" unicode="&#xaf;" horiz-adv-x="781" 
d="M96 1696h484q96 -7 96 -92q0 -73 -96 -84h-484q-96 8 -96 92q0 73 96 84z" />
    <glyph glyph-name="degree" unicode="&#xb0;" horiz-adv-x="674" 
d="M300 1420q186 0 260 -208q12 -40 12 -92v-24q0 -200 -184 -284q-42 -12 -80 -12q-211 0 -296 232q-12 29 -12 80v24q0 194 208 272q33 8 92 12zM180 1144v-40q0 -72 84 -116q15 -8 32 -8h24q57 0 72 116v24q-6 87 -44 112q-28 8 -44 8h-12q-97 0 -112 -96z" />
    <glyph glyph-name="plusminus" unicode="&#xb1;" horiz-adv-x="818" 
d="M372 1066q74 0 88 -104v-176h176q96 -7 96 -92q0 -73 -96 -84h-176v-176q-13 -104 -92 -104q-78 0 -88 100v180h-184q-96 8 -96 92q0 73 96 84h184v180q12 96 92 100zM96 176h540q96 -7 96 -92q0 -73 -96 -84h-540q-96 8 -96 92q0 73 96 84z" />
    <glyph glyph-name="uni00B2" unicode="&#xb2;" horiz-adv-x="772" 
d="M376 1418q216 -21 216 -212q0 -180 -248 -468v-8h120q162 0 176 -40q16 -26 16 -60q0 -60 -84 -80h-428q-75 0 -92 96q0 54 156 204q204 242 204 368q0 20 -36 20q-93 0 -272 -72h-24q-65 0 -80 92q0 109 356 160h20z" />
    <glyph glyph-name="uni00B3" unicode="&#xb3;" horiz-adv-x="701" 
d="M360 1432q160 0 220 -140q8 -28 8 -48v-52q0 -96 -84 -184v-8q100 -95 100 -200v-44q0 -156 -212 -196h-56q-135 0 -232 48q-32 33 -32 64q11 96 88 96q108 -28 180 -28h28q56 0 56 32v24q0 91 -192 108h-12q-81 10 -92 92q0 79 120 88q160 30 160 112v36q-9 20 -40 20
h-32q-102 0 -244 -48q-77 0 -92 96q0 103 300 132h60z" />
    <glyph glyph-name="acute" unicode="&#xb4;" horiz-adv-x="404" 
d="M236 1802q67 0 84 -88q0 -56 -127 -164q-54 -60 -109 -60q-71 0 -84 92q0 51 134 163q49 57 102 57z" />
    <glyph glyph-name="mu" unicode="&#xb5;" horiz-adv-x="901" 
d="M88 832h4q75 0 88 -100v-72q0 -372 172 -468q43 -16 92 -16q119 0 160 180l12 76l-8 280q0 64 92 84q96 0 96 -184v-148q0 -146 4 -392q0 -60 -88 -80q-40 0 -88 60q-85 -56 -188 -56q-131 0 -244 88h-8v-320q-10 -104 -96 -104q-67 0 -84 88v312q0 239 -4 696
q26 76 88 76z" />
    <glyph glyph-name="paragraph" unicode="&#xb6;" horiz-adv-x="1108" 
d="M840 1522q111 0 136 -284v-60q0 -37 -28 -128q44 -32 44 -80q-13 -134 -116 -292q36 -41 36 -84q-1 -29 -104 -272q-68 -121 -160 -164q-126 -52 -228 -52h-84q-11 0 -88 -204q-37 -52 -88 -52q-68 0 -84 92q0 16 80 216q-156 94 -156 284v52q0 190 96 360q22 26 56 36
q-3 17 -4 32q0 173 192 312q34 20 64 76q107 134 316 188q77 24 120 24zM628 1270l-5 -6l9 2q22 4 32 4q76 0 88 -92q0 -20 -48 -144h4q46 0 88 144v52q-5 91 -20 96q-35 0 -148 -56zM524 1134v-24q1 -8 8 -8l60 128q0 7 12 22l-4 -2q-76 -52 -76 -116zM360 1006
q-32 -42 -32 -80q0 -88 68 -160q14 9 76 184v4h-12q-57 0 -92 48zM648 898q-68 -163 -68 -172h4q108 0 184 116v16l-40 -4q-38 0 -80 44zM208 670q-28 -93 -28 -180v-52q0 -73 40 -104h8q120 298 120 304l1 6l-33 -6q-28 0 -100 32h-8zM408 286h4q203 0 252 152
q36 82 36 104v4h-4q-126 0 -148 40q-8 10 -13 21l-3 -5q-8 -2 -124 -304v-12z" />
    <glyph glyph-name="periodcentered" unicode="&#xb7;" horiz-adv-x="508" 
d="M104 904q102 -5 104 -104q-2 -92 -108 -100q-91 2 -100 108q1 86 104 96z" />
    <glyph glyph-name="periodcentered" unicode="&#x2219;" horiz-adv-x="508" 
d="M104 904q102 -5 104 -104q-2 -92 -108 -100q-91 2 -100 108q1 86 104 96z" />
    <glyph glyph-name="cedilla" unicode="&#xb8;" horiz-adv-x="488" 
d="M200 104q92 0 92 -92q0 -14 -24 -100q116 -85 116 -188v-20q-23 -164 -160 -164h-16q-208 19 -208 120q0 75 92 88q101 -28 104 -28h8v4q0 10 -104 88q-24 38 -24 64v4q34 224 124 224z" />
    <glyph glyph-name="uni00B9" unicode="&#xb9;" horiz-adv-x="494" 
d="M304 1436q88 -17 88 -80q0 -129 -12 -736q-17 -100 -88 -100q-92 21 -92 88q12 522 12 604h-4q-101 -32 -120 -32h-4q-71 0 -84 92q0 80 204 132q62 32 100 32z" />
    <glyph glyph-name="ordmasculine" unicode="&#xba;" horiz-adv-x="667" 
d="M304 1433q185 0 252 -256q4 -25 4 -56v-32q0 -185 -176 -268q-38 -16 -104 -20q-218 0 -276 216q-4 26 -4 52v24q0 200 196 320q56 20 108 20zM180 1109v-52q0 -76 100 -76q83 0 100 92v68q-21 112 -84 112q-80 0 -116 -144z" />
    <glyph glyph-name="guillemotright" unicode="&#xbb;" horiz-adv-x="913" 
d="M268 1350q70 0 128 -20q257 -88 352 -268q68 -49 68 -92t-32 -72q0 -104 -136 -260q4 -47 4 -68q0 -132 -216 -284l4 -20v-12q-24 -84 -80 -84q-47 0 -92 44q-80 -12 -92 -12q-160 17 -160 124v4q34 158 172 172q40 0 76 -20q68 -44 76 -44q56 34 96 80v8l-88 -12
q-10 0 -96 12q-252 83 -252 232q0 141 180 160h20q154 0 340 -128q52 60 52 80h-28q-180 0 -324 92q-140 115 -140 224q0 148 168 164zM520 1062q-133 104 -208 104h-20v-4l12 -20q93 -88 216 -88v8zM336 702q-72 32 -104 32h-12v-4q59 -32 104 -32h12v4z" />
    <glyph glyph-name="onequarter" unicode="&#xbc;" horiz-adv-x="1594" 
d="M1198 972q75 0 88 -108q8 -314 8 -412v-32h4q174 0 196 -48q12 -31 12 -52q-19 -84 -84 -84q-86 4 -120 4v-4q4 -71 4 -116v-20q-10 -100 -88 -100q-92 0 -92 148q0 23 -4 100q-200 8 -244 8q-88 18 -88 92q0 38 168 312q138 250 180 292q25 20 60 20zM1034 440v-8l28 -4
h52v136h-4q-5 -1 -76 -124zM1114 1452q71 0 84 -92q0 -33 -172 -296l-660 -1032q-30 -32 -72 -32q-71 0 -84 92q0 33 172 296l660 1032q30 32 72 32zM304 1436q88 -17 88 -80q0 -129 -12 -736q-17 -100 -88 -100q-92 21 -92 88q12 522 12 604h-4q-101 -32 -120 -32h-4
q-71 0 -84 92q0 80 204 132q62 32 100 32z" />
    <glyph glyph-name="onehalf" unicode="&#xbd;" horiz-adv-x="1645" 
d="M1114 1452q71 0 84 -92q0 -33 -172 -296l-660 -1032q-30 -32 -72 -32q-71 0 -84 92q0 33 172 296l660 1032q30 32 72 32zM304 1436q88 -17 88 -80q0 -129 -12 -736q-17 -100 -88 -100q-92 21 -92 88q12 522 12 604h-4q-101 -32 -120 -32h-4q-71 0 -84 92q0 80 204 132
q62 32 100 32zM1264 867q216 -21 216 -212q0 -180 -248 -468v-8h120q162 0 176 -40q16 -26 16 -60q0 -60 -84 -80h-428q-75 0 -92 96q0 54 156 204q204 242 204 368q0 20 -36 20q-93 0 -272 -72h-24q-65 0 -80 92q0 109 356 160h20z" />
    <glyph glyph-name="threequarters" unicode="&#xbe;" horiz-adv-x="1722" 
d="M1318 972q75 0 88 -108q8 -314 8 -412v-32h4q174 0 196 -48q12 -31 12 -52q-19 -84 -84 -84q-86 4 -120 4v-4q4 -71 4 -116v-20q-10 -100 -88 -100q-92 0 -92 148q0 23 -4 100q-200 8 -244 8q-88 18 -88 92q0 38 168 312q138 250 180 292q25 20 60 20zM1154 440v-8l28 -4
h52v136h-4q-5 -1 -76 -124zM1234 1452q71 0 84 -92q0 -33 -172 -296l-660 -1032q-30 -32 -72 -32q-71 0 -84 92q0 33 172 296l660 1032q30 32 72 32zM360 1432q160 0 220 -140q8 -28 8 -48v-52q0 -96 -84 -184v-8q100 -95 100 -200v-44q0 -156 -212 -196h-56q-135 0 -232 48
q-32 33 -32 64q11 96 88 96q108 -28 180 -28h28q56 0 56 32v24q0 91 -192 108h-12q-81 10 -92 92q0 79 120 88q160 30 160 112v36q-9 20 -40 20h-32q-102 0 -244 -48q-77 0 -92 96q0 103 300 132h60z" />
    <glyph glyph-name="questiondown" unicode="&#xbf;" horiz-adv-x="1101" 
d="M496 -360h-16q-262 0 -440 300q-40 86 -40 160v28q0 275 432 528v92q11 83 80 88h16q74 0 84 -104v-112q0 -93 -132 -140q-300 -198 -300 -348v-32q0 -132 192 -256q56 -24 112 -24h16q165 0 380 188q14 12 48 12q71 0 84 -92q0 -93 -312 -248q-106 -40 -204 -40z
M520 896q-107 11 -108 104q4 94 108 104q104 -9 104 -104q-15 -97 -104 -104z" />
    <glyph glyph-name="Agrave" unicode="&#xc0;" horiz-adv-x="1145" 
d="M540 1424h12q347 0 456 -844q28 -274 28 -392v-92q-3 -91 -84 -96q-96 0 -96 156q0 91 -4 172q-502 -4 -648 -4q-8 -4 -12 -4q-12 -111 -12 -204q-9 -109 -100 -116q-76 11 -80 80v32q0 400 140 904q149 408 400 408zM212 504h12q210 0 608 4h9q-71 511 -181 660
q-59 76 -108 76h-20q-184 0 -304 -632q0 -12 -16 -108zM373 1800q48 0 248 -172q16 -25 16 -52q-10 -83 -92 -88q-47 0 -244 168q-20 25 -20 60q2 78 92 84z" />
    <glyph glyph-name="Aacute" unicode="&#xc1;" horiz-adv-x="1145" 
d="M540 1424h12q347 0 456 -844q28 -274 28 -392v-92q-3 -91 -84 -96q-96 0 -96 156q0 91 -4 172q-502 -4 -648 -4q-8 -4 -12 -4q-12 -111 -12 -204q-9 -109 -100 -116q-76 11 -80 80v32q0 400 140 904q149 408 400 408zM212 504h12q210 0 608 4h9q-71 511 -181 660
q-59 76 -108 76h-20q-184 0 -304 -632q0 -12 -16 -108zM647 1790q67 0 84 -88q0 -56 -127 -164q-54 -60 -109 -60q-71 0 -84 92q0 51 134 163q49 57 102 57z" />
    <glyph glyph-name="Acircumflex" unicode="&#xc2;" horiz-adv-x="1145" 
d="M540 1424h12q347 0 456 -844q28 -274 28 -392v-92q-3 -91 -84 -96q-96 0 -96 156q0 91 -4 172q-502 -4 -648 -4q-8 -4 -12 -4q-12 -111 -12 -204q-9 -109 -100 -116q-76 11 -80 80v32q0 400 140 904q149 408 400 408zM212 504h12q210 0 608 4h9q-71 511 -181 660
q-59 76 -108 76h-20q-184 0 -304 -632q0 -12 -16 -108zM525 1790q80 0 220 -192q3 -14 3 -28q0 -26 -10 -50q-15 -35 -81 -42q-44 0 -132 108h-4q-101 -100 -140 -100q-92 8 -92 92q0 66 176 192q27 19 60 20z" />
    <glyph glyph-name="Atilde" unicode="&#xc3;" horiz-adv-x="1145" 
d="M540 1424h12q347 0 456 -844q28 -274 28 -392v-92q-3 -91 -84 -96q-96 0 -96 156q0 91 -4 172q-502 -4 -648 -4q-8 -4 -12 -4q-12 -111 -12 -204q-9 -109 -100 -116q-76 11 -80 80v32q0 400 140 904q149 408 400 408zM212 504h12q210 0 608 4h9q-71 511 -181 660
q-59 76 -108 76h-20q-184 0 -304 -632q0 -12 -16 -108zM392 1790h24q85 0 196 -128l6 -5q36 93 46 105q23 25 64 28q77 0 88 -96q-42 -216 -188 -216h-20q-82 0 -192 128l-7 6q-6 -2 -21 -86q-21 -45 -84 -48q-73 0 -84 96v24q0 135 136 188q22 4 36 4z" />
    <glyph glyph-name="Adieresis" unicode="&#xc4;" horiz-adv-x="1145" 
d="M540 1424h12q347 0 456 -844q28 -274 28 -392v-92q-3 -91 -84 -96q-96 0 -96 156q0 91 -4 172q-502 -4 -648 -4q-8 -4 -12 -4q-12 -111 -12 -204q-9 -109 -100 -116q-76 11 -80 80v32q0 400 140 904q149 408 400 408zM212 504h12q210 0 608 4h9q-71 511 -181 660
q-59 76 -108 76h-20q-184 0 -304 -632q0 -12 -16 -108zM304 1731q104 -15 104 -104q0 -83 -108 -100q-86 0 -100 108q0 81 104 96zM732 1731q104 -12 104 -104q-19 -96 -92 -96h-24q-76 0 -92 108q0 70 96 92h8z" />
    <glyph glyph-name="Aring" unicode="&#xc5;" horiz-adv-x="1145" 
d="M540 1424h12q347 0 456 -844q28 -274 28 -392v-92q-3 -91 -84 -96q-96 0 -96 156q0 91 -4 172q-502 -4 -648 -4q-8 -4 -12 -4q-12 -111 -12 -204q-9 -109 -100 -116q-76 11 -80 80v32q0 400 140 904q149 408 400 408zM212 504h12q210 0 608 4h9q-71 511 -181 660
q-59 76 -108 76h-20q-184 0 -304 -632q0 -12 -16 -108zM506 1798h28q126 0 180 -160q4 -21 4 -40v-20q-25 -180 -180 -180h-28q-140 0 -188 144q-4 16 -4 32v24q0 131 144 192q16 8 44 8zM498 1590v-4q1 -8 9 -12q16 0 31 4v12q0 22 -16 28h-8q-16 -6 -16 -28z" />
    <glyph glyph-name="AE" unicode="&#xc6;" horiz-adv-x="1497" 
d="M768 1424h48q498 -10 544 -68q20 -23 20 -56q-15 -88 -88 -88q-240 32 -480 32h-24q-32 -272 -48 -472q289 8 436 8q77 0 88 -96q0 -68 -92 -84q-201 0 -440 -8v-172q7 -205 52 -228q28 -11 156 -16q206 8 368 32q88 -17 88 -88q0 -85 -120 -96q-151 -24 -332 -24h-36
q-243 0 -296 100q-60 91 -60 348v140h-108q-63 0 -208 -4q-36 -151 -64 -468q-32 -56 -88 -56h-4q-80 17 -80 84q0 328 148 796q74 203 224 364q127 108 240 108q0 9 156 12zM284 768h276q12 152 44 460h-4q-117 0 -252 -280q-64 -148 -64 -180z" />
    <glyph glyph-name="Ccedilla" unicode="&#xc7;" horiz-adv-x="1173" 
d="M600 1424h40q231 0 428 -244q7 -18 7 -35v-4q0 -21 -10 -43q-21 -38 -86 -39q-45 7 -115 85q-121 100 -232 100h-36q-147 0 -288 -176q-128 -185 -128 -444v-20q0 -300 176 -396q74 -28 172 -28h48q171 0 332 128q16 8 44 8q56 0 80 -84v-4q0 -111 -300 -208
q-79 -20 -156 -20h-44q-364 0 -480 304q-52 140 -52 292v36q0 461 336 708q143 84 264 84zM546 104q92 0 92 -92q0 -14 -24 -100q116 -85 116 -188v-20q-23 -164 -160 -164h-16q-208 19 -208 120q0 75 92 88q101 -28 104 -28h8v4q0 10 -104 88q-24 38 -24 64v4
q34 224 124 224z" />
    <glyph glyph-name="Egrave" unicode="&#xc8;" horiz-adv-x="1071" 
d="M396 1424h28q294 0 504 -48q44 -25 44 -83v-5q-12 -73 -84 -80q-253 36 -472 36h-20q-160 0 -160 -48q-40 -140 -56 -416q54 0 412 16q88 -19 88 -88v-4q0 -88 -124 -88q-28 -4 -376 -16v-108q0 -212 48 -312q27 -4 60 -4q172 0 576 64q80 -5 88 -88v-4q0 -86 -144 -100
q-325 -48 -524 -48h-24q-152 0 -196 96q-64 148 -64 468v60q0 586 124 732q67 68 272 68zM341 1800q48 0 248 -172q16 -25 16 -52q-10 -83 -92 -88q-47 0 -244 168q-20 25 -20 60q2 78 92 84z" />
    <glyph glyph-name="Eacute" unicode="&#xc9;" horiz-adv-x="1071" 
d="M396 1424h28q294 0 504 -48q44 -25 44 -83v-5q-12 -73 -84 -80q-253 36 -472 36h-20q-160 0 -160 -48q-40 -140 -56 -416q54 0 412 16q88 -19 88 -88v-4q0 -88 -124 -88q-28 -4 -376 -16v-108q0 -212 48 -312q27 -4 60 -4q172 0 576 64q80 -5 88 -88v-4q0 -86 -144 -100
q-325 -48 -524 -48h-24q-152 0 -196 96q-64 148 -64 468v60q0 586 124 732q67 68 272 68zM615 1790q67 0 84 -88q0 -56 -127 -164q-54 -60 -109 -60q-71 0 -84 92q0 51 134 163q49 57 102 57z" />
    <glyph glyph-name="Ecircumflex" unicode="&#xca;" horiz-adv-x="1071" 
d="M396 1424h28q294 0 504 -48q44 -25 44 -83v-5q-12 -73 -84 -80q-253 36 -472 36h-20q-160 0 -160 -48q-40 -140 -56 -416q54 0 412 16q88 -19 88 -88v-4q0 -88 -124 -88q-28 -4 -376 -16v-108q0 -212 48 -312q27 -4 60 -4q172 0 576 64q80 -5 88 -88v-4q0 -86 -144 -100
q-325 -48 -524 -48h-24q-152 0 -196 96q-64 148 -64 468v60q0 586 124 732q67 68 272 68zM493 1790q80 0 220 -192q3 -14 3 -28q0 -26 -10 -50q-15 -35 -81 -42q-44 0 -132 108h-4q-101 -100 -140 -100q-92 8 -92 92q0 66 176 192q27 19 60 20z" />
    <glyph glyph-name="Edieresis" unicode="&#xcb;" horiz-adv-x="1071" 
d="M396 1424h28q294 0 504 -48q44 -25 44 -83v-5q-12 -73 -84 -80q-253 36 -472 36h-20q-160 0 -160 -48q-40 -140 -56 -416q54 0 412 16q88 -19 88 -88v-4q0 -88 -124 -88q-28 -4 -376 -16v-108q0 -212 48 -312q27 -4 60 -4q172 0 576 64q80 -5 88 -88v-4q0 -86 -144 -100
q-325 -48 -524 -48h-24q-152 0 -196 96q-64 148 -64 468v60q0 586 124 732q67 68 272 68zM272 1731q104 -15 104 -104q0 -83 -108 -100q-86 0 -100 108q0 81 104 96zM700 1731q104 -12 104 -104q-19 -96 -92 -96h-24q-76 0 -92 108q0 70 96 92h8z" />
    <glyph glyph-name="Igrave" unicode="&#xcc;" horiz-adv-x="282" 
d="M96 1420q75 -4 84 -92q-4 -1120 -4 -1240q-3 -83 -92 -88q-74 3 -84 88q4 1062 4 1244q0 81 92 88zM-55 1800q48 0 248 -172q16 -25 16 -52q-10 -83 -92 -88q-47 0 -244 168q-20 25 -20 60q2 78 92 84z" />
    <glyph glyph-name="Iacute" unicode="&#xcd;" horiz-adv-x="282" 
d="M96 1420q75 -4 84 -92q-4 -1120 -4 -1240q-3 -83 -92 -88q-74 3 -84 88q4 1062 4 1244q0 81 92 88zM219 1790q67 0 84 -88q0 -56 -127 -164q-54 -60 -109 -60q-71 0 -84 92q0 51 134 163q49 57 102 57z" />
    <glyph glyph-name="Icircumflex" unicode="&#xce;" horiz-adv-x="282" 
d="M96 1420q75 -4 84 -92q-4 -1120 -4 -1240q-3 -83 -92 -88q-74 3 -84 88q4 1062 4 1244q0 81 92 88zM97 1790q80 0 220 -192q3 -14 3 -28q0 -26 -10 -50q-15 -35 -81 -42q-44 0 -132 108h-4q-101 -100 -140 -100q-92 8 -92 92q0 66 176 192q27 19 60 20z" />
    <glyph glyph-name="Idieresis" unicode="&#xcf;" horiz-adv-x="282" 
d="M96 1420q75 -4 84 -92q-4 -1120 -4 -1240q-3 -83 -92 -88q-74 3 -84 88q4 1062 4 1244q0 81 92 88zM-124 1731q104 -15 104 -104q0 -83 -108 -100q-86 0 -100 108q0 81 104 96zM304 1731q104 -12 104 -104q-19 -96 -92 -96h-24q-76 0 -92 108q0 70 96 92h8z" />
    <glyph glyph-name="Eth" unicode="&#xd0;" horiz-adv-x="1302" 
d="M356 619q9 -205 45 -435l92 -8q378 0 500 292q32 100 32 204q0 413 -496 556q-64 16 -136 16h-28q-12 -79 -12 -168v-281h228q96 -7 96 -92q0 -73 -96 -84h-225zM174 795q-1 62 -1 129v68q0 318 48 376q50 56 132 56h48q270 0 552 -208q248 -223 248 -520v-40
q0 -462 -440 -620q-129 -36 -248 -36h-36q-174 0 -220 64q-63 136 -79 555h-81q-96 8 -96 92q0 73 96 84h77z" />
    <glyph glyph-name="Ntilde" unicode="&#xd1;" horiz-adv-x="1091" 
d="M828 1420q96 0 96 -164q56 -419 56 -804v-24q0 -345 -100 -404q-32 -24 -72 -24h-8q-159 0 -344 504q-204 524 -271 639l-1 -11q-4 -94 -4 -140v-40q0 -372 52 -864q0 -73 -96 -84q-79 0 -88 136q-48 444 -48 792v44q0 335 96 396q47 20 72 20q145 0 316 -480
q182 -474 296 -684l6 -11q13 76 18 243q0 261 -64 872v8q0 69 88 80zM364 1790h24q85 0 196 -128l6 -5q36 93 46 105q23 25 64 28q77 0 88 -96q-42 -216 -188 -216h-20q-82 0 -192 128l-7 6q-6 -2 -21 -86q-21 -45 -84 -48q-73 0 -84 96v24q0 135 136 188q22 4 36 4z" />
    <glyph glyph-name="Ograve" unicode="&#xd2;" horiz-adv-x="1187" 
d="M524 1424h32q272 0 436 -344q84 -187 84 -388v-48q0 -406 -300 -592q-111 -52 -220 -52h-36q-340 0 -484 392q-36 125 -36 248v40q0 413 280 660q125 84 244 84zM180 688v-52q0 -314 224 -436q67 -20 112 -20h48q241 0 320 332q11 49 16 156q0 338 -212 532
q-74 44 -124 44h-48q-179 0 -296 -308q-40 -114 -40 -248zM393 1800q48 0 248 -172q16 -25 16 -52q-10 -83 -92 -88q-47 0 -244 168q-20 25 -20 60q2 78 92 84z" />
    <glyph glyph-name="Oacute" unicode="&#xd3;" horiz-adv-x="1187" 
d="M524 1424h32q272 0 436 -344q84 -187 84 -388v-48q0 -406 -300 -592q-111 -52 -220 -52h-36q-340 0 -484 392q-36 125 -36 248v40q0 413 280 660q125 84 244 84zM180 688v-52q0 -314 224 -436q67 -20 112 -20h48q241 0 320 332q11 49 16 156q0 338 -212 532
q-74 44 -124 44h-48q-179 0 -296 -308q-40 -114 -40 -248zM667 1790q67 0 84 -88q0 -56 -127 -164q-54 -60 -109 -60q-71 0 -84 92q0 51 134 163q49 57 102 57z" />
    <glyph glyph-name="Ocircumflex" unicode="&#xd4;" horiz-adv-x="1187" 
d="M524 1424h32q272 0 436 -344q84 -187 84 -388v-48q0 -406 -300 -592q-111 -52 -220 -52h-36q-340 0 -484 392q-36 125 -36 248v40q0 413 280 660q125 84 244 84zM180 688v-52q0 -314 224 -436q67 -20 112 -20h48q241 0 320 332q11 49 16 156q0 338 -212 532
q-74 44 -124 44h-48q-179 0 -296 -308q-40 -114 -40 -248zM545 1790q80 0 220 -192q3 -14 3 -28q0 -26 -10 -50q-15 -35 -81 -42q-44 0 -132 108h-4q-101 -100 -140 -100q-92 8 -92 92q0 66 176 192q27 19 60 20z" />
    <glyph glyph-name="Otilde" unicode="&#xd5;" horiz-adv-x="1187" 
d="M524 1424h32q272 0 436 -344q84 -187 84 -388v-48q0 -406 -300 -592q-111 -52 -220 -52h-36q-340 0 -484 392q-36 125 -36 248v40q0 413 280 660q125 84 244 84zM180 688v-52q0 -314 224 -436q67 -20 112 -20h48q241 0 320 332q11 49 16 156q0 338 -212 532
q-74 44 -124 44h-48q-179 0 -296 -308q-40 -114 -40 -248zM412 1790h24q85 0 196 -128l6 -5q36 93 46 105q23 25 64 28q77 0 88 -96q-42 -216 -188 -216h-20q-82 0 -192 128l-7 6q-6 -2 -21 -86q-21 -45 -84 -48q-73 0 -84 96v24q0 135 136 188q22 4 36 4z" />
    <glyph glyph-name="Odieresis" unicode="&#xd6;" horiz-adv-x="1187" 
d="M524 1424h32q272 0 436 -344q84 -187 84 -388v-48q0 -406 -300 -592q-111 -52 -220 -52h-36q-340 0 -484 392q-36 125 -36 248v40q0 413 280 660q125 84 244 84zM180 688v-52q0 -314 224 -436q67 -20 112 -20h48q241 0 320 332q11 49 16 156q0 338 -212 532
q-74 44 -124 44h-48q-179 0 -296 -308q-40 -114 -40 -248zM324 1731q104 -15 104 -104q0 -83 -108 -100q-86 0 -100 108q0 81 104 96zM752 1731q104 -12 104 -104q-19 -96 -92 -96h-24q-76 0 -92 108q0 70 96 92h8z" />
    <glyph glyph-name="multiply" unicode="&#xd7;" horiz-adv-x="866" 
d="M628 1144q88 -17 88 -88q0 -51 -116 -160q-108 -114 -108 -120q0 -8 244 -240q12 -23 12 -48q-12 -83 -92 -88q-48 0 -184 148q-95 85 -104 92q-9 -1 -192 -200q-30 -32 -64 -32h-12q-80 16 -80 80v12q0 46 160 204q45 47 52 60v4q-224 217 -224 228q-8 18 -8 40
q0 71 92 84q48 0 200 -164l64 -56q9 0 212 220q26 23 60 24z" />
    <glyph glyph-name="Oslash" unicode="&#xd8;" horiz-adv-x="1099" 
d="M690 1198l-2 2q-74 44 -124 44h-48q-179 0 -296 -308q-40 -114 -40 -248v-52q0 -108 27 -194zM808 1051l-499 -781q41 -40 95 -70q67 -20 112 -20h48q241 0 320 332q11 49 16 156q0 223 -92 383zM787 1349l45 71q30 32 72 32q71 0 84 -92q0 -22 -75 -143q42 -60 79 -137
q84 -187 84 -388v-48q0 -406 -300 -592q-111 -52 -220 -52h-36q-184 0 -311 115l-53 -83q-30 -32 -72 -32q-71 0 -84 92q0 24 93 173q-31 57 -57 127q-36 125 -36 248v40q0 413 280 660q125 84 244 84h32q127 0 231 -75z" />
    <glyph glyph-name="Ugrave" unicode="&#xd9;" 
d="M976 1196q72 -259 72 -528v-28q0 -484 -336 -612q-83 -28 -168 -28h-48q-351 0 -468 384q-28 110 -28 240v40q0 328 124 704q20 40 80 40q86 -13 86 -79q0 -5 -1 -9l-1 -4q-108 -383 -108 -640v-52q0 -314 172 -412q70 -32 144 -32h52q226 0 296 248q28 110 28 236
q0 255 -112 672q-1 6 -1 11q0 58 93 77q90 0 124 -228zM379 1800q48 0 248 -172q16 -25 16 -52q-10 -83 -92 -88q-47 0 -244 168q-20 25 -20 60q2 78 92 84z" />
    <glyph glyph-name="Uacute" unicode="&#xda;" 
d="M976 1196q72 -259 72 -528v-28q0 -484 -336 -612q-83 -28 -168 -28h-48q-351 0 -468 384q-28 110 -28 240v40q0 328 124 704q20 40 80 40q86 -13 86 -79q0 -5 -1 -9l-1 -4q-108 -383 -108 -640v-52q0 -314 172 -412q70 -32 144 -32h52q226 0 296 248q28 110 28 236
q0 255 -112 672q-1 6 -1 11q0 58 93 77q90 0 124 -228zM653 1790q67 0 84 -88q0 -56 -127 -164q-54 -60 -109 -60q-71 0 -84 92q0 51 134 163q49 57 102 57z" />
    <glyph glyph-name="Ucircumflex" unicode="&#xdb;" 
d="M976 1196q72 -259 72 -528v-28q0 -484 -336 -612q-83 -28 -168 -28h-48q-351 0 -468 384q-28 110 -28 240v40q0 328 124 704q20 40 80 40q86 -13 86 -79q0 -5 -1 -9l-1 -4q-108 -383 -108 -640v-52q0 -314 172 -412q70 -32 144 -32h52q226 0 296 248q28 110 28 236
q0 255 -112 672q-1 6 -1 11q0 58 93 77q90 0 124 -228zM531 1790q80 0 220 -192q3 -14 3 -28q0 -26 -10 -50q-15 -35 -81 -42q-44 0 -132 108h-4q-101 -100 -140 -100q-92 8 -92 92q0 66 176 192q27 19 60 20z" />
    <glyph glyph-name="Udieresis" unicode="&#xdc;" 
d="M976 1196q72 -259 72 -528v-28q0 -484 -336 -612q-83 -28 -168 -28h-48q-351 0 -468 384q-28 110 -28 240v40q0 328 124 704q20 40 80 40q86 -13 86 -79q0 -5 -1 -9l-1 -4q-108 -383 -108 -640v-52q0 -314 172 -412q70 -32 144 -32h52q226 0 296 248q28 110 28 236
q0 255 -112 672q-1 6 -1 11q0 58 93 77q90 0 124 -228zM310 1731q104 -15 104 -104q0 -83 -108 -100q-86 0 -100 108q0 81 104 96zM738 1731q104 -12 104 -104q-19 -96 -92 -96h-24q-76 0 -92 108q0 70 96 92h8z" />
    <glyph glyph-name="Yacute" unicode="&#xdd;" horiz-adv-x="990" 
d="M792 1424q81 0 88 -100q0 -508 -228 -728q-47 -38 -120 -72v-420q-9 -104 -96 -104q-72 0 -84 100v428q-121 34 -204 156q-148 236 -148 608v4q6 96 96 96q65 0 80 -84q0 -333 132 -544q58 -68 128 -68h16q168 0 236 432q12 231 36 260q18 24 68 36zM569 1790
q67 0 84 -88q0 -56 -127 -164q-54 -60 -109 -60q-71 0 -84 92q0 51 134 163q49 57 102 57z" />
    <glyph glyph-name="Thorn" unicode="&#xde;" horiz-adv-x="966" 
d="M92 1420q79 0 88 -116v-84q105 8 136 8q392 0 520 -304q32 -85 32 -188v-44q0 -359 -344 -472q-80 -20 -188 -24q-85 4 -156 12v-108q-10 -100 -88 -100q-83 0 -92 112v1212q8 96 92 96zM180 1032v-640q83 -16 156 -16q356 0 356 340q0 332 -380 332q-132 -3 -132 -16z
" />
    <glyph glyph-name="germandbls" unicode="&#xdf;" horiz-adv-x="1109" 
d="M336 1424h36q256 0 436 -232q52 -79 52 -164v-12q0 -108 -64 -192v-4q97 -50 128 -84q92 -80 92 -212v-36q0 -336 -492 -456q-72 -12 -96 -12q-77 0 -88 92q0 88 156 96q340 85 340 276v40q0 140 -220 140q-75 -4 -148 -16q-69 0 -88 92q0 79 128 100q172 64 172 160v36
q0 91 -184 184q-68 24 -120 24h-40q-118 0 -140 -148q-16 -92 -16 -240v-28q0 -325 56 -748q0 -57 -84 -80h-8q-82 0 -96 140q-48 375 -48 676v44q0 398 136 496q98 68 200 68z" />
    <glyph glyph-name="agrave" unicode="&#xe0;" horiz-adv-x="898" 
d="M516 836h24q118 0 140 -36q30 0 116 -716q0 -71 -92 -84q-29 0 -76 40h-4q-77 -8 -108 -8h-80q-311 0 -416 232q-20 73 -20 124q0 324 324 424q78 24 192 24zM180 384q0 -117 132 -156q75 -16 112 -16h88q54 0 88 8q-44 315 -64 436h-32q-324 0 -324 -272zM253 1212
q48 0 248 -172q16 -25 16 -52q-10 -83 -92 -88q-47 0 -244 168q-20 25 -20 60q2 78 92 84z" />
    <glyph glyph-name="aacute" unicode="&#xe1;" horiz-adv-x="898" 
d="M516 836h24q118 0 140 -36q30 0 116 -716q0 -71 -92 -84q-29 0 -76 40h-4q-77 -8 -108 -8h-80q-311 0 -416 232q-20 73 -20 124q0 324 324 424q78 24 192 24zM180 384q0 -117 132 -156q75 -16 112 -16h88q54 0 88 8q-44 315 -64 436h-32q-324 0 -324 -272zM527 1202
q67 0 84 -88q0 -56 -127 -164q-54 -60 -109 -60q-71 0 -84 92q0 51 134 163q49 57 102 57z" />
    <glyph glyph-name="acircumflex" unicode="&#xe2;" horiz-adv-x="898" 
d="M516 836h24q118 0 140 -36q30 0 116 -716q0 -71 -92 -84q-29 0 -76 40h-4q-77 -8 -108 -8h-80q-311 0 -416 232q-20 73 -20 124q0 324 324 424q78 24 192 24zM180 384q0 -117 132 -156q75 -16 112 -16h88q54 0 88 8q-44 315 -64 436h-32q-324 0 -324 -272zM405 1202
q80 0 220 -192q3 -14 3 -28q0 -26 -10 -50q-15 -35 -81 -42q-44 0 -132 108h-4q-101 -100 -140 -100q-92 8 -92 92q0 66 176 192q27 19 60 20z" />
    <glyph glyph-name="atilde" unicode="&#xe3;" horiz-adv-x="898" 
d="M516 836h24q118 0 140 -36q30 0 116 -716q0 -71 -92 -84q-29 0 -76 40h-4q-77 -8 -108 -8h-80q-311 0 -416 232q-20 73 -20 124q0 324 324 424q78 24 192 24zM180 384q0 -117 132 -156q75 -16 112 -16h88q54 0 88 8q-44 315 -64 436h-32q-324 0 -324 -272zM272 1202h24
q85 0 196 -128l6 -5q36 93 46 105q23 25 64 28q77 0 88 -96q-42 -216 -188 -216h-20q-82 0 -192 128l-7 6q-6 -2 -21 -86q-21 -45 -84 -48q-73 0 -84 96v24q0 135 136 188q22 4 36 4z" />
    <glyph glyph-name="adieresis" unicode="&#xe4;" horiz-adv-x="898" 
d="M516 836h24q118 0 140 -36q30 0 116 -716q0 -71 -92 -84q-29 0 -76 40h-4q-77 -8 -108 -8h-80q-311 0 -416 232q-20 73 -20 124q0 324 324 424q78 24 192 24zM180 384q0 -117 132 -156q75 -16 112 -16h88q54 0 88 8q-44 315 -64 436h-32q-324 0 -324 -272zM184 1143
q104 -15 104 -104q0 -83 -108 -100q-86 0 -100 108q0 81 104 96zM612 1143q104 -12 104 -104q-19 -96 -92 -96h-24q-76 0 -92 108q0 70 96 92h8z" />
    <glyph glyph-name="aring" unicode="&#xe5;" horiz-adv-x="898" 
d="M516 836h24q118 0 140 -36q30 0 116 -716q0 -71 -92 -84q-29 0 -76 40h-4q-77 -8 -108 -8h-80q-311 0 -416 232q-20 73 -20 124q0 324 324 424q78 24 192 24zM180 384q0 -117 132 -156q75 -16 112 -16h88q54 0 88 8q-44 315 -64 436h-32q-324 0 -324 -272zM386 1310h28
q126 0 180 -160q4 -21 4 -40v-20q-25 -180 -180 -180h-28q-140 0 -188 144q-4 16 -4 32v24q0 131 144 192q16 8 44 8zM378 1102v-4q1 -8 9 -12q16 0 31 4v12q0 22 -16 28h-8q-16 -6 -16 -28z" />
    <glyph glyph-name="ae" unicode="&#xe6;" horiz-adv-x="1454" 
d="M516 840h24q156 0 156 -72h4q9 0 64 36q64 36 148 36h36q284 0 396 -260q20 -49 20 -92v-28q0 -78 -84 -112q-92 -16 -192 -16h-120q-61 0 -188 4q0 -58 116 -132q45 -24 152 -24h16q85 0 168 32h8q88 -15 88 -88q0 -124 -272 -124q-160 0 -264 52h-8q-26 -48 -72 -48h-8
q-30 0 -76 40h-4q-116 -12 -156 -12q-324 0 -436 208q-32 77 -32 152q0 324 324 424q78 24 192 24zM180 384q0 -172 292 -172q118 0 128 20l-64 428h-20q-336 0 -336 -276zM764 520v-4q139 -4 200 -4h188l20 4q0 72 -132 132q-43 12 -84 12h-60q-94 0 -132 -140z" />
    <glyph glyph-name="ccedilla" unicode="&#xe7;" horiz-adv-x="854" 
d="M376 836h36q157 0 292 -72q32 -30 32 -72q-3 -82 -82 -84q-108 38 -230 48h-52q-134 0 -180 -144q-12 -49 -12 -108v-60q0 -109 84 -148q29 -16 64 -16h64q66 0 228 48l14 3q58 -5 78 -95q0 -107 -312 -136h-60q-250 0 -328 252q-12 49 -12 108v32q0 317 240 420
q73 24 136 24zM376 104q92 0 92 -92q0 -14 -24 -100q116 -85 116 -188v-20q-23 -164 -160 -164h-16q-208 19 -208 120q0 75 92 88q101 -28 104 -28h8v4q0 10 -104 88q-24 38 -24 64v4q34 224 124 224z" />
    <glyph glyph-name="egrave" unicode="&#xe8;" horiz-adv-x="891" 
d="M332 840h40q288 0 400 -268q16 -49 16 -84v-28q0 -128 -224 -128l-356 4v-8q26 -78 104 -120q50 -28 152 -28h24q85 0 168 32h8q88 -15 88 -88q0 -87 -156 -116q-52 -8 -112 -8q-342 0 -448 268q-36 99 -36 188q0 267 236 368q45 16 96 16zM188 516q139 -4 200 -4h209
l-1 12q0 56 -120 120q-50 16 -104 16h-52q-88 0 -130 -126zM249 1212q48 0 248 -172q16 -25 16 -52q-10 -83 -92 -88q-47 0 -244 168q-20 25 -20 60q2 78 92 84z" />
    <glyph glyph-name="eacute" unicode="&#xe9;" horiz-adv-x="891" 
d="M332 840h40q288 0 400 -268q16 -49 16 -84v-28q0 -128 -224 -128l-356 4v-8q26 -78 104 -120q50 -28 152 -28h24q85 0 168 32h8q88 -15 88 -88q0 -87 -156 -116q-52 -8 -112 -8q-342 0 -448 268q-36 99 -36 188q0 267 236 368q45 16 96 16zM188 516q139 -4 200 -4h209
l-1 12q0 56 -120 120q-50 16 -104 16h-52q-88 0 -130 -126zM523 1202q67 0 84 -88q0 -56 -127 -164q-54 -60 -109 -60q-71 0 -84 92q0 51 134 163q49 57 102 57z" />
    <glyph glyph-name="ecircumflex" unicode="&#xea;" horiz-adv-x="891" 
d="M332 840h40q288 0 400 -268q16 -49 16 -84v-28q0 -128 -224 -128l-356 4v-8q26 -78 104 -120q50 -28 152 -28h24q85 0 168 32h8q88 -15 88 -88q0 -87 -156 -116q-52 -8 -112 -8q-342 0 -448 268q-36 99 -36 188q0 267 236 368q45 16 96 16zM188 516q139 -4 200 -4h209
l-1 12q0 56 -120 120q-50 16 -104 16h-52q-88 0 -130 -126zM401 1202q80 0 220 -192q3 -14 3 -28q0 -26 -10 -50q-15 -35 -81 -42q-44 0 -132 108h-4q-101 -100 -140 -100q-92 8 -92 92q0 66 176 192q27 19 60 20z" />
    <glyph glyph-name="edieresis" unicode="&#xeb;" horiz-adv-x="891" 
d="M332 840h40q288 0 400 -268q16 -49 16 -84v-28q0 -128 -224 -128l-356 4v-8q26 -78 104 -120q50 -28 152 -28h24q85 0 168 32h8q88 -15 88 -88q0 -87 -156 -116q-52 -8 -112 -8q-342 0 -448 268q-36 99 -36 188q0 267 236 368q45 16 96 16zM188 516q139 -4 200 -4h209
l-1 12q0 56 -120 120q-50 16 -104 16h-52q-88 0 -130 -126zM180 1143q104 -15 104 -104q0 -83 -108 -100q-86 0 -100 108q0 81 104 96zM608 1143q104 -12 104 -104q-19 -96 -92 -96h-24q-76 0 -92 108q0 70 96 92h8z" />
    <glyph glyph-name="igrave" unicode="&#xec;" horiz-adv-x="614" 
d="M212 836q88 -22 88 -88q-8 -38 -76 -228q-44 -140 -44 -240v-44q0 -56 72 -56h60q34 0 96 56q19 12 44 12q76 0 88 -92q0 -73 -140 -140q-57 -16 -88 -16h-36q-226 0 -272 188q-4 40 -4 60v40q0 186 136 508q26 40 76 40zM125 1212q48 0 248 -172q16 -25 16 -52
q-10 -83 -92 -88q-47 0 -244 168q-20 25 -20 60q2 78 92 84z" />
    <glyph glyph-name="iacute" unicode="&#xed;" horiz-adv-x="614" 
d="M212 836q88 -22 88 -88q-8 -38 -76 -228q-44 -140 -44 -240v-44q0 -56 72 -56h60q34 0 96 56q19 12 44 12q76 0 88 -92q0 -73 -140 -140q-57 -16 -88 -16h-36q-226 0 -272 188q-4 40 -4 60v40q0 186 136 508q26 40 76 40zM399 1202q67 0 84 -88q0 -56 -127 -164
q-54 -60 -109 -60q-71 0 -84 92q0 51 134 163q49 57 102 57z" />
    <glyph glyph-name="icircumflex" unicode="&#xee;" horiz-adv-x="614" 
d="M212 836q88 -22 88 -88q-8 -38 -76 -228q-44 -140 -44 -240v-44q0 -56 72 -56h60q34 0 96 56q19 12 44 12q76 0 88 -92q0 -73 -140 -140q-57 -16 -88 -16h-36q-226 0 -272 188q-4 40 -4 60v40q0 186 136 508q26 40 76 40zM277 1202q80 0 220 -192q3 -14 3 -28
q0 -26 -10 -50q-15 -35 -81 -42q-44 0 -132 108h-4q-101 -100 -140 -100q-92 8 -92 92q0 66 176 192q27 19 60 20z" />
    <glyph glyph-name="idieresis" unicode="&#xef;" horiz-adv-x="614" 
d="M212 836q88 -22 88 -88q-8 -38 -76 -228q-44 -140 -44 -240v-44q0 -56 72 -56h60q34 0 96 56q19 12 44 12q76 0 88 -92q0 -73 -140 -140q-57 -16 -88 -16h-36q-226 0 -272 188q-4 40 -4 60v40q0 186 136 508q26 40 76 40zM56 1143q104 -15 104 -104q0 -83 -108 -100
q-86 0 -100 108q0 81 104 96zM484 1143q104 -12 104 -104q-19 -96 -92 -96h-24q-76 0 -92 108q0 70 96 92h8z" />
    <glyph glyph-name="eth" unicode="&#xf0;" horiz-adv-x="909" 
d="M252 1424q58 0 208 -176q126 64 136 64q8 3 12 4q92 -18 92 -92q0 -66 -132 -124v-8q248 -395 248 -668q0 -290 -248 -396q-66 -28 -152 -28q-258 0 -384 268q-32 92 -32 180q0 257 236 328q63 20 140 20h24q59 0 128 -12l4 8q-61 129 -124 212l-156 -76h-8q-85 2 -96 88
q0 67 144 132l4 8q0 11 -124 140q-8 16 -8 44q0 69 88 84zM180 464v-28q0 -219 228 -256h16q155 0 204 160q8 32 8 68v16q0 168 -56 168q-105 24 -184 24h-24q-192 0 -192 -152z" />
    <glyph glyph-name="ntilde" unicode="&#xf1;" horiz-adv-x="854" 
d="M372 836h48q221 0 304 -244q16 -64 16 -128v-32q0 -194 -72 -388q-24 -42 -80 -44q-84 21 -84 76v24q60 216 60 336q0 149 -72 200q-37 20 -60 20h-72q-115 0 -164 -240q-6 -32 -8 -84q8 -111 8 -216q-21 -92 -88 -92q-100 0 -100 192q0 134 -8 448q22 76 88 76
q44 -5 44 -12q115 108 240 108zM244 1202h24q85 0 196 -128l6 -5q36 93 46 105q23 25 64 28q77 0 88 -96q-42 -216 -188 -216h-20q-82 0 -192 128l-7 6q-6 -2 -21 -86q-21 -45 -84 -48q-73 0 -84 96v24q0 135 136 188q22 4 36 4z" />
    <glyph glyph-name="ograve" unicode="&#xf2;" horiz-adv-x="896" 
d="M396 860h40q197 0 320 -276q32 -109 32 -188q0 -296 -276 -384q-51 -12 -108 -12q-323 0 -400 288q0 7 -4 72q0 256 228 440q91 60 168 60zM180 352q0 -136 156 -168q26 -4 52 -4h40q130 0 172 144q8 41 8 72q0 193 -148 280l-24 4h-40q-94 0 -192 -192q-24 -70 -24 -136
zM249 1262q48 0 248 -172q16 -25 16 -52q-10 -83 -92 -88q-47 0 -244 168q-20 25 -20 60q2 78 92 84z" />
    <glyph glyph-name="oacute" unicode="&#xf3;" horiz-adv-x="896" 
d="M396 860h40q197 0 320 -276q32 -109 32 -188q0 -296 -276 -384q-51 -12 -108 -12q-323 0 -400 288q0 7 -4 72q0 256 228 440q91 60 168 60zM180 352q0 -136 156 -168q26 -4 52 -4h40q130 0 172 144q8 41 8 72q0 193 -148 280l-24 4h-40q-94 0 -192 -192q-24 -70 -24 -136
zM523 1222q67 0 84 -88q0 -56 -127 -164q-54 -60 -109 -60q-71 0 -84 92q0 51 134 163q49 57 102 57z" />
    <glyph glyph-name="ocircumflex" unicode="&#xf4;" horiz-adv-x="896" 
d="M396 860h40q197 0 320 -276q32 -109 32 -188q0 -296 -276 -384q-51 -12 -108 -12q-323 0 -400 288q0 7 -4 72q0 256 228 440q91 60 168 60zM180 352q0 -136 156 -168q26 -4 52 -4h40q130 0 172 144q8 41 8 72q0 193 -148 280l-24 4h-40q-94 0 -192 -192q-24 -70 -24 -136
zM401 1202q80 0 220 -192q3 -14 3 -28q0 -26 -10 -50q-15 -35 -81 -42q-44 0 -132 108h-4q-101 -100 -140 -100q-92 8 -92 92q0 66 176 192q27 19 60 20z" />
    <glyph glyph-name="otilde" unicode="&#xf5;" horiz-adv-x="896" 
d="M396 860h40q197 0 320 -276q32 -109 32 -188q0 -296 -276 -384q-51 -12 -108 -12q-323 0 -400 288q0 7 -4 72q0 256 228 440q91 60 168 60zM180 352q0 -136 156 -168q26 -4 52 -4h40q130 0 172 144q8 41 8 72q0 193 -148 280l-24 4h-40q-94 0 -192 -192q-24 -70 -24 -136
zM268 1232h24q85 0 196 -128l6 -5q36 93 46 105q23 25 64 28q77 0 88 -96q-42 -216 -188 -216h-20q-82 0 -192 128l-7 6q-6 -2 -21 -86q-21 -45 -84 -48q-73 0 -84 96v24q0 135 136 188q22 4 36 4z" />
    <glyph glyph-name="odieresis" unicode="&#xf6;" horiz-adv-x="896" 
d="M396 860h40q197 0 320 -276q32 -109 32 -188q0 -296 -276 -384q-51 -12 -108 -12q-323 0 -400 288q0 7 -4 72q0 256 228 440q91 60 168 60zM180 352q0 -136 156 -168q26 -4 52 -4h40q130 0 172 144q8 41 8 72q0 193 -148 280l-24 4h-40q-94 0 -192 -192q-24 -70 -24 -136
zM180 1143q104 -15 104 -104q0 -83 -108 -100q-86 0 -100 108q0 81 104 96zM608 1143q104 -12 104 -104q-19 -96 -92 -96h-24q-76 0 -92 108q0 70 96 92h8z" />
    <glyph glyph-name="divide" unicode="&#xf7;" horiz-adv-x="817" 
d="M368 1112q86 0 100 -104q0 -86 -104 -104q-83 0 -104 108v4q0 81 108 96zM632 784q100 -10 100 -88q-19 -88 -76 -88h-580q-69 6 -76 96q3 64 84 80h548zM368 484q101 -11 104 -100q-22 -104 -104 -104h-4q-104 17 -104 104q0 86 108 100z" />
    <glyph glyph-name="oslash" unicode="&#xf8;" horiz-adv-x="899" 
d="M474 667q-7 5 -14 9l-24 4h-40q-94 0 -192 -192q-24 -70 -24 -136q0 -11 1 -21q176 203 293 336zM587 526q-177 -207 -288 -332q17 -6 37 -10q26 -4 52 -4h40q130 0 172 144q8 41 8 72q0 72 -21 130zM597 805q77 87 99 107q21 12 48 12q71 0 84 -92q0 -42 -115 -163
q22 -39 43 -85q32 -109 32 -188q0 -296 -276 -384q-51 -12 -108 -12q-139 0 -232 53q-26 -28 -40 -41q-21 -12 -48 -12q-71 0 -84 92q0 25 48 86q-28 49 -44 110q0 7 -4 72q0 256 228 440q91 60 168 60h40q88 0 161 -55z" />
    <glyph glyph-name="ugrave" unicode="&#xf9;" horiz-adv-x="885" 
d="M136 836q83 -10 84 -92q-40 -191 -40 -280v-112q15 -172 84 -172h40q182 0 272 364q16 86 28 200q14 58 84 60q82 -9 88 -92q-47 -644 -64 -644q-38 -44 -76 -44q-53 0 -92 72h-4q-115 -96 -240 -96h-36q-173 0 -248 228q-16 79 -16 144v52q0 225 60 376q19 34 76 36z
M243 1212q48 0 248 -172q16 -25 16 -52q-10 -83 -92 -88q-47 0 -244 168q-20 25 -20 60q2 78 92 84z" />
    <glyph glyph-name="uacute" unicode="&#xfa;" horiz-adv-x="885" 
d="M136 836q83 -10 84 -92q-40 -191 -40 -280v-112q15 -172 84 -172h40q182 0 272 364q16 86 28 200q14 58 84 60q82 -9 88 -92q-47 -644 -64 -644q-38 -44 -76 -44q-53 0 -92 72h-4q-115 -96 -240 -96h-36q-173 0 -248 228q-16 79 -16 144v52q0 225 60 376q19 34 76 36z
M517 1202q67 0 84 -88q0 -56 -127 -164q-54 -60 -109 -60q-71 0 -84 92q0 51 134 163q49 57 102 57z" />
    <glyph glyph-name="ucircumflex" unicode="&#xfb;" horiz-adv-x="885" 
d="M136 836q83 -10 84 -92q-40 -191 -40 -280v-112q15 -172 84 -172h40q182 0 272 364q16 86 28 200q14 58 84 60q82 -9 88 -92q-47 -644 -64 -644q-38 -44 -76 -44q-53 0 -92 72h-4q-115 -96 -240 -96h-36q-173 0 -248 228q-16 79 -16 144v52q0 225 60 376q19 34 76 36z
M395 1202q80 0 220 -192q3 -14 3 -28q0 -26 -10 -50q-15 -35 -81 -42q-44 0 -132 108h-4q-101 -100 -140 -100q-92 8 -92 92q0 66 176 192q27 19 60 20z" />
    <glyph glyph-name="udieresis" unicode="&#xfc;" horiz-adv-x="885" 
d="M136 836q83 -10 84 -92q-40 -191 -40 -280v-112q15 -172 84 -172h40q182 0 272 364q16 86 28 200q14 58 84 60q82 -9 88 -92q-47 -644 -64 -644q-38 -44 -76 -44q-53 0 -92 72h-4q-115 -96 -240 -96h-36q-173 0 -248 228q-16 79 -16 144v52q0 225 60 376q19 34 76 36z
M174 1143q104 -15 104 -104q0 -83 -108 -100q-86 0 -100 108q0 81 104 96zM602 1143q104 -12 104 -104q-19 -96 -92 -96h-24q-76 0 -92 108q0 70 96 92h8z" />
    <glyph glyph-name="yacute" unicode="&#xfd;" horiz-adv-x="903" 
d="M112 830q74 -12 80 -84v-4q-12 -99 -12 -156v-96q0 -231 104 -304q28 -8 44 -8q185 0 220 344v212q0 73 96 84q79 0 104 -184q52 -229 52 -440q0 -476 -316 -584q-58 -20 -120 -20h-52q-161 0 -240 120q-4 22 -4 32q0 76 92 84q15 0 116 -52q21 -4 40 -4h52
q169 0 232 220q20 116 20 156h-4q-125 -148 -292 -148q-251 0 -312 364q-12 74 -12 180q5 238 35 269q25 19 77 19zM529 1202q67 0 84 -88q0 -56 -127 -164q-54 -60 -109 -60q-71 0 -84 92q0 51 134 163q49 57 102 57z" />
    <glyph glyph-name="thorn" unicode="&#xfe;" horiz-adv-x="894" 
d="M92 1160q67 0 84 -88v-268h4q143 36 224 36h16q263 0 348 -264q16 -72 16 -140v-4q0 -298 -316 -396q-102 -32 -256 -32h-36v-176q0 -76 -92 -88q-73 0 -84 96v1228q8 96 92 96zM176 604v-420h64q268 0 348 148q16 54 16 84v20q0 224 -176 224h-28q-116 0 -224 -56z" />
    <glyph glyph-name="ydieresis" unicode="&#xff;" horiz-adv-x="903" 
d="M112 830q74 -12 80 -84v-4q-12 -99 -12 -156v-96q0 -231 104 -304q28 -8 44 -8q185 0 220 344v212q0 73 96 84q79 0 104 -184q52 -229 52 -440q0 -476 -316 -584q-58 -20 -120 -20h-52q-161 0 -240 120q-4 22 -4 32q0 76 92 84q15 0 116 -52q21 -4 40 -4h52
q169 0 232 220q20 116 20 156h-4q-125 -148 -292 -148q-251 0 -312 364q-12 74 -12 180q5 238 35 269q25 19 77 19zM186 1143q104 -15 104 -104q0 -83 -108 -100q-86 0 -100 108q0 81 104 96zM614 1143q104 -12 104 -104q-19 -96 -92 -96h-24q-76 0 -92 108q0 70 96 92h8z
" />
    <glyph glyph-name="Amacron" unicode="&#x100;" horiz-adv-x="1145" 
d="M540 1424h12q347 0 456 -844q28 -274 28 -392v-92q-3 -91 -84 -96q-96 0 -96 156q0 91 -4 172q-502 -4 -648 -4q-8 -4 -12 -4q-12 -111 -12 -204q-9 -109 -100 -116q-76 11 -80 80v32q0 400 140 904q149 408 400 408zM212 504h12q210 0 608 4h9q-71 511 -181 660
q-59 76 -108 76h-20q-184 0 -304 -632q0 -12 -16 -108zM750 1736q65 0 80 -92q0 -88 -152 -88q-90 -4 -392 -8q-65 0 -80 92q0 88 152 88q312 8 392 8z" />
    <glyph glyph-name="amacron" unicode="&#x101;" horiz-adv-x="898" 
d="M516 836h24q118 0 140 -36q30 0 116 -716q0 -71 -92 -84q-29 0 -76 40h-4q-77 -8 -108 -8h-80q-311 0 -416 232q-20 73 -20 124q0 324 324 424q78 24 192 24zM180 384q0 -117 132 -156q75 -16 112 -16h88q54 0 88 8q-44 315 -64 436h-32q-324 0 -324 -272zM630 1108
q65 0 80 -92q0 -88 -152 -88q-90 -4 -392 -8q-65 0 -80 92q0 88 152 88q312 8 392 8z" />
    <glyph glyph-name="Abreve" unicode="&#x102;" horiz-adv-x="1145" 
d="M540 1424h12q347 0 456 -844q28 -274 28 -392v-92q-3 -91 -84 -96q-96 0 -96 156q0 91 -4 172q-502 -4 -648 -4q-8 -4 -12 -4q-12 -111 -12 -204q-9 -109 -100 -116q-76 11 -80 80v32q0 400 140 904q149 408 400 408zM212 504h12q210 0 608 4h9q-71 511 -181 660
q-59 76 -108 76h-20q-184 0 -304 -632q0 -12 -16 -108zM724 1790q71 0 84 -92q0 -71 -128 -172q-76 -48 -144 -48h-32q-180 0 -272 184q-4 16 -4 28q0 78 96 88q41 0 100 -88q38 -32 68 -32h40q59 0 132 112q25 20 60 20z" />
    <glyph glyph-name="abreve" unicode="&#x103;" horiz-adv-x="898" 
d="M516 836h24q118 0 140 -36q30 0 116 -716q0 -71 -92 -84q-29 0 -76 40h-4q-77 -8 -108 -8h-80q-311 0 -416 232q-20 73 -20 124q0 324 324 424q78 24 192 24zM180 384q0 -117 132 -156q75 -16 112 -16h88q54 0 88 8q-44 315 -64 436h-32q-324 0 -324 -272zM604 1202
q71 0 84 -92q0 -71 -128 -172q-76 -48 -144 -48h-32q-180 0 -272 184q-4 16 -4 28q0 78 96 88q41 0 100 -88q38 -32 68 -32h40q59 0 132 112q25 20 60 20z" />
    <glyph glyph-name="Aogonek" unicode="&#x104;" horiz-adv-x="1145" 
d="M540 1424h12q347 0 456 -844q28 -274 28 -392v-92q-3 -91 -84 -96q-96 0 -96 156q0 91 -4 172q-502 -4 -648 -4q-8 -4 -12 -4q-12 -111 -12 -204q-9 -109 -100 -116q-76 11 -80 80v32q0 400 140 904q149 408 400 408zM212 504h12q210 0 608 4h9q-71 511 -181 660
q-59 76 -108 76h-20q-184 0 -304 -632q0 -12 -16 -108zM932 130q67 0 84 -80v-16q0 -28 -96 -160q-12 -31 -12 -44q4 -10 7.5 -10.5t4.5 -0.5q5 0 11 4q25 12 47 108q17 39 78 43q76 -13 80 -96q-36 -228 -204 -228h-24q-184 19 -184 172q0 131 160 296q21 12 48 12z" />
    <glyph glyph-name="aogonek" unicode="&#x105;" horiz-adv-x="898" 
d="M516 836h24q118 0 140 -36q30 0 116 -716q0 -71 -92 -84q-29 0 -76 40h-4q-77 -8 -108 -8h-80q-311 0 -416 232q-20 73 -20 124q0 324 324 424q78 24 192 24zM180 384q0 -117 132 -156q75 -16 112 -16h88q54 0 88 8q-44 315 -64 436h-32q-324 0 -324 -272zM692 130
q67 0 84 -80v-16q0 -28 -96 -160q-12 -31 -12 -44q4 -10 7.5 -10.5t4.5 -0.5q5 0 11 4q25 12 47 108q17 39 78 43q76 -13 80 -96q-36 -228 -204 -228h-24q-184 19 -184 172q0 131 160 296q21 12 48 12z" />
    <glyph glyph-name="Cacute" unicode="&#x106;" horiz-adv-x="1173" 
d="M600 1424h40q231 0 428 -244q7 -18 7 -35v-4q0 -21 -10 -43q-21 -38 -86 -39q-45 7 -115 85q-121 100 -232 100h-36q-147 0 -288 -176q-128 -185 -128 -444v-20q0 -300 176 -396q74 -28 172 -28h48q171 0 332 128q16 8 44 8q56 0 80 -84v-4q0 -111 -300 -208
q-79 -20 -156 -20h-44q-364 0 -480 304q-52 140 -52 292v36q0 461 336 708q143 84 264 84zM667 1790q67 0 84 -88q0 -56 -127 -164q-54 -60 -109 -60q-71 0 -84 92q0 51 134 163q49 57 102 57z" />
    <glyph glyph-name="cacute" unicode="&#x107;" horiz-adv-x="854" 
d="M376 836h36q157 0 292 -72q32 -30 32 -72q-3 -82 -82 -84q-108 38 -230 48h-52q-134 0 -180 -144q-12 -49 -12 -108v-60q0 -109 84 -148q29 -16 64 -16h64q66 0 228 48l14 3q58 -5 78 -95q0 -107 -312 -136h-60q-250 0 -328 252q-12 49 -12 108v32q0 317 240 420
q73 24 136 24zM497 1202q67 0 84 -88q0 -56 -127 -164q-54 -60 -109 -60q-71 0 -84 92q0 51 134 163q49 57 102 57z" />
    <glyph glyph-name="Ccircumflex" unicode="&#x108;" horiz-adv-x="1173" 
d="M600 1424h40q231 0 428 -244q7 -18 7 -35v-4q0 -21 -10 -43q-21 -38 -86 -39q-45 7 -115 85q-121 100 -232 100h-36q-147 0 -288 -176q-128 -185 -128 -444v-20q0 -300 176 -396q74 -28 172 -28h48q171 0 332 128q16 8 44 8q56 0 80 -84v-4q0 -111 -300 -208
q-79 -20 -156 -20h-44q-364 0 -480 304q-52 140 -52 292v36q0 461 336 708q143 84 264 84zM644 1790q80 0 220 -192q3 -14 3 -28q0 -26 -10 -50q-15 -35 -81 -42q-44 0 -132 108h-4q-101 -100 -140 -100q-92 8 -92 92q0 66 176 192q27 19 60 20z" />
    <glyph glyph-name="ccircumflex" unicode="&#x109;" horiz-adv-x="854" 
d="M376 836h36q157 0 292 -72q32 -30 32 -72q-3 -82 -82 -84q-108 38 -230 48h-52q-134 0 -180 -144q-12 -49 -12 -108v-60q0 -109 84 -148q29 -16 64 -16h64q66 0 228 48l14 3q58 -5 78 -95q0 -107 -312 -136h-60q-250 0 -328 252q-12 49 -12 108v32q0 317 240 420
q73 24 136 24zM375 1202q80 0 220 -192q3 -14 3 -28q0 -26 -10 -50q-15 -35 -81 -42q-44 0 -132 108h-4q-101 -100 -140 -100q-92 8 -92 92q0 66 176 192q27 19 60 20z" />
    <glyph glyph-name="Cdotaccent" unicode="&#x10a;" horiz-adv-x="1173" 
d="M600 1424h40q231 0 428 -244q7 -18 7 -35v-4q0 -21 -10 -43q-21 -38 -86 -39q-45 7 -115 85q-121 100 -232 100h-36q-147 0 -288 -176q-128 -185 -128 -444v-20q0 -300 176 -396q74 -28 172 -28h48q171 0 332 128q16 8 44 8q56 0 80 -84v-4q0 -111 -300 -208
q-79 -20 -156 -20h-44q-364 0 -480 304q-52 140 -52 292v36q0 461 336 708q143 84 264 84zM638 1712q102 -5 104 -104q-2 -92 -108 -100q-91 2 -100 108q1 86 104 96z" />
    <glyph glyph-name="cdotaccent" unicode="&#x10b;" horiz-adv-x="854" 
d="M376 836h36q157 0 292 -72q32 -30 32 -72q-3 -82 -82 -84q-108 38 -230 48h-52q-134 0 -180 -144q-12 -49 -12 -108v-60q0 -109 84 -148q29 -16 64 -16h64q66 0 228 48l14 3q58 -5 78 -95q0 -107 -312 -136h-60q-250 0 -328 252q-12 49 -12 108v32q0 317 240 420
q73 24 136 24zM368 1124q102 -5 104 -104q-2 -92 -108 -100q-91 2 -100 108q1 86 104 96z" />
    <glyph glyph-name="Ccaron" unicode="&#x10c;" horiz-adv-x="1173" 
d="M600 1424h40q231 0 428 -244q7 -18 7 -35v-4q0 -21 -10 -43q-21 -38 -86 -39q-45 7 -115 85q-121 100 -232 100h-36q-147 0 -288 -176q-128 -185 -128 -444v-20q0 -300 176 -396q74 -28 172 -28h48q171 0 332 128q16 8 44 8q56 0 80 -84v-4q0 -111 -300 -208
q-79 -20 -156 -20h-44q-364 0 -480 304q-52 140 -52 292v36q0 461 336 708q143 84 264 84zM632 1478q-80 0 -213 181q-9 22 -11 43q0 69 92 88q44 0 132 -108h4q101 100 140 100q92 -8 92 -92q0 -66 -170 -190q-26 -20 -66 -22z" />
    <glyph glyph-name="ccaron" unicode="&#x10d;" horiz-adv-x="854" 
d="M376 836h36q157 0 292 -72q32 -30 32 -72q-3 -82 -82 -84q-108 38 -230 48h-52q-134 0 -180 -144q-12 -49 -12 -108v-60q0 -109 84 -148q29 -16 64 -16h64q66 0 228 48l14 3q58 -5 78 -95q0 -107 -312 -136h-60q-250 0 -328 252q-12 49 -12 108v32q0 317 240 420
q73 24 136 24zM362 890q-80 0 -213 181q-9 22 -11 43q0 69 92 88q44 0 132 -108h4q101 100 140 100q92 -8 92 -92q0 -66 -170 -190q-26 -20 -66 -22z" />
    <glyph glyph-name="Dcaron" unicode="&#x10e;" horiz-adv-x="1141" 
d="M180 1424h48q270 0 552 -208q248 -223 248 -520v-40q0 -462 -440 -620q-129 -36 -248 -36h-36q-174 0 -220 64q-84 180 -84 860v68q0 318 48 376q50 56 132 56zM192 1244q-12 -79 -12 -168v-320q0 -264 48 -572l92 -8q378 0 500 292q32 100 32 204q0 413 -496 556
q-64 16 -136 16h-28zM408 1478q-80 0 -213 181q-9 22 -11 43q0 69 92 88q44 0 132 -108h4q101 100 140 100q92 -8 92 -92q0 -66 -170 -190q-26 -20 -66 -22z" />
    <glyph glyph-name="dcaron" unicode="&#x10f;" horiz-adv-x="1114" 
d="M556 1424h4q91 0 108 -192q100 -491 100 -812v-36q0 -260 -128 -324q-96 -60 -204 -60h-36q-265 0 -380 276q-20 73 -20 140v48q0 270 276 368q89 20 152 20h24q34 0 100 -4q-24 181 -84 488q2 77 88 88zM180 460v-48q0 -166 156 -224q38 -8 60 -8h44q148 0 150 138
q1 52 2 98q-8 244 -24 244q-47 12 -108 12h-36q-244 0 -244 -212zM912 1398h8q94 0 108 -112v-16q-37 -280 -132 -280q-96 12 -96 92q0 12 32 116v8q-32 42 -32 88q0 87 112 104z" />
    <glyph glyph-name="Dcroat" unicode="&#x110;" horiz-adv-x="1308" 
d="M356 619q9 -205 45 -435l92 -8q378 0 500 292q32 100 32 204q0 413 -496 556q-64 16 -136 16h-28q-12 -79 -12 -168v-281h228q96 -7 96 -92q0 -73 -96 -84h-225zM174 795q-1 62 -1 129v68q0 318 48 376q50 56 132 56h48q270 0 552 -208q248 -223 248 -520v-40
q0 -462 -440 -620q-129 -36 -248 -36h-36q-174 0 -220 64q-63 136 -79 555h-81q-96 8 -96 92q0 73 96 84h77z" />
    <glyph glyph-name="dcroat" unicode="&#x111;" horiz-adv-x="999" 
d="M180 460v-48q0 -166 156 -224q38 -8 60 -8h44q148 0 150 138q1 52 2 98q-8 244 -24 244q-47 12 -108 12h-36q-244 0 -244 -212zM493 1206q-12 62 -25 130q2 77 88 88h4q91 0 108 -192q3 -13 5 -26h150q81 -7 81 -92q0 -73 -81 -84h-117q62 -358 62 -610v-36
q0 -260 -128 -324q-96 -60 -204 -60h-36q-265 0 -380 276q-20 73 -20 140v48q0 270 276 368q89 20 152 20h24q34 0 100 -4q-10 79 -28 182h-157q-81 8 -81 92q0 73 81 84h126z" />
    <glyph glyph-name="Emacron" unicode="&#x112;" horiz-adv-x="1071" 
d="M396 1424h28q294 0 504 -48q44 -25 44 -83v-5q-12 -73 -84 -80q-253 36 -472 36h-20q-160 0 -160 -48q-40 -140 -56 -416q54 0 412 16q88 -19 88 -88v-4q0 -88 -124 -88q-28 -4 -376 -16v-108q0 -212 48 -312q27 -4 60 -4q172 0 576 64q80 -5 88 -88v-4q0 -86 -144 -100
q-325 -48 -524 -48h-24q-152 0 -196 96q-64 148 -64 468v60q0 586 124 732q67 68 272 68zM718 1726q65 0 80 -92q0 -88 -152 -88q-90 -4 -392 -8q-65 0 -80 92q0 88 152 88q312 8 392 8z" />
    <glyph glyph-name="emacron" unicode="&#x113;" horiz-adv-x="891" 
d="M332 840h40q288 0 400 -268q16 -49 16 -84v-28q0 -128 -224 -128l-356 4v-8q26 -78 104 -120q50 -28 152 -28h24q85 0 168 32h8q88 -15 88 -88q0 -87 -156 -116q-52 -8 -112 -8q-342 0 -448 268q-36 99 -36 188q0 267 236 368q45 16 96 16zM188 516q139 -4 200 -4h209
l-1 12q0 56 -120 120q-50 16 -104 16h-52q-88 0 -130 -126zM626 1148q65 0 80 -92q0 -88 -152 -88q-90 -4 -392 -8q-65 0 -80 92q0 88 152 88q312 8 392 8z" />
    <glyph glyph-name="Ebreve" unicode="&#x114;" horiz-adv-x="1071" 
d="M396 1424h28q294 0 504 -48q44 -25 44 -83v-5q-12 -73 -84 -80q-253 36 -472 36h-20q-160 0 -160 -48q-40 -140 -56 -416q54 0 412 16q88 -19 88 -88v-4q0 -88 -124 -88q-28 -4 -376 -16v-108q0 -212 48 -312q27 -4 60 -4q172 0 576 64q80 -5 88 -88v-4q0 -86 -144 -100
q-325 -48 -524 -48h-24q-152 0 -196 96q-64 148 -64 468v60q0 586 124 732q67 68 272 68zM692 1790q71 0 84 -92q0 -71 -128 -172q-76 -48 -144 -48h-32q-180 0 -272 184q-4 16 -4 28q0 78 96 88q41 0 100 -88q38 -32 68 -32h40q59 0 132 112q25 20 60 20z" />
    <glyph glyph-name="ebreve" unicode="&#x115;" horiz-adv-x="891" 
d="M332 840h40q288 0 400 -268q16 -49 16 -84v-28q0 -128 -224 -128l-356 4v-8q26 -78 104 -120q50 -28 152 -28h24q85 0 168 32h8q88 -15 88 -88q0 -87 -156 -116q-52 -8 -112 -8q-342 0 -448 268q-36 99 -36 188q0 267 236 368q45 16 96 16zM188 516q139 -4 200 -4h209
l-1 12q0 56 -120 120q-50 16 -104 16h-52q-88 0 -130 -126zM600 1202q71 0 84 -92q0 -71 -128 -172q-76 -48 -144 -48h-32q-180 0 -272 184q-4 16 -4 28q0 78 96 88q41 0 100 -88q38 -32 68 -32h40q59 0 132 112q25 20 60 20z" />
    <glyph glyph-name="Edotaccent" unicode="&#x116;" horiz-adv-x="1071" 
d="M396 1424h28q294 0 504 -48q44 -25 44 -83v-5q-12 -73 -84 -80q-253 36 -472 36h-20q-160 0 -160 -48q-40 -140 -56 -416q54 0 412 16q88 -19 88 -88v-4q0 -88 -124 -88q-28 -4 -376 -16v-108q0 -212 48 -312q27 -4 60 -4q172 0 576 64q80 -5 88 -88v-4q0 -86 -144 -100
q-325 -48 -524 -48h-24q-152 0 -196 96q-64 148 -64 468v60q0 586 124 732q67 68 272 68zM486 1712q102 -5 104 -104q-2 -92 -108 -100q-91 2 -100 108q1 86 104 96z" />
    <glyph glyph-name="edotaccent" unicode="&#x117;" horiz-adv-x="891" 
d="M332 840h40q288 0 400 -268q16 -49 16 -84v-28q0 -128 -224 -128l-356 4v-8q26 -78 104 -120q50 -28 152 -28h24q85 0 168 32h8q88 -15 88 -88q0 -87 -156 -116q-52 -8 -112 -8q-342 0 -448 268q-36 99 -36 188q0 267 236 368q45 16 96 16zM188 516q139 -4 200 -4h209
l-1 12q0 56 -120 120q-50 16 -104 16h-52q-88 0 -130 -126zM394 1124q102 -5 104 -104q-2 -92 -108 -100q-91 2 -100 108q1 86 104 96z" />
    <glyph glyph-name="Eogonek" unicode="&#x118;" horiz-adv-x="1071" 
d="M396 1424h28q294 0 504 -48q44 -25 44 -83v-5q-12 -73 -84 -80q-253 36 -472 36h-20q-160 0 -160 -48q-40 -140 -56 -416q54 0 412 16q88 -19 88 -88v-4q0 -88 -124 -88q-28 -4 -376 -16v-108q0 -212 48 -312q27 -4 60 -4q172 0 576 64q80 -5 88 -88v-4q0 -86 -144 -100
q-325 -48 -524 -48h-24q-152 0 -196 96q-64 148 -64 468v60q0 586 124 732q67 68 272 68zM768 130q67 0 84 -80v-16q0 -28 -96 -160q-12 -31 -12 -44q4 -10 7.5 -10.5t4.5 -0.5q5 0 11 4q25 12 47 108q17 39 78 43q76 -13 80 -96q-36 -228 -204 -228h-24q-184 19 -184 172
q0 131 160 296q21 12 48 12z" />
    <glyph glyph-name="eogonek" unicode="&#x119;" horiz-adv-x="891" 
d="M332 840h40q288 0 400 -268q16 -49 16 -84v-28q0 -128 -224 -128l-356 4v-8q26 -78 104 -120q50 -28 152 -28h24q85 0 168 32h8q88 -15 88 -88q0 -87 -156 -116q-52 -8 -112 -8q-342 0 -448 268q-36 99 -36 188q0 267 236 368q45 16 96 16zM188 516q139 -4 200 -4h209
l-1 12q0 56 -120 120q-50 16 -104 16h-52q-88 0 -130 -126zM602 130q67 0 84 -80v-16q0 -28 -96 -160q-12 -31 -12 -44q4 -10 7.5 -10.5t4.5 -0.5q5 0 11 4q25 12 47 108q17 39 78 43q76 -13 80 -96q-36 -228 -204 -228h-24q-184 19 -184 172q0 131 160 296q21 12 48 12z
" />
    <glyph glyph-name="Ecaron" unicode="&#x11a;" horiz-adv-x="1071" 
d="M396 1424h28q294 0 504 -48q44 -25 44 -83v-5q-12 -73 -84 -80q-253 36 -472 36h-20q-160 0 -160 -48q-40 -140 -56 -416q54 0 412 16q88 -19 88 -88v-4q0 -88 -124 -88q-28 -4 -376 -16v-108q0 -212 48 -312q27 -4 60 -4q172 0 576 64q80 -5 88 -88v-4q0 -86 -144 -100
q-325 -48 -524 -48h-24q-152 0 -196 96q-64 148 -64 468v60q0 586 124 732q67 68 272 68zM480 1478q-80 0 -213 181q-9 22 -11 43q0 69 92 88q44 0 132 -108h4q101 100 140 100q92 -8 92 -92q0 -66 -170 -190q-26 -20 -66 -22z" />
    <glyph glyph-name="ecaron" unicode="&#x11b;" horiz-adv-x="891" 
d="M332 840h40q288 0 400 -268q16 -49 16 -84v-28q0 -128 -224 -128l-356 4v-8q26 -78 104 -120q50 -28 152 -28h24q85 0 168 32h8q88 -15 88 -88q0 -87 -156 -116q-52 -8 -112 -8q-342 0 -448 268q-36 99 -36 188q0 267 236 368q45 16 96 16zM188 516q139 -4 200 -4h209
l-1 12q0 56 -120 120q-50 16 -104 16h-52q-88 0 -130 -126zM388 890q-80 0 -213 181q-9 22 -11 43q0 69 92 88q44 0 132 -108h4q101 100 140 100q92 -8 92 -92q0 -66 -170 -190q-26 -20 -66 -22z" />
    <glyph glyph-name="Gcircumflex" unicode="&#x11c;" horiz-adv-x="1137" 
d="M648 1424h52q108 -9 108 -96q0 -73 -96 -84h-60q-331 0 -436 -384q-36 -121 -36 -264v-32q0 -318 200 -372q50 -12 116 -12h40q227 0 308 176q16 36 16 76v44q0 164 -148 164h-12q-60 0 -164 -28q-77 2 -88 92q0 91 168 108q43 8 92 8q232 0 316 -220q16 -73 16 -132v-36
q0 -268 -308 -400q-105 -32 -196 -32h-36q-375 0 -472 340q-28 112 -28 212v60q0 371 228 644q190 168 420 168zM527 1790q80 0 220 -192q3 -14 3 -28q0 -26 -10 -50q-15 -35 -81 -42q-44 0 -132 108h-4q-101 -100 -140 -100q-92 8 -92 92q0 66 176 192q27 19 60 20z" />
    <glyph glyph-name="gcircumflex" unicode="&#x11d;" horiz-adv-x="899" 
d="M396 838q185 0 340 -88q51 -29 64 -368q0 -408 -112 -616q-92 -156 -296 -156h-16q-208 0 -338 136q-15 25 -18 56q0 69 88 80q29 0 132 -64q71 -28 116 -28h64q99 0 140 124q20 52 20 72h-4l-108 -8q-249 0 -384 148q-84 103 -84 252q0 335 260 440q64 20 136 20z
M180 390v-28q0 -204 288 -204q140 4 140 24q4 35 4 60v108q0 276 -28 276q-98 32 -164 32h-48q-126 0 -176 -152q-16 -65 -16 -116zM407 1202q80 0 220 -192q3 -14 3 -28q0 -26 -10 -50q-15 -35 -81 -42q-44 0 -132 108h-4q-101 -100 -140 -100q-92 8 -92 92q0 66 176 192
q27 19 60 20z" />
    <glyph glyph-name="Gbreve" unicode="&#x11e;" horiz-adv-x="1137" 
d="M648 1424h52q108 -9 108 -96q0 -73 -96 -84h-60q-331 0 -436 -384q-36 -121 -36 -264v-32q0 -318 200 -372q50 -12 116 -12h40q227 0 308 176q16 36 16 76v44q0 164 -148 164h-12q-60 0 -164 -28q-77 2 -88 92q0 91 168 108q43 8 92 8q232 0 316 -220q16 -73 16 -132v-36
q0 -268 -308 -400q-105 -32 -196 -32h-36q-375 0 -472 340q-28 112 -28 212v60q0 371 228 644q190 168 420 168zM726 1790q71 0 84 -92q0 -71 -128 -172q-76 -48 -144 -48h-32q-180 0 -272 184q-4 16 -4 28q0 78 96 88q41 0 100 -88q38 -32 68 -32h40q59 0 132 112
q25 20 60 20z" />
    <glyph glyph-name="gbreve" unicode="&#x11f;" horiz-adv-x="899" 
d="M396 838q185 0 340 -88q51 -29 64 -368q0 -408 -112 -616q-92 -156 -296 -156h-16q-208 0 -338 136q-15 25 -18 56q0 69 88 80q29 0 132 -64q71 -28 116 -28h64q99 0 140 124q20 52 20 72h-4l-108 -8q-249 0 -384 148q-84 103 -84 252q0 335 260 440q64 20 136 20z
M180 390v-28q0 -204 288 -204q140 4 140 24q4 35 4 60v108q0 276 -28 276q-98 32 -164 32h-48q-126 0 -176 -152q-16 -65 -16 -116zM606 1202q71 0 84 -92q0 -71 -128 -172q-76 -48 -144 -48h-32q-180 0 -272 184q-4 16 -4 28q0 78 96 88q41 0 100 -88q38 -32 68 -32h40
q59 0 132 112q25 20 60 20z" />
    <glyph glyph-name="Gdotaccent" unicode="&#x120;" horiz-adv-x="1137" 
d="M648 1424h52q108 -9 108 -96q0 -73 -96 -84h-60q-331 0 -436 -384q-36 -121 -36 -264v-32q0 -318 200 -372q50 -12 116 -12h40q227 0 308 176q16 36 16 76v44q0 164 -148 164h-12q-60 0 -164 -28q-77 2 -88 92q0 91 168 108q43 8 92 8q232 0 316 -220q16 -73 16 -132v-36
q0 -268 -308 -400q-105 -32 -196 -32h-36q-375 0 -472 340q-28 112 -28 212v60q0 371 228 644q190 168 420 168zM520 1712q102 -5 104 -104q-2 -92 -108 -100q-91 2 -100 108q1 86 104 96z" />
    <glyph glyph-name="gdotaccent" unicode="&#x121;" horiz-adv-x="899" 
d="M396 838q185 0 340 -88q51 -29 64 -368q0 -408 -112 -616q-92 -156 -296 -156h-16q-208 0 -338 136q-15 25 -18 56q0 69 88 80q29 0 132 -64q71 -28 116 -28h64q99 0 140 124q20 52 20 72h-4l-108 -8q-249 0 -384 148q-84 103 -84 252q0 335 260 440q64 20 136 20z
M180 390v-28q0 -204 288 -204q140 4 140 24q4 35 4 60v108q0 276 -28 276q-98 32 -164 32h-48q-126 0 -176 -152q-16 -65 -16 -116zM400 1124q102 -5 104 -104q-2 -92 -108 -100q-91 2 -100 108q1 86 104 96z" />
    <glyph glyph-name="uni0122" unicode="&#x122;" horiz-adv-x="1136" 
d="M648 1424h52q108 -9 108 -96q0 -73 -96 -84h-60q-331 0 -436 -384q-36 -121 -36 -264v-32q0 -318 200 -372q50 -12 116 -12h40q227 0 308 176q16 36 16 76v44q0 164 -148 164h-12q-60 0 -164 -28q-77 2 -88 92q0 91 168 108q43 8 92 8q232 0 316 -220q16 -73 16 -132v-36
q0 -268 -308 -400q-105 -32 -196 -32h-36q-375 0 -472 340q-28 112 -28 212v60q0 371 228 644q190 168 420 168zM512 -42h8q94 0 108 -112v-16q-37 -280 -132 -280q-96 12 -96 92q0 12 32 116v8q-32 42 -32 88q0 87 112 104z" />
    <glyph glyph-name="uni0123" unicode="&#x123;" horiz-adv-x="901" 
d="M396 838q185 0 340 -88q51 -29 64 -368q0 -408 -112 -616q-92 -156 -296 -156h-16q-208 0 -338 136q-15 25 -18 56q0 69 88 80q29 0 132 -64q71 -28 116 -28h64q99 0 140 124q20 52 20 72h-4l-108 -8q-249 0 -384 148q-84 103 -84 252q0 335 260 440q64 20 136 20z
M180 390v-28q0 -204 288 -204q140 4 140 24q4 35 4 60v108q0 276 -28 276q-98 32 -164 32h-48q-126 0 -176 -152q-16 -65 -16 -116zM416 960h-8q-94 0 -108 112v16q37 280 132 280q96 -11 96 -92q0 -12 -32 -116v-8q32 -42 32 -88q0 -87 -112 -104z" />
    <glyph glyph-name="Hcircumflex" unicode="&#x124;" horiz-adv-x="1062" 
d="M120 1424q84 -22 84 -80q-8 -222 -12 -516h4q77 0 572 8v492q17 88 84 88h12q80 -16 80 -80v-1232q-10 -100 -88 -104q-92 0 -92 136v192q0 120 4 328h-4q-52 0 -572 -8h-4q-4 -84 -4 -124v-64q0 -19 -4 -320q0 -99 -88 -116h-12q-76 14 -80 80v4q15 1252 34 1268
q22 45 86 48zM479 1790q80 0 220 -192q3 -14 3 -28q0 -26 -10 -50q-15 -35 -81 -42q-44 0 -132 108h-4q-101 -100 -140 -100q-92 8 -92 92q0 66 176 192q27 19 60 20z" />
    <glyph glyph-name="hcircumflex" unicode="&#x125;" horiz-adv-x="828" 
d="M96 1424q73 -4 80 -84q8 -127 18 -513q101 69 174 69h60q190 0 272 -256q24 -81 24 -208v-20q-6 -263 -32 -336q-31 -72 -86 -72h-2q-88 19 -88 84v16q32 203 32 316q0 300 -148 300q-139 0 -180 -284q-8 -60 -8 -100v-76q0 -73 4 -184q-25 -76 -88 -76h-4q-83 0 -92 128
q0 105 -32 1216q0 67 96 80zM76 1795q80 0 220 -192q3 -14 3 -28q0 -26 -10 -50q-15 -35 -81 -42q-44 0 -132 108h-4q-101 -100 -140 -100q-92 8 -92 92q0 66 176 192q27 19 60 20z" />
    <glyph glyph-name="Hbar" unicode="&#x126;" 
d="M244 980q-1 -73 -2 -152h4q77 0 572 8v144h-574zM64 988q-58 20 -58 84q0 58 63 77q7 220 15 227q22 45 86 48q84 -22 84 -80q-3 -88 -6 -188h570v172q17 88 84 88h12q80 -16 80 -80v-189q56 -20 56 -83q0 -54 -56 -74v-886q-10 -100 -88 -104q-92 0 -92 136v192
q0 120 4 328h-4q-52 0 -572 -8h-4q-4 -84 -4 -124v-64q0 -19 -4 -320q0 -99 -88 -116h-12q-76 14 -80 80v4q7 567 14 880z" />
    <glyph glyph-name="hbar" unicode="&#x127;" horiz-adv-x="917" 
d="M110 979h-29q-75 9 -75 93q0 73 77 86h22q-2 89 -5 186q0 67 96 80q73 -4 80 -84q4 -61 8 -183h111q77 -8 77 -93q0 -73 -81 -84h-101q2 -71 4 -153q101 69 174 69h60q190 0 272 -256q24 -81 24 -208v-20q-6 -263 -32 -336q-31 -72 -86 -72h-2q-88 19 -88 84v16
q32 203 32 316q0 300 -148 300q-139 0 -180 -284q-8 -60 -8 -100v-76q0 -73 4 -184q-25 -76 -88 -76h-4q-83 0 -92 128q0 86 -22 851z" />
    <glyph glyph-name="Itilde" unicode="&#x128;" horiz-adv-x="282" 
d="M96 1420q75 -4 84 -92q-4 -1120 -4 -1240q-3 -83 -92 -88q-74 3 -84 88q4 1062 4 1244q0 81 92 88zM-36 1820h24q85 0 196 -128l6 -5q36 93 46 105q23 25 64 28q77 0 88 -96q-42 -216 -188 -216h-20q-82 0 -192 128l-7 6q-6 -2 -21 -86q-21 -45 -84 -48q-73 0 -84 96v24
q0 135 136 188q22 4 36 4z" />
    <glyph glyph-name="itilde" unicode="&#x129;" horiz-adv-x="614" 
d="M212 836q88 -22 88 -88q-8 -38 -76 -228q-44 -140 -44 -240v-44q0 -56 72 -56h60q34 0 96 56q19 12 44 12q76 0 88 -92q0 -73 -140 -140q-57 -16 -88 -16h-36q-226 0 -272 188q-4 40 -4 60v40q0 186 136 508q26 40 76 40zM144 1202h24q85 0 196 -128l6 -5q36 93 46 105
q23 25 64 28q77 0 88 -96q-42 -216 -188 -216h-20q-82 0 -192 128l-7 6q-6 -2 -21 -86q-21 -45 -84 -48q-73 0 -84 96v24q0 135 136 188q22 4 36 4z" />
    <glyph glyph-name="Imacron" unicode="&#x12a;" horiz-adv-x="282" 
d="M96 1420q75 -4 84 -92q-4 -1120 -4 -1240q-3 -83 -92 -88q-74 3 -84 88q4 1062 4 1244q0 81 92 88zM322 1736q65 0 80 -92q0 -88 -152 -88q-90 -4 -392 -8q-65 0 -80 92q0 88 152 88q312 8 392 8z" />
    <glyph glyph-name="imacron" unicode="&#x12b;" horiz-adv-x="614" 
d="M212 836q88 -22 88 -88q-8 -38 -76 -228q-44 -140 -44 -240v-44q0 -56 72 -56h60q34 0 96 56q19 12 44 12q76 0 88 -92q0 -73 -140 -140q-57 -16 -88 -16h-36q-226 0 -272 188q-4 40 -4 60v40q0 186 136 508q26 40 76 40zM502 1148q65 0 80 -92q0 -88 -152 -88
q-90 -4 -392 -8q-65 0 -80 92q0 88 152 88q312 8 392 8z" />
    <glyph glyph-name="Ibreve" unicode="&#x12c;" horiz-adv-x="282" 
d="M96 1420q75 -4 84 -92q-4 -1120 -4 -1240q-3 -83 -92 -88q-74 3 -84 88q4 1062 4 1244q0 81 92 88zM296 1800q71 0 84 -92q0 -71 -128 -172q-76 -48 -144 -48h-32q-180 0 -272 184q-4 16 -4 28q0 78 96 88q41 0 100 -88q38 -32 68 -32h40q59 0 132 112q25 20 60 20z" />
    <glyph glyph-name="ibreve" unicode="&#x12d;" horiz-adv-x="614" 
d="M212 836q88 -22 88 -88q-8 -38 -76 -228q-44 -140 -44 -240v-44q0 -56 72 -56h60q34 0 96 56q19 12 44 12q76 0 88 -92q0 -73 -140 -140q-57 -16 -88 -16h-36q-226 0 -272 188q-4 40 -4 60v40q0 186 136 508q26 40 76 40zM476 1212q71 0 84 -92q0 -71 -128 -172
q-76 -48 -144 -48h-32q-180 0 -272 184q-4 16 -4 28q0 78 96 88q41 0 100 -88q38 -32 68 -32h40q59 0 132 112q25 20 60 20z" />
    <glyph glyph-name="Iogonek" unicode="&#x12e;" horiz-adv-x="282" 
d="M96 1420q75 -4 84 -92q-4 -1120 -4 -1240q-3 -83 -92 -88q-74 3 -84 88q4 1062 4 1244q0 81 92 88zM76 130q67 0 84 -80v-16q0 -28 -96 -160q-12 -31 -12 -44q4 -10 7.5 -10.5t4.5 -0.5q5 0 11 4q25 12 47 108q17 39 78 43q76 -13 80 -96q-36 -228 -204 -228h-24
q-184 19 -184 172q0 131 160 296q21 12 48 12z" />
    <glyph glyph-name="iogonek" unicode="&#x12f;" horiz-adv-x="620" 
d="M272 1084q96 -11 100 -100q-14 -107 -104 -108q-88 2 -104 108v4q1 87 108 96zM212 836q88 -22 88 -88q-8 -38 -76 -228q-44 -140 -44 -240v-44q0 -56 72 -56h60q34 0 96 56q19 12 44 12q76 0 88 -92q0 -73 -140 -140q-57 -16 -88 -16h-36q-226 0 -272 188q-4 40 -4 60
v40q0 186 136 508q26 40 76 40zM336 130q67 0 84 -80v-16q0 -28 -96 -160q-12 -31 -12 -44q4 -10 7.5 -10.5t4.5 -0.5q5 0 11 4q25 12 47 108q17 39 78 43q76 -13 80 -96q-36 -228 -204 -228h-24q-184 19 -184 172q0 131 160 296q21 12 48 12z" />
    <glyph glyph-name="Idotaccent" unicode="&#x130;" horiz-adv-x="282" 
d="M96 1420q75 -4 84 -92q-4 -1120 -4 -1240q-3 -83 -92 -88q-74 3 -84 88q4 1062 4 1244q0 81 92 88zM90 1722q102 -5 104 -104q-2 -92 -108 -100q-91 2 -100 108q1 86 104 96z" />
    <glyph glyph-name="dotlessi" unicode="&#x131;" horiz-adv-x="614" 
d="M212 836q88 -22 88 -88q-8 -38 -76 -228q-44 -140 -44 -240v-44q0 -56 72 -56h60q34 0 96 56q19 12 44 12q76 0 88 -92q0 -73 -140 -140q-57 -16 -88 -16h-36q-226 0 -272 188q-4 40 -4 60v40q0 186 136 508q26 40 76 40z" />
    <glyph glyph-name="IJ" unicode="&#x132;" horiz-adv-x="1223" 
d="M96 1420q75 -4 84 -92q-4 -1120 -4 -1240q-3 -83 -92 -88q-74 3 -84 88q4 1062 4 1244q0 81 92 88zM958 1424q81 -2 104 -180q56 -268 56 -560v-24q0 -480 -252 -620q-76 -40 -164 -40h-48q-258 0 -352 212q-20 45 -20 104v12q9 96 88 96q70 0 96 -144q34 -68 92 -91
q47 -9 96 -9h56q183 0 224 356l8 152q0 253 -76 640v12q0 71 92 84z" />
    <glyph glyph-name="ij" unicode="&#x133;" horiz-adv-x="1010" 
d="M272 1084q96 -11 100 -100q-14 -107 -104 -108q-88 2 -104 108v4q1 87 108 96zM212 836q88 -22 88 -88q-8 -38 -76 -228q-44 -140 -44 -240v-44q0 -56 72 -56h60q34 0 96 56q19 12 44 12q76 0 88 -92q0 -73 -140 -140q-57 -16 -88 -16h-36q-226 0 -272 188q-4 40 -4 60
v40q0 186 136 508q26 40 76 40zM634 1102q104 -8 104 -100q-4 -99 -104 -108q-93 0 -104 112q0 78 104 96zM722 834q87 0 108 -180q76 -331 76 -580q0 -281 -140 -368q-93 -56 -164 -56h-32q-127 0 -228 128q-12 22 -12 44q20 84 80 84h16q30 0 112 -68q26 -8 36 -8h28
q83 0 116 120q8 75 8 128q0 230 -96 672q0 69 92 84z" />
    <glyph glyph-name="Jcircumflex" unicode="&#x134;" horiz-adv-x="941" 
d="M676 1424q81 -2 104 -180q56 -268 56 -560v-24q0 -480 -252 -620q-76 -40 -164 -40h-48q-258 0 -352 212q-20 45 -20 104v12q9 96 88 96q70 0 96 -144q34 -68 92 -91q47 -9 96 -9h56q183 0 224 356l8 152q0 253 -76 640v12q0 71 92 84zM625 1790q80 0 220 -192
q3 -14 3 -28q0 -26 -10 -50q-15 -35 -81 -42q-44 0 -132 108h-4q-101 -100 -140 -100q-92 8 -92 92q0 66 176 192q27 19 60 20z" />
    <glyph glyph-name="jcircumflex" unicode="&#x135;" horiz-adv-x="819" 
d="M392 834q87 0 108 -180q76 -331 76 -580q0 -281 -140 -368q-93 -56 -164 -56h-32q-127 0 -228 128q-12 22 -12 44q20 84 80 84h16q30 0 112 -68q26 -8 36 -8h28q83 0 116 120q8 75 8 128q0 230 -96 672q0 69 92 84zM353 1206q80 0 220 -192q3 -14 3 -28q0 -26 -10 -50
q-15 -35 -81 -42q-44 0 -132 108h-4q-101 -100 -140 -100q-92 8 -92 92q0 66 176 192q27 19 60 20z" />
    <glyph glyph-name="uni0136" unicode="&#x136;" horiz-adv-x="1034" 
d="M104 1420q67 -3 80 -84v-4q-4 -281 -4 -476q17 0 288 196l272 180q19 8 42 8q50 -4 74 -88v-4q0 -62 -116 -128q-325 -221 -444 -312q342 -310 644 -568q16 -20 16 -51v-5q-9 -83 -92 -84q-50 0 -264 200l-348 308l-72 60v-452q0 -111 -96 -116q-84 12 -84 84
q4 849 4 1244q1 85 100 92zM392 -2h8q94 0 108 -112v-16q-37 -280 -132 -280q-96 12 -96 92q0 12 32 116v8q-32 42 -32 88q0 87 112 104z" />
    <glyph glyph-name="uni0137" unicode="&#x137;" horiz-adv-x="767" 
d="M116 1420q84 -20 84 -80q0 -34 -8 -624q9 0 144 80q202 96 232 96h12q71 0 84 -92q0 -73 -160 -120q-211 -102 -268 -168v-8q40 -106 340 -324q64 -32 64 -92q0 -72 -96 -84q-60 0 -336 248q-13 12 -28 20v-152q0 -120 -96 -120q-84 20 -84 80q16 1279 31 1295
q24 44 85 45zM312 -12h8q94 0 108 -112v-16q-37 -280 -132 -280q-96 12 -96 92q0 12 32 116v8q-32 42 -32 88q0 87 112 104z" />
    <glyph glyph-name="kgreenlandic" unicode="&#x138;" horiz-adv-x="695" 
d="M96 836h4q88 -17 88 -88v-196q264 176 300 188h12q77 0 88 -96q0 -56 -136 -132q-176 -116 -176 -124q273 -220 308 -268q4 -28 4 -32q0 -73 -92 -88q-47 0 -232 168q-6 0 -76 56h-8v-92q0 -120 -96 -120q-84 20 -84 80q4 470 8 664q25 80 88 80z" />
    <glyph glyph-name="Lacute" unicode="&#x139;" horiz-adv-x="1040" 
d="M164 1424q79 -5 84 -88q-68 -496 -68 -832v-48q0 -237 67 -259q36 -12 221 -21q211 8 380 28q85 -4 88 -88q0 -100 -181 -108q-78 -8 -291 -8h-20q-310 0 -376 104q-68 97 -68 356v48q0 385 76 860q20 56 88 56zM287 1790q67 0 84 -88q0 -56 -127 -164q-54 -60 -109 -60
q-71 0 -84 92q0 51 134 163q49 57 102 57z" />
    <glyph glyph-name="lacute" unicode="&#x13a;" horiz-adv-x="451" 
d="M104 1424q92 -19 92 -88q-16 -405 -16 -668v-172q0 -195 16 -308q45 16 64 16q76 0 88 -92q-19 -111 -140 -112h-16q-92 0 -156 100q-36 67 -36 416v40q3 805 32 832q22 32 72 36zM250 1795q67 0 84 -88q0 -56 -127 -164q-54 -60 -109 -60q-71 0 -84 92q0 51 134 163
q49 57 102 57z" />
    <glyph glyph-name="uni013B" unicode="&#x13b;" horiz-adv-x="1021" 
d="M164 1424q79 -5 84 -88q-68 -496 -68 -832v-48q0 -237 67 -259q36 -12 221 -21q211 8 380 28q85 -4 88 -88q0 -100 -181 -108q-78 -8 -291 -8h-20q-310 0 -376 104q-68 97 -68 356v48q0 385 76 860q20 56 88 56zM432 -42h8q94 0 108 -112v-16q-37 -280 -132 -280
q-96 12 -96 92q0 12 32 116v8q-32 42 -32 88q0 87 112 104z" />
    <glyph glyph-name="uni013C" unicode="&#x13c;" horiz-adv-x="441" 
d="M104 1424q92 -19 92 -88q-16 -405 -16 -668v-172q0 -195 16 -308q45 16 64 16q76 0 88 -92q-19 -111 -140 -112h-16q-92 0 -156 100q-36 67 -36 416v40q3 805 32 832q22 32 72 36zM172 -62h8q94 0 108 -112v-16q-37 -280 -132 -280q-96 12 -96 92q0 12 32 116v8
q-32 42 -32 88q0 87 112 104z" />
    <glyph glyph-name="Lcaron" unicode="&#x13d;" horiz-adv-x="1040" 
d="M164 1424q79 -5 84 -88q-68 -496 -68 -832v-48q0 -237 67 -259q36 -12 221 -21q211 8 380 28q85 -4 88 -88q0 -100 -181 -108q-78 -8 -291 -8h-20q-310 0 -376 104q-68 97 -68 356v48q0 385 76 860q20 56 88 56zM612 1398h8q94 0 108 -112v-16q-37 -280 -132 -280
q-96 12 -96 92q0 12 32 116v8q-32 42 -32 88q0 87 112 104z" />
    <glyph glyph-name="lcaron" unicode="&#x13e;" horiz-adv-x="648" 
d="M104 1424q92 -19 92 -88q-16 -405 -16 -668v-172q0 -195 16 -308q45 16 64 16q76 0 88 -92q-19 -111 -140 -112h-16q-92 0 -156 100q-36 67 -36 416v40q3 805 32 832q22 32 72 36zM412 1408h8q94 0 108 -112v-16q-37 -280 -132 -280q-96 12 -96 92q0 12 32 116v8
q-32 42 -32 88q0 87 112 104z" />
    <glyph glyph-name="Ldot" unicode="&#x13f;" horiz-adv-x="1040" 
d="M164 1424q79 -5 84 -88q-68 -496 -68 -832v-48q0 -237 67 -259q36 -12 221 -21q211 8 380 28q85 -4 88 -88q0 -100 -181 -108q-78 -8 -291 -8h-20q-310 0 -376 104q-68 97 -68 356v48q0 385 76 860q20 56 88 56zM670 914q102 -5 104 -104q-2 -92 -108 -100
q-91 2 -100 108q1 86 104 96z" />
    <glyph glyph-name="ldot" unicode="&#x140;" horiz-adv-x="659" 
d="M104 1424q92 -19 92 -88q-16 -405 -16 -668v-172q0 -195 16 -308q45 16 64 16q76 0 88 -92q-19 -111 -140 -112h-16q-92 0 -156 100q-36 67 -36 416v40q3 805 32 832q22 32 72 36zM452 814q102 -5 104 -104q-2 -92 -108 -100q-91 2 -100 108q1 86 104 96z" />
    <glyph glyph-name="Lslash" unicode="&#x141;" horiz-adv-x="1235" 
d="M413 950q262 102 287 102q76 0 88 -92q0 -76 -184 -128q-116 -46 -206 -81q-8 -133 -8 -247v-48q0 -237 67 -259q36 -12 221 -21q211 8 380 28q85 -4 88 -88q0 -100 -181 -108q-78 -8 -291 -8h-20q-310 0 -376 104q-68 97 -68 356v48q0 84 4 172q-110 -40 -126 -40
q-76 0 -88 92q0 76 184 128q21 8 42 17q19 232 60 491q20 56 88 56q79 -5 84 -88q-28 -207 -45 -386z" />
    <glyph glyph-name="lslash" unicode="&#x142;" horiz-adv-x="898" 
d="M234 879q7 488 29 509q22 32 72 36q92 -19 92 -88q-8 -212 -12 -385q261 101 286 101q76 0 88 -92q0 -76 -184 -128q-108 -43 -194 -77v-259q0 -195 16 -308q45 16 64 16q76 0 88 -92q-19 -111 -140 -112h-16q-92 0 -156 100q-36 67 -36 416v40q0 68 1 131
q-126 -47 -143 -47q-76 0 -88 92q0 76 184 128q25 10 49 19z" />
    <glyph glyph-name="Nacute" unicode="&#x143;" horiz-adv-x="1091" 
d="M828 1420q96 0 96 -164q56 -419 56 -804v-24q0 -345 -100 -404q-32 -24 -72 -24h-8q-159 0 -344 504q-204 524 -271 639l-1 -11q-4 -94 -4 -140v-40q0 -372 52 -864q0 -73 -96 -84q-79 0 -88 136q-48 444 -48 792v44q0 335 96 396q47 20 72 20q145 0 316 -480
q182 -474 296 -684l6 -11q13 76 18 243q0 261 -64 872v8q0 69 88 80zM619 1790q67 0 84 -88q0 -56 -127 -164q-54 -60 -109 -60q-71 0 -84 92q0 51 134 163q49 57 102 57z" />
    <glyph glyph-name="nacute" unicode="&#x144;" horiz-adv-x="854" 
d="M372 836h48q221 0 304 -244q16 -64 16 -128v-32q0 -194 -72 -388q-24 -42 -80 -44q-84 21 -84 76v24q60 216 60 336q0 149 -72 200q-37 20 -60 20h-72q-115 0 -164 -240q-6 -32 -8 -84q8 -111 8 -216q-21 -92 -88 -92q-100 0 -100 192q0 134 -8 448q22 76 88 76
q44 -5 44 -12q115 108 240 108zM499 1202q67 0 84 -88q0 -56 -127 -164q-54 -60 -109 -60q-71 0 -84 92q0 51 134 163q49 57 102 57z" />
    <glyph glyph-name="uni0145" unicode="&#x145;" horiz-adv-x="1068" 
d="M828 1420q96 0 96 -164q56 -419 56 -804v-24q0 -345 -100 -404q-32 -24 -72 -24h-8q-159 0 -344 504q-204 524 -271 639l-1 -11q-4 -94 -4 -140v-40q0 -372 52 -864q0 -73 -96 -84q-79 0 -88 136q-48 444 -48 792v44q0 335 96 396q47 20 72 20q145 0 316 -480
q182 -474 296 -684l6 -11q13 76 18 243q0 261 -64 872v8q0 69 88 80zM512 -2h8q94 0 108 -112v-16q-37 -280 -132 -280q-96 12 -96 92q0 12 32 116v8q-32 42 -32 88q0 87 112 104z" />
    <glyph glyph-name="uni0146" unicode="&#x146;" horiz-adv-x="819" 
d="M372 836h48q221 0 304 -244q16 -64 16 -128v-32q0 -194 -72 -388q-24 -42 -80 -44q-84 21 -84 76v24q60 216 60 336q0 149 -72 200q-37 20 -60 20h-72q-115 0 -164 -240q-6 -32 -8 -84q8 -111 8 -216q-21 -92 -88 -92q-100 0 -100 192q0 134 -8 448q22 76 88 76
q44 -5 44 -12q115 108 240 108zM312 -2h8q94 0 108 -112v-16q-37 -280 -132 -280q-96 12 -96 92q0 12 32 116v8q-32 42 -32 88q0 87 112 104z" />
    <glyph glyph-name="Ncaron" unicode="&#x147;" horiz-adv-x="1091" 
d="M828 1420q96 0 96 -164q56 -419 56 -804v-24q0 -345 -100 -404q-32 -24 -72 -24h-8q-159 0 -344 504q-204 524 -271 639l-1 -11q-4 -94 -4 -140v-40q0 -372 52 -864q0 -73 -96 -84q-79 0 -88 136q-48 444 -48 792v44q0 335 96 396q47 20 72 20q145 0 316 -480
q182 -474 296 -684l6 -11q13 76 18 243q0 261 -64 872v8q0 69 88 80zM484 1478q-80 0 -213 181q-9 22 -11 43q0 69 92 88q44 0 132 -108h4q101 100 140 100q92 -8 92 -92q0 -66 -170 -190q-26 -20 -66 -22z" />
    <glyph glyph-name="ncaron" unicode="&#x148;" horiz-adv-x="854" 
d="M372 836h48q221 0 304 -244q16 -64 16 -128v-32q0 -194 -72 -388q-24 -42 -80 -44q-84 21 -84 76v24q60 216 60 336q0 149 -72 200q-37 20 -60 20h-72q-115 0 -164 -240q-6 -32 -8 -84q8 -111 8 -216q-21 -92 -88 -92q-100 0 -100 192q0 134 -8 448q22 76 88 76
q44 -5 44 -12q115 108 240 108zM364 890q-80 0 -213 181q-9 22 -11 43q0 69 92 88q44 0 132 -108h4q101 100 140 100q92 -8 92 -92q0 -66 -170 -190q-26 -20 -66 -22z" />
    <glyph glyph-name="napostrophe" unicode="&#x149;" horiz-adv-x="1107" 
d="M622 836h48q221 0 304 -244q16 -64 16 -128v-32q0 -194 -72 -388q-24 -42 -80 -44q-84 21 -84 76v24q60 216 60 336q0 149 -72 200q-37 20 -60 20h-72q-115 0 -164 -240q-6 -32 -8 -84q8 -111 8 -216q-21 -92 -88 -92q-100 0 -100 192q0 134 -8 448q22 76 88 76
q44 -5 44 -12q115 108 240 108zM96 1132q65 0 80 -108v-268q-6 -96 -96 -96q-65 0 -80 108v268q6 96 96 96z" />
    <glyph glyph-name="Eng" unicode="&#x14a;" horiz-adv-x="1000" 
d="M380 1418h40q265 0 420 -296q68 -172 68 -500v-40q0 -505 -248 -660q-89 -52 -176 -52h-32q-120 0 -144 72l-4 24v4q17 88 88 88q20 -8 72 -8h32q100 0 184 172q52 174 52 384q-18 390 -40 419q-35 95 -128 165q-78 48 -132 48h-56q-109 0 -156 -112q-40 -145 -40 -416
v-72q0 -269 24 -536q0 -60 -88 -84q-100 0 -100 192q-16 192 -16 448v48q0 509 140 620q116 92 240 92z" />
    <glyph glyph-name="eng" unicode="&#x14b;" horiz-adv-x="840" 
d="M324 834h44q244 0 340 -208q44 -127 44 -264v-40q0 -298 -160 -372q-80 -40 -156 -40h-48q-104 9 -104 100q0 56 84 80h68q102 0 120 88q16 54 16 132v72q0 174 -80 240q-60 32 -128 32h-40q-132 0 -132 -68q-12 -45 -12 -128v-56q0 -143 20 -316q-17 -80 -80 -80h-4
q-108 0 -108 212q-8 24 -8 184v44q0 294 136 352q96 36 188 36z" />
    <glyph glyph-name="Omacron" unicode="&#x14c;" horiz-adv-x="1187" 
d="M524 1424h32q272 0 436 -344q84 -187 84 -388v-48q0 -406 -300 -592q-111 -52 -220 -52h-36q-340 0 -484 392q-36 125 -36 248v40q0 413 280 660q125 84 244 84zM180 688v-52q0 -314 224 -436q67 -20 112 -20h48q241 0 320 332q11 49 16 156q0 338 -212 532
q-74 44 -124 44h-48q-179 0 -296 -308q-40 -114 -40 -248zM770 1736q65 0 80 -92q0 -88 -152 -88q-90 -4 -392 -8q-65 0 -80 92q0 88 152 88q312 8 392 8z" />
    <glyph glyph-name="omacron" unicode="&#x14d;" horiz-adv-x="896" 
d="M396 860h40q197 0 320 -276q32 -109 32 -188q0 -296 -276 -384q-51 -12 -108 -12q-323 0 -400 288q0 7 -4 72q0 256 228 440q91 60 168 60zM180 352q0 -136 156 -168q26 -4 52 -4h40q130 0 172 144q8 41 8 72q0 193 -148 280l-24 4h-40q-94 0 -192 -192q-24 -70 -24 -136
zM626 1148q65 0 80 -92q0 -88 -152 -88q-90 -4 -392 -8q-65 0 -80 92q0 88 152 88q312 8 392 8z" />
    <glyph glyph-name="Obreve" unicode="&#x14e;" horiz-adv-x="1187" 
d="M524 1424h32q272 0 436 -344q84 -187 84 -388v-48q0 -406 -300 -592q-111 -52 -220 -52h-36q-340 0 -484 392q-36 125 -36 248v40q0 413 280 660q125 84 244 84zM180 688v-52q0 -314 224 -436q67 -20 112 -20h48q241 0 320 332q11 49 16 156q0 338 -212 532
q-74 44 -124 44h-48q-179 0 -296 -308q-40 -114 -40 -248zM744 1790q71 0 84 -92q0 -71 -128 -172q-76 -48 -144 -48h-32q-180 0 -272 184q-4 16 -4 28q0 78 96 88q41 0 100 -88q38 -32 68 -32h40q59 0 132 112q25 20 60 20z" />
    <glyph glyph-name="obreve" unicode="&#x14f;" horiz-adv-x="896" 
d="M396 860h40q197 0 320 -276q32 -109 32 -188q0 -296 -276 -384q-51 -12 -108 -12q-323 0 -400 288q0 7 -4 72q0 256 228 440q91 60 168 60zM180 352q0 -136 156 -168q26 -4 52 -4h40q130 0 172 144q8 41 8 72q0 193 -148 280l-24 4h-40q-94 0 -192 -192q-24 -70 -24 -136
zM600 1282q71 0 84 -92q0 -71 -128 -172q-76 -48 -144 -48h-32q-180 0 -272 184q-4 16 -4 28q0 78 96 88q41 0 100 -88q38 -32 68 -32h40q59 0 132 112q25 20 60 20z" />
    <glyph glyph-name="Ohungarumlaut" unicode="&#x150;" horiz-adv-x="1187" 
d="M524 1424h32q272 0 436 -344q84 -187 84 -388v-48q0 -406 -300 -592q-111 -52 -220 -52h-36q-340 0 -484 392q-36 125 -36 248v40q0 413 280 660q125 84 244 84zM180 688v-52q0 -314 224 -436q67 -20 112 -20h48q241 0 320 332q11 49 16 156q0 338 -212 532
q-74 44 -124 44h-48q-179 0 -296 -308q-40 -114 -40 -248zM456 1796q71 0 84 -92q0 -54 -184 -220q-17 -12 -40 -12h-4q-88 15 -88 88q0 47 124 164q48 72 108 72zM764 1796q69 0 88 -92q0 -46 -152 -212q-29 -44 -80 -44q-71 0 -84 92q0 52 184 244q17 10 44 12z" />
    <glyph glyph-name="ohungarumlaut" unicode="&#x151;" horiz-adv-x="896" 
d="M396 860h40q197 0 320 -276q32 -109 32 -188q0 -296 -276 -384q-51 -12 -108 -12q-323 0 -400 288q0 7 -4 72q0 256 228 440q91 60 168 60zM180 352q0 -136 156 -168q26 -4 52 -4h40q130 0 172 144q8 41 8 72q0 193 -148 280l-24 4h-40q-94 0 -192 -192q-24 -70 -24 -136
zM312 1308q71 0 84 -92q0 -54 -184 -220q-17 -12 -40 -12h-4q-88 15 -88 88q0 47 124 164q48 72 108 72zM620 1308q69 0 88 -92q0 -46 -152 -212q-29 -44 -80 -44q-71 0 -84 92q0 52 184 244q17 10 44 12z" />
    <glyph glyph-name="OE" unicode="&#x152;" horiz-adv-x="1957" 
d="M524 1424h40q201 0 364 -224q9 -17 20 -20q32 139 100 196q80 48 252 48h28q263 0 496 -44q52 -39 52 -80v-4q-19 -88 -84 -88q-253 36 -472 36h-24q-152 0 -152 -36q-57 -214 -60 -428h4q54 0 400 16q96 -16 96 -96q0 -84 -128 -84q-14 -4 -376 -16v-60q14 -346 52 -360
q43 0 60 -4q170 0 576 64q88 -23 88 -88v-4q0 -86 -144 -100q-325 -48 -524 -48h-24q-163 0 -204 108q-20 57 -20 72h-8q-160 -180 -376 -180h-36q-340 0 -484 392q-36 125 -36 248v40q0 413 280 660q125 84 244 84zM180 684v-36q0 -341 236 -452q58 -16 100 -16h48
q253 0 328 364q8 94 8 120q0 347 -212 536q-72 44 -124 44h-48q-182 0 -300 -320q-36 -110 -36 -240z" />
    <glyph glyph-name="oe" unicode="&#x153;" horiz-adv-x="1494" 
d="M396 860h40q126 0 248 -140q110 132 276 132q306 0 420 -268q16 -47 16 -96v-16q-16 -112 -88 -112q-70 -20 -244 -20q-140 0 -252 8v-4q59 -152 224 -152h92q50 0 140 32h12q80 -22 80 -96t-148 -108q-46 -8 -112 -8h-36q-218 0 -336 132q-8 4 -12 4
q-114 -148 -312 -148q-323 0 -400 288q0 7 -4 72q0 256 228 440q91 60 168 60zM180 356q0 -142 156 -172q26 -4 52 -4h40q139 0 176 164q4 50 4 52q0 191 -148 280l-24 4h-40q-95 0 -188 -188q-28 -57 -28 -136zM796 528q113 -8 280 -8h24q34 0 108 4q0 63 -124 128
q-54 20 -132 20q-120 0 -156 -136v-8z" />
    <glyph glyph-name="Racute" unicode="&#x154;" horiz-adv-x="1041" 
d="M344 1424h44q267 0 456 -220q72 -103 72 -216q0 -316 -408 -448q-48 -15 -95 -27l11 -9q412 -268 484 -328q16 -22 17 -60q-7 -80 -93 -80q-43 0 -256 156l-384 252l-4 3v-7q8 -183 24 -352q-7 -80 -88 -88q-100 0 -100 180q-24 276 -24 572v44q0 463 120 552
q98 76 224 76zM180 796v-128q264 0 468 136q88 83 88 180v4q0 187 -312 256h-84q-114 0 -132 -96q-28 -105 -28 -352zM592 1790q67 0 84 -88q0 -56 -127 -164q-54 -60 -109 -60q-71 0 -84 92q0 51 134 163q49 57 102 57z" />
    <glyph glyph-name="racute" unicode="&#x155;" horiz-adv-x="657" 
d="M96 896q71 -18 80 -88l1 -7q101 51 187 51h44q152 0 152 -104q-12 -80 -92 -84q-38 8 -60 8h-48q-117 0 -140 -132q-32 -163 -32 -416v-20q-6 -94 -88 -104q-90 13 -92 80q-4 194 -8 736q7 78 96 80zM409 1302q67 0 84 -88q0 -56 -127 -164q-54 -60 -109 -60
q-71 0 -84 92q0 51 134 163q49 57 102 57z" />
    <glyph glyph-name="uni0156" unicode="&#x156;" horiz-adv-x="1009" 
d="M344 1424h44q267 0 456 -220q72 -103 72 -216q0 -316 -408 -448q-48 -15 -95 -27l11 -9q412 -268 484 -328q16 -22 17 -60q-7 -80 -93 -80q-43 0 -256 156l-384 252l-4 3v-7q8 -183 24 -352q-7 -80 -88 -88q-100 0 -100 180q-24 276 -24 572v44q0 463 120 552
q98 76 224 76zM180 796v-128q264 0 468 136q88 83 88 180v4q0 187 -312 256h-84q-114 0 -132 -96q-28 -105 -28 -352zM412 -2h8q94 0 108 -112v-16q-37 -280 -132 -280q-96 12 -96 92q0 12 32 116v8q-32 42 -32 88q0 87 112 104z" />
    <glyph glyph-name="uni0157" unicode="&#x157;" horiz-adv-x="653" 
d="M96 896q71 -18 80 -88l1 -7q101 51 187 51h44q152 0 152 -104q-12 -80 -92 -84q-38 8 -60 8h-48q-117 0 -140 -132q-32 -163 -32 -416v-20q-6 -94 -88 -104q-90 13 -92 80q-4 194 -8 736q7 78 96 80zM112 -22h8q94 0 108 -112v-16q-37 -280 -132 -280q-96 12 -96 92
q0 12 32 116v8q-32 42 -32 88q0 87 112 104z" />
    <glyph glyph-name="Rcaron" unicode="&#x158;" horiz-adv-x="1041" 
d="M344 1424h44q267 0 456 -220q72 -103 72 -216q0 -316 -408 -448q-48 -15 -95 -27l11 -9q412 -268 484 -328q16 -22 17 -60q-7 -80 -93 -80q-43 0 -256 156l-384 252l-4 3v-7q8 -183 24 -352q-7 -80 -88 -88q-100 0 -100 180q-24 276 -24 572v44q0 463 120 552
q98 76 224 76zM180 796v-128q264 0 468 136q88 83 88 180v4q0 187 -312 256h-84q-114 0 -132 -96q-28 -105 -28 -352zM457 1478q-80 0 -213 181q-9 22 -11 43q0 69 92 88q44 0 132 -108h4q101 100 140 100q92 -8 92 -92q0 -66 -170 -190q-26 -20 -66 -22z" />
    <glyph glyph-name="rcaron" unicode="&#x159;" horiz-adv-x="657" 
d="M96 896q71 -18 80 -88l1 -7q101 51 187 51h44q152 0 152 -104q-12 -80 -92 -84q-38 8 -60 8h-48q-117 0 -140 -132q-32 -163 -32 -416v-20q-6 -94 -88 -104q-90 13 -92 80q-4 194 -8 736q7 78 96 80zM274 990q-80 0 -213 181q-9 22 -11 43q0 69 92 88q44 0 132 -108h4
q101 100 140 100q92 -8 92 -92q0 -66 -170 -190q-26 -20 -66 -22z" />
    <glyph glyph-name="Sacute" unicode="&#x15a;" horiz-adv-x="1085" 
d="M420 1424h40q221 0 440 -80q36 -26 36 -76q-8 -87 -88 -88q-223 64 -388 64h-32q-210 0 -244 -128l-4 -24v-80q0 -127 288 -208q356 -81 452 -216q52 -82 52 -168v-44q0 -259 -288 -352q-81 -24 -192 -24h-40q-198 0 -368 56q-38 22 -40 76q9 85 96 88q203 -44 332 -44
q238 0 304 120q16 40 16 68v68q0 119 -420 212q-372 119 -372 384v44q0 242 260 332q88 20 160 20zM615 1790q67 0 84 -88q0 -56 -127 -164q-54 -60 -109 -60q-71 0 -84 92q0 51 134 163q49 57 102 57z" />
    <glyph glyph-name="sacute" unicode="&#x15b;" horiz-adv-x="780" 
d="M264 836h48q252 0 280 -84q4 -22 4 -36q-7 -80 -88 -84q-99 24 -196 24h-52q-80 0 -80 -32q5 -30 204 -96q288 -103 288 -280v-24q0 -191 -304 -224h-88q-186 4 -216 59q-4 20 -4 33v16q22 80 80 80q148 -12 160 -12q180 7 192 48v20q0 66 -324 172q-168 81 -168 196v28
q0 126 160 180q44 16 104 16zM465 1202q67 0 84 -88q0 -56 -127 -164q-54 -60 -109 -60q-71 0 -84 92q0 51 134 163q49 57 102 57z" />
    <glyph glyph-name="Scircumflex" unicode="&#x15c;" horiz-adv-x="1085" 
d="M420 1424h40q221 0 440 -80q36 -26 36 -76q-8 -87 -88 -88q-223 64 -388 64h-32q-210 0 -244 -128l-4 -24v-80q0 -127 288 -208q356 -81 452 -216q52 -82 52 -168v-44q0 -259 -288 -352q-81 -24 -192 -24h-40q-198 0 -368 56q-38 22 -40 76q9 85 96 88q203 -44 332 -44
q238 0 304 120q16 40 16 68v68q0 119 -420 212q-372 119 -372 384v44q0 242 260 332q88 20 160 20zM493 1790q80 0 220 -192q3 -14 3 -28q0 -26 -10 -50q-15 -35 -81 -42q-44 0 -132 108h-4q-101 -100 -140 -100q-92 8 -92 92q0 66 176 192q27 19 60 20z" />
    <glyph glyph-name="scircumflex" unicode="&#x15d;" horiz-adv-x="780" 
d="M264 836h48q252 0 280 -84q4 -22 4 -36q-7 -80 -88 -84q-99 24 -196 24h-52q-80 0 -80 -32q5 -30 204 -96q288 -103 288 -280v-24q0 -191 -304 -224h-88q-186 4 -216 59q-4 20 -4 33v16q22 80 80 80q148 -12 160 -12q180 7 192 48v20q0 66 -324 172q-168 81 -168 196v28
q0 126 160 180q44 16 104 16zM343 1202q80 0 220 -192q3 -14 3 -28q0 -26 -10 -50q-15 -35 -81 -42q-44 0 -132 108h-4q-101 -100 -140 -100q-92 8 -92 92q0 66 176 192q27 19 60 20z" />
    <glyph glyph-name="Scedilla" unicode="&#x15e;" horiz-adv-x="1085" 
d="M420 1424h40q221 0 440 -80q36 -26 36 -76q-8 -87 -88 -88q-223 64 -388 64h-32q-210 0 -244 -128l-4 -24v-80q0 -127 288 -208q356 -81 452 -216q52 -82 52 -168v-44q0 -259 -288 -352q-81 -24 -192 -24h-40q-198 0 -368 56q-38 22 -40 76q9 85 96 88q203 -44 332 -44
q238 0 304 120q16 40 16 68v68q0 119 -420 212q-372 119 -372 384v44q0 242 260 332q88 20 160 20zM494 104q92 0 92 -92q0 -14 -24 -100q116 -85 116 -188v-20q-23 -164 -160 -164h-16q-208 19 -208 120q0 75 92 88q101 -28 104 -28h8v4q0 10 -104 88q-24 38 -24 64v4
q34 224 124 224z" />
    <glyph glyph-name="scedilla" unicode="&#x15f;" horiz-adv-x="780" 
d="M264 836h48q252 0 280 -84q4 -22 4 -36q-7 -80 -88 -84q-99 24 -196 24h-52q-80 0 -80 -32q5 -30 204 -96q288 -103 288 -280v-24q0 -191 -304 -224h-88q-186 4 -216 59q-4 20 -4 33v16q22 80 80 80q148 -12 160 -12q180 7 192 48v20q0 66 -324 172q-168 81 -168 196v28
q0 126 160 180q44 16 104 16zM344 104q92 0 92 -92q0 -14 -24 -100q116 -85 116 -188v-20q-23 -164 -160 -164h-16q-208 19 -208 120q0 75 92 88q101 -28 104 -28h8v4q0 10 -104 88q-24 38 -24 64v4q34 224 124 224z" />
    <glyph glyph-name="Scaron" unicode="&#x160;" horiz-adv-x="1085" 
d="M420 1424h40q221 0 440 -80q36 -26 36 -76q-8 -87 -88 -88q-223 64 -388 64h-32q-210 0 -244 -128l-4 -24v-80q0 -127 288 -208q356 -81 452 -216q52 -82 52 -168v-44q0 -259 -288 -352q-81 -24 -192 -24h-40q-198 0 -368 56q-38 22 -40 76q9 85 96 88q203 -44 332 -44
q238 0 304 120q16 40 16 68v68q0 119 -420 212q-372 119 -372 384v44q0 242 260 332q88 20 160 20zM480 1478q-80 0 -213 181q-9 22 -11 43q0 69 92 88q44 0 132 -108h4q101 100 140 100q92 -8 92 -92q0 -66 -170 -190q-26 -20 -66 -22z" />
    <glyph glyph-name="scaron" unicode="&#x161;" horiz-adv-x="780" 
d="M264 836h48q252 0 280 -84q4 -22 4 -36q-7 -80 -88 -84q-99 24 -196 24h-52q-80 0 -80 -32q5 -30 204 -96q288 -103 288 -280v-24q0 -191 -304 -224h-88q-186 4 -216 59q-4 20 -4 33v16q22 80 80 80q148 -12 160 -12q180 7 192 48v20q0 66 -324 172q-168 81 -168 196v28
q0 126 160 180q44 16 104 16zM330 890q-80 0 -213 181q-9 22 -11 43q0 69 92 88q44 0 132 -108h4q101 100 140 100q92 -8 92 -92q0 -66 -170 -190q-26 -20 -66 -22z" />
    <glyph glyph-name="uni0162" unicode="&#x162;" horiz-adv-x="1181" 
d="M996 1424q76 0 88 -92q0 -77 -112 -88h-340v-1160q0 -71 -92 -84q-77 0 -88 116v1124h-348q-104 8 -104 100q1 64 84 80h8q769 4 904 4zM550 104q92 0 92 -92q0 -14 -24 -100q116 -85 116 -188v-20q-23 -164 -160 -164h-16q-208 19 -208 120q0 75 92 88q101 -28 104 -28
h8v4q0 10 -104 88q-24 38 -24 64v4q34 224 124 224z" />
    <glyph glyph-name="uni0163" unicode="&#x163;" horiz-adv-x="916" 
d="M292 1236q88 -22 88 -88q-28 -157 -52 -324h260q96 -11 96 -88q0 -79 -112 -92h-56q-63 0 -208 -4v-12q0 -86 -4 -136q10 -280 72 -301q25 -10 68 -11h44q98 0 212 136q21 12 48 12q88 -15 88 -88q0 -88 -204 -208q-78 -32 -152 -32h-32q-216 0 -288 200q-36 146 -36 288
q1 86 4 152h-32q-96 8 -96 92q0 75 108 88h40q48 368 82 396q23 20 62 20zM426 104q92 0 92 -92q0 -14 -24 -100q116 -85 116 -188v-20q-23 -164 -160 -164h-16q-208 19 -208 120q0 75 92 88q101 -28 104 -28h8v4q0 10 -104 88q-24 38 -24 64v4q34 224 124 224z" />
    <glyph glyph-name="Tcaron" unicode="&#x164;" horiz-adv-x="1181" 
d="M996 1424q76 0 88 -92q0 -77 -112 -88h-340v-1160q0 -71 -92 -84q-77 0 -88 116v1124h-348q-104 8 -104 100q1 64 84 80h8q769 4 904 4zM536 1478q-80 0 -213 181q-9 22 -11 43q0 69 92 88q44 0 132 -108h4q101 100 140 100q92 -8 92 -92q0 -66 -170 -190
q-26 -20 -66 -22z" />
    <glyph glyph-name="tcaron" unicode="&#x165;" horiz-adv-x="1031" 
d="M292 1236q88 -22 88 -88q-28 -157 -52 -324h260q96 -11 96 -88q0 -79 -112 -92h-56q-63 0 -208 -4v-12q0 -86 -4 -136q10 -280 72 -301q25 -10 68 -11h44q98 0 212 136q21 12 48 12q88 -15 88 -88q0 -88 -204 -208q-78 -32 -152 -32h-32q-216 0 -288 200q-36 146 -36 288
q1 86 4 152h-32q-96 8 -96 92q0 75 108 88h40q48 368 82 396q23 20 62 20zM812 1298h8q94 0 108 -112v-16q-37 -280 -132 -280q-96 12 -96 92q0 12 32 116v8q-32 42 -32 88q0 87 112 104z" />
    <glyph glyph-name="Tbar" unicode="&#x166;" horiz-adv-x="1195" 
d="M452 680h-345q-101 8 -101 92q0 73 101 84h345v384h-348q-104 8 -104 100q1 64 84 80h8q769 4 904 4q76 0 88 -92q0 -77 -112 -88h-340v-388h317q101 -7 101 -92q0 -73 -101 -84h-317v-596q0 -71 -92 -84q-77 0 -88 116v564z" />
    <glyph glyph-name="tbar" unicode="&#x167;" horiz-adv-x="917" 
d="M129 380h-47q-76 8 -76 92q0 73 76 85h43q1 45 3 83h-32q-96 8 -96 92q0 75 108 88h40q48 368 82 396q23 20 62 20q88 -22 88 -88q-28 -157 -52 -324h260q96 -11 96 -88q0 -79 -112 -92h-56q-63 0 -208 -4v-12q0 -40 -1 -72h188q70 -7 70 -92q0 -73 -77 -85h-177
q17 -172 65 -188q25 -10 68 -11h44q98 0 212 136q21 12 48 12q88 -15 88 -88q0 -88 -204 -208q-78 -32 -152 -32h-32q-216 0 -288 200q-22 91 -31 180z" />
    <glyph glyph-name="Utilde" unicode="&#x168;" 
d="M976 1196q72 -259 72 -528v-28q0 -484 -336 -612q-83 -28 -168 -28h-48q-351 0 -468 384q-28 110 -28 240v40q0 328 124 704q20 40 80 40q86 -13 86 -79q0 -5 -1 -9l-1 -4q-108 -383 -108 -640v-52q0 -314 172 -412q70 -32 144 -32h52q226 0 296 248q28 110 28 236
q0 255 -112 672q-1 6 -1 11q0 58 93 77q90 0 124 -228zM398 1790h24q85 0 196 -128l6 -5q36 93 46 105q23 25 64 28q77 0 88 -96q-42 -216 -188 -216h-20q-82 0 -192 128l-7 6q-6 -2 -21 -86q-21 -45 -84 -48q-73 0 -84 96v24q0 135 136 188q22 4 36 4z" />
    <glyph glyph-name="utilde" unicode="&#x169;" horiz-adv-x="885" 
d="M136 836q83 -10 84 -92q-40 -191 -40 -280v-112q15 -172 84 -172h40q182 0 272 364q16 86 28 200q14 58 84 60q82 -9 88 -92q-47 -644 -64 -644q-38 -44 -76 -44q-53 0 -92 72h-4q-115 -96 -240 -96h-36q-173 0 -248 228q-16 79 -16 144v52q0 225 60 376q19 34 76 36z
M262 1202h24q85 0 196 -128l6 -5q36 93 46 105q23 25 64 28q77 0 88 -96q-42 -216 -188 -216h-20q-82 0 -192 128l-7 6q-6 -2 -21 -86q-21 -45 -84 -48q-73 0 -84 96v24q0 135 136 188q22 4 36 4z" />
    <glyph glyph-name="Umacron" unicode="&#x16a;" 
d="M976 1196q72 -259 72 -528v-28q0 -484 -336 -612q-83 -28 -168 -28h-48q-351 0 -468 384q-28 110 -28 240v40q0 328 124 704q20 40 80 40q86 -13 86 -79q0 -5 -1 -9l-1 -4q-108 -383 -108 -640v-52q0 -314 172 -412q70 -32 144 -32h52q226 0 296 248q28 110 28 236
q0 255 -112 672q-1 6 -1 11q0 58 93 77q90 0 124 -228zM756 1736q65 0 80 -92q0 -88 -152 -88q-90 -4 -392 -8q-65 0 -80 92q0 88 152 88q312 8 392 8z" />
    <glyph glyph-name="umacron" unicode="&#x16b;" horiz-adv-x="885" 
d="M136 836q83 -10 84 -92q-40 -191 -40 -280v-112q15 -172 84 -172h40q182 0 272 364q16 86 28 200q14 58 84 60q82 -9 88 -92q-47 -644 -64 -644q-38 -44 -76 -44q-53 0 -92 72h-4q-115 -96 -240 -96h-36q-173 0 -248 228q-16 79 -16 144v52q0 225 60 376q19 34 76 36z
M620 1148q65 0 80 -92q0 -88 -152 -88q-90 -4 -392 -8q-65 0 -80 92q0 88 152 88q312 8 392 8z" />
    <glyph glyph-name="Ubreve" unicode="&#x16c;" 
d="M976 1196q72 -259 72 -528v-28q0 -484 -336 -612q-83 -28 -168 -28h-48q-351 0 -468 384q-28 110 -28 240v40q0 328 124 704q20 40 80 40q86 -13 86 -79q0 -5 -1 -9l-1 -4q-108 -383 -108 -640v-52q0 -314 172 -412q70 -32 144 -32h52q226 0 296 248q28 110 28 236
q0 255 -112 672q-1 6 -1 11q0 58 93 77q90 0 124 -228zM730 1790q71 0 84 -92q0 -71 -128 -172q-76 -48 -144 -48h-32q-180 0 -272 184q-4 16 -4 28q0 78 96 88q41 0 100 -88q38 -32 68 -32h40q59 0 132 112q25 20 60 20z" />
    <glyph glyph-name="ubreve" unicode="&#x16d;" horiz-adv-x="885" 
d="M136 836q83 -10 84 -92q-40 -191 -40 -280v-112q15 -172 84 -172h40q182 0 272 364q16 86 28 200q14 58 84 60q82 -9 88 -92q-47 -644 -64 -644q-38 -44 -76 -44q-53 0 -92 72h-4q-115 -96 -240 -96h-36q-173 0 -248 228q-16 79 -16 144v52q0 225 60 376q19 34 76 36z
M594 1202q71 0 84 -92q0 -71 -128 -172q-76 -48 -144 -48h-32q-180 0 -272 184q-4 16 -4 28q0 78 96 88q41 0 100 -88q38 -32 68 -32h40q59 0 132 112q25 20 60 20z" />
    <glyph glyph-name="Uring" unicode="&#x16e;" 
d="M976 1196q72 -259 72 -528v-28q0 -484 -336 -612q-83 -28 -168 -28h-48q-351 0 -468 384q-28 110 -28 240v40q0 328 124 704q20 40 80 40q86 -13 86 -79q0 -5 -1 -9l-1 -4q-108 -383 -108 -640v-52q0 -314 172 -412q70 -32 144 -32h52q226 0 296 248q28 110 28 236
q0 255 -112 672q-1 6 -1 11q0 58 93 77q90 0 124 -228zM512 1798h28q126 0 180 -160q4 -21 4 -40v-20q-25 -180 -180 -180h-28q-140 0 -188 144q-4 16 -4 32v24q0 131 144 192q16 8 44 8zM504 1590v-4q1 -8 9 -12q16 0 31 4v12q0 22 -16 28h-8q-16 -6 -16 -28z" />
    <glyph glyph-name="uring" unicode="&#x16f;" horiz-adv-x="885" 
d="M136 836q83 -10 84 -92q-40 -191 -40 -280v-112q15 -172 84 -172h40q182 0 272 364q16 86 28 200q14 58 84 60q82 -9 88 -92q-47 -644 -64 -644q-38 -44 -76 -44q-53 0 -92 72h-4q-115 -96 -240 -96h-36q-173 0 -248 228q-16 79 -16 144v52q0 225 60 376q19 34 76 36z
M376 1210h28q126 0 180 -160q4 -21 4 -40v-20q-25 -180 -180 -180h-28q-140 0 -188 144q-4 16 -4 32v24q0 131 144 192q16 8 44 8zM368 1002v-4q1 -8 9 -12q16 0 31 4v12q0 22 -16 28h-8q-16 -6 -16 -28z" />
    <glyph glyph-name="Uhungarumlaut" unicode="&#x170;" 
d="M976 1196q72 -259 72 -528v-28q0 -484 -336 -612q-83 -28 -168 -28h-48q-351 0 -468 384q-28 110 -28 240v40q0 328 124 704q20 40 80 40q86 -13 86 -79q0 -5 -1 -9l-1 -4q-108 -383 -108 -640v-52q0 -314 172 -412q70 -32 144 -32h52q226 0 296 248q28 110 28 236
q0 255 -112 672q-1 6 -1 11q0 58 93 77q90 0 124 -228zM442 1796q71 0 84 -92q0 -54 -184 -220q-17 -12 -40 -12h-4q-88 15 -88 88q0 47 124 164q48 72 108 72zM750 1796q69 0 88 -92q0 -46 -152 -212q-29 -44 -80 -44q-71 0 -84 92q0 52 184 244q17 10 44 12z" />
    <glyph glyph-name="uhungarumlaut" unicode="&#x171;" horiz-adv-x="885" 
d="M136 836q83 -10 84 -92q-40 -191 -40 -280v-112q15 -172 84 -172h40q182 0 272 364q16 86 28 200q14 58 84 60q82 -9 88 -92q-47 -644 -64 -644q-38 -44 -76 -44q-53 0 -92 72h-4q-115 -96 -240 -96h-36q-173 0 -248 228q-16 79 -16 144v52q0 225 60 376q19 34 76 36z
M306 1208q71 0 84 -92q0 -54 -184 -220q-17 -12 -40 -12h-4q-88 15 -88 88q0 47 124 164q48 72 108 72zM614 1208q69 0 88 -92q0 -46 -152 -212q-29 -44 -80 -44q-71 0 -84 92q0 52 184 244q17 10 44 12z" />
    <glyph glyph-name="Uogonek" unicode="&#x172;" 
d="M976 1196q72 -259 72 -528v-28q0 -484 -336 -612q-83 -28 -168 -28h-48q-351 0 -468 384q-28 110 -28 240v40q0 328 124 704q20 40 80 40q86 -13 86 -79q0 -5 -1 -9l-1 -4q-108 -383 -108 -640v-52q0 -314 172 -412q70 -32 144 -32h52q226 0 296 248q28 110 28 236
q0 255 -112 672q-1 6 -1 11q0 58 93 77q90 0 124 -228zM732 130q67 0 84 -80v-16q0 -28 -96 -160q-12 -31 -12 -44q4 -10 7.5 -10.5t4.5 -0.5q5 0 11 4q25 12 47 108q17 39 78 43q76 -13 80 -96q-36 -228 -204 -228h-24q-184 19 -184 172q0 131 160 296q21 12 48 12z" />
    <glyph glyph-name="uogonek" unicode="&#x173;" horiz-adv-x="885" 
d="M136 836q83 -10 84 -92q-40 -191 -40 -280v-112q15 -172 84 -172h40q182 0 272 364q16 86 28 200q14 58 84 60q82 -9 88 -92q-47 -644 -64 -644q-38 -44 -76 -44q-53 0 -92 72h-4q-115 -96 -240 -96h-36q-173 0 -248 228q-16 79 -16 144v52q0 225 60 376q19 34 76 36z
M632 130q67 0 84 -80v-16q0 -28 -96 -160q-12 -31 -12 -44q4 -10 7.5 -10.5t4.5 -0.5q5 0 11 4q25 12 47 108q17 39 78 43q76 -13 80 -96q-36 -228 -204 -228h-24q-184 19 -184 172q0 131 160 296q21 12 48 12z" />
    <glyph glyph-name="Wcircumflex" unicode="&#x174;" horiz-adv-x="1409" 
d="M1196 1424q96 0 96 -196q12 -128 12 -388q0 -836 -340 -836h-8q-180 0 -296 212l-5 10q-123 -226 -311 -226h-20q-265 0 -316 596q-8 84 -8 240v116q0 407 49 439q22 13 59 13q88 -15 88 -88q-16 -167 -16 -432v-44q0 -522 124 -652q7 -6 16 -8h32q147 0 204 372
q8 99 8 112q0 18 -4 120q0 144 96 144q78 0 88 -112v-140q0 -270 120 -448q46 -42 88 -44h16q109 0 152 440l8 232q-8 304 -24 488q7 68 84 80h8zM659 1790q80 0 220 -192q3 -14 3 -28q0 -26 -10 -50q-15 -35 -81 -42q-44 0 -132 108h-4q-101 -100 -140 -100q-92 8 -92 92
q0 66 176 192q27 19 60 20z" />
    <glyph glyph-name="wcircumflex" unicode="&#x175;" horiz-adv-x="1258" 
d="M1000 836q95 0 128 -240q24 -93 24 -204v-44q0 -250 -196 -332q-45 -16 -96 -16h-52q-136 0 -248 92q-120 -88 -232 -88h-80q-164 0 -232 176q-16 36 -16 100v44q0 179 128 460q26 31 68 32q87 -5 88 -92q0 -16 -76 -232q-28 -101 -28 -176v-44q0 -92 100 -92
q135 0 176 72q8 26 8 36q0 37 -4 68q0 120 96 120t96 -172q17 -124 144 -124h76q104 0 104 192q0 123 -64 368v12q0 67 88 84zM583 1202q80 0 220 -192q3 -14 3 -28q0 -26 -10 -50q-15 -35 -81 -42q-44 0 -132 108h-4q-101 -100 -140 -100q-92 8 -92 92q0 66 176 192
q27 19 60 20z" />
    <glyph glyph-name="Ycircumflex" unicode="&#x176;" horiz-adv-x="990" 
d="M792 1424q81 0 88 -100q0 -508 -228 -728q-47 -38 -120 -72v-420q-9 -104 -96 -104q-72 0 -84 100v428q-121 34 -204 156q-148 236 -148 608v4q6 96 96 96q65 0 80 -84q0 -333 132 -544q58 -68 128 -68h16q168 0 236 432q12 231 36 260q18 24 68 36zM447 1790
q80 0 220 -192q3 -14 3 -28q0 -26 -10 -50q-15 -35 -81 -42q-44 0 -132 108h-4q-101 -100 -140 -100q-92 8 -92 92q0 66 176 192q27 19 60 20z" />
    <glyph glyph-name="ycircumflex" unicode="&#x177;" horiz-adv-x="903" 
d="M112 830q74 -12 80 -84v-4q-12 -99 -12 -156v-96q0 -231 104 -304q28 -8 44 -8q185 0 220 344v212q0 73 96 84q79 0 104 -184q52 -229 52 -440q0 -476 -316 -584q-58 -20 -120 -20h-52q-161 0 -240 120q-4 22 -4 32q0 76 92 84q15 0 116 -52q21 -4 40 -4h52
q169 0 232 220q20 116 20 156h-4q-125 -148 -292 -148q-251 0 -312 364q-12 74 -12 180q5 238 35 269q25 19 77 19zM407 1202q80 0 220 -192q3 -14 3 -28q0 -26 -10 -50q-15 -35 -81 -42q-44 0 -132 108h-4q-101 -100 -140 -100q-92 8 -92 92q0 66 176 192q27 19 60 20z" />
    <glyph glyph-name="Ydieresis" unicode="&#x178;" horiz-adv-x="990" 
d="M792 1424q81 0 88 -100q0 -508 -228 -728q-47 -38 -120 -72v-420q-9 -104 -96 -104q-72 0 -84 100v428q-121 34 -204 156q-148 236 -148 608v4q6 96 96 96q65 0 80 -84q0 -333 132 -544q58 -68 128 -68h16q168 0 236 432q12 231 36 260q18 24 68 36zM226 1731
q104 -15 104 -104q0 -83 -108 -100q-86 0 -100 108q0 81 104 96zM654 1731q104 -12 104 -104q-19 -96 -92 -96h-24q-76 0 -92 108q0 70 96 92h8z" />
    <glyph glyph-name="Zacute" unicode="&#x179;" horiz-adv-x="1086" 
d="M636 1424h44q224 0 284 -96q20 -32 20 -68v-12q0 -124 -392 -520q-386 -406 -412 -512q30 -32 256 -40q226 8 420 32q74 -5 80 -80v-16q-10 -74 -150 -93t-358 -19h-16q-329 0 -392 132q-20 24 -20 68v16q0 160 448 616q288 304 340 392v12q-39 8 -108 8h-24
q-226 0 -544 -48q-88 15 -88 88q0 100 164 100q223 40 448 40zM621 1790q67 0 84 -88q0 -56 -127 -164q-54 -60 -109 -60q-71 0 -84 92q0 51 134 163q49 57 102 57z" />
    <glyph glyph-name="zacute" unicode="&#x17a;" horiz-adv-x="911" 
d="M444 836h48q234 0 284 -60q32 -33 32 -80q0 -90 -240 -276q-239 -195 -284 -236l-5 -6q15 -2 33 -2q276 8 352 8q63 0 80 -88q0 -84 -128 -92q-163 -4 -296 -4h-16q-188 1 -264 50q-32 28 -32 74q0 79 212 240q283 231 340 284l9 8h-113q-238 0 -368 -12q-74 0 -88 100
q0 56 84 80q154 12 360 12zM533 1202q67 0 84 -88q0 -56 -127 -164q-54 -60 -109 -60q-71 0 -84 92q0 51 134 163q49 57 102 57z" />
    <glyph glyph-name="Zdotaccent" unicode="&#x17b;" horiz-adv-x="1086" 
d="M636 1424h44q224 0 284 -96q20 -32 20 -68v-12q0 -124 -392 -520q-386 -406 -412 -512q30 -32 256 -40q226 8 420 32q74 -5 80 -80v-16q-10 -74 -150 -93t-358 -19h-16q-329 0 -392 132q-20 24 -20 68v16q0 160 448 616q288 304 340 392v12q-39 8 -108 8h-24
q-226 0 -544 -48q-88 15 -88 88q0 100 164 100q223 40 448 40zM492 1712q102 -5 104 -104q-2 -92 -108 -100q-91 2 -100 108q1 86 104 96z" />
    <glyph glyph-name="zdotaccent" unicode="&#x17c;" horiz-adv-x="911" 
d="M444 836h48q234 0 284 -60q32 -33 32 -80q0 -90 -240 -276q-239 -195 -284 -236l-5 -6q15 -2 33 -2q276 8 352 8q63 0 80 -88q0 -84 -128 -92q-163 -4 -296 -4h-16q-188 1 -264 50q-32 28 -32 74q0 79 212 240q283 231 340 284l9 8h-113q-238 0 -368 -12q-74 0 -88 100
q0 56 84 80q154 12 360 12zM404 1124q102 -5 104 -104q-2 -92 -108 -100q-91 2 -100 108q1 86 104 96z" />
    <glyph glyph-name="Zcaron" unicode="&#x17d;" horiz-adv-x="1086" 
d="M636 1424h44q224 0 284 -96q20 -32 20 -68v-12q0 -124 -392 -520q-386 -406 -412 -512q30 -32 256 -40q226 8 420 32q74 -5 80 -80v-16q-10 -74 -150 -93t-358 -19h-16q-329 0 -392 132q-20 24 -20 68v16q0 160 448 616q288 304 340 392v12q-39 8 -108 8h-24
q-226 0 -544 -48q-88 15 -88 88q0 100 164 100q223 40 448 40zM486 1478q-80 0 -213 181q-9 22 -11 43q0 69 92 88q44 0 132 -108h4q101 100 140 100q92 -8 92 -92q0 -66 -170 -190q-26 -20 -66 -22z" />
    <glyph glyph-name="zcaron" unicode="&#x17e;" horiz-adv-x="911" 
d="M444 836h48q234 0 284 -60q32 -33 32 -80q0 -90 -240 -276q-239 -195 -284 -236l-5 -6q15 -2 33 -2q276 8 352 8q63 0 80 -88q0 -84 -128 -92q-163 -4 -296 -4h-16q-188 1 -264 50q-32 28 -32 74q0 79 212 240q283 231 340 284l9 8h-113q-238 0 -368 -12q-74 0 -88 100
q0 56 84 80q154 12 360 12zM398 890q-80 0 -213 181q-9 22 -11 43q0 69 92 88q44 0 132 -108h4q101 100 140 100q92 -8 92 -92q0 -66 -170 -190q-26 -20 -66 -22z" />
    <glyph glyph-name="longs" unicode="&#x17f;" horiz-adv-x="772" 
d="M308 1424h32q156 0 308 -108q24 -28 24 -60q0 -68 -92 -88q-11 0 -140 56q-49 20 -104 20h-36q-88 0 -104 -92q-16 -76 -16 -224v-12q0 -351 64 -832q0 -65 -88 -84h-4q-96 0 -96 164q-56 390 -56 732v48q0 344 120 420q82 60 188 60z" />
    <glyph glyph-name="circumflex" unicode="&#x2c6;" horiz-adv-x="545" 
d="M236 1802q80 0 220 -192q3 -14 3 -28q0 -26 -10 -50q-15 -35 -81 -42q-44 0 -132 108h-4q-101 -100 -140 -100q-92 8 -92 92q0 66 176 192q27 19 60 20z" />
    <glyph glyph-name="caron" unicode="&#x2c7;" horiz-adv-x="550" 
d="M224 1490q-80 0 -213 181q-9 22 -11 43q0 69 92 88q44 0 132 -108h4q101 100 140 100q92 -8 92 -92q0 -66 -170 -190q-26 -20 -66 -22z" />
    <glyph glyph-name="uni02C9" unicode="&#x2c9;" horiz-adv-x="714" 
d="M544 1748q65 0 80 -92q0 -88 -152 -88q-90 -4 -392 -8q-65 0 -80 92q0 88 152 88q312 8 392 8z" />
    <glyph glyph-name="breve" unicode="&#x2d8;" horiz-adv-x="684" 
d="M496 1802q71 0 84 -92q0 -71 -128 -172q-76 -48 -144 -48h-32q-180 0 -272 184q-4 16 -4 28q0 78 96 88q41 0 100 -88q38 -32 68 -32h40q59 0 132 112q25 20 60 20z" />
    <glyph glyph-name="dotaccent" unicode="&#x2d9;" horiz-adv-x="299" 
d="M104 1724q102 -5 104 -104q-2 -92 -108 -100q-91 2 -100 108q1 86 104 96z" />
    <glyph glyph-name="ring" unicode="&#x2da;" horiz-adv-x="500" 
d="M188 1810h28q126 0 180 -160q4 -21 4 -40v-20q-25 -180 -180 -180h-28q-140 0 -188 144q-4 16 -4 32v24q0 131 144 192q16 8 44 8zM180 1602v-4q1 -8 9 -12q16 0 31 4v12q0 22 -16 28h-8q-16 -6 -16 -28z" />
    <glyph glyph-name="ogonek" unicode="&#x2db;" horiz-adv-x="508" 
d="M208 130q67 0 84 -80v-16q0 -28 -96 -160q-12 -31 -12 -44q4 -10 7.5 -10.5t4.5 -0.5q5 0 11 4q25 12 47 108q17 39 78 43q76 -13 80 -96q-36 -228 -204 -228h-24q-184 19 -184 172q0 131 160 296q21 12 48 12z" />
    <glyph glyph-name="tilde" unicode="&#x2dc;" horiz-adv-x="700" 
d="M172 1802h24q85 0 196 -128l6 -5q36 93 46 105q23 25 64 28q77 0 88 -96q-42 -216 -188 -216h-20q-82 0 -192 128l-7 6q-6 -2 -21 -86q-21 -45 -84 -48q-73 0 -84 96v24q0 135 136 188q22 4 36 4z" />
    <glyph glyph-name="hungarumlaut" unicode="&#x2dd;" horiz-adv-x="723" 
d="M232 1808q71 0 84 -92q0 -54 -184 -220q-17 -12 -40 -12h-4q-88 15 -88 88q0 47 124 164q48 72 108 72zM540 1808q69 0 88 -92q0 -46 -152 -212q-29 -44 -80 -44q-71 0 -84 92q0 52 184 244q17 10 44 12z" />
    <glyph glyph-name="endash" unicode="&#x2013;" horiz-adv-x="1018" 
d="M96 786h615q157 0 189 -28q17 -19 28 -60q-2 -77 -88 -88h-736q-104 12 -104 88q0 79 96 88z" />
    <glyph glyph-name="emdash" unicode="&#x2014;" horiz-adv-x="1640" 
d="M96 786h1356q96 -7 96 -92q0 -73 -96 -84h-1356q-96 8 -96 92q0 73 96 84z" />
    <glyph glyph-name="quoteleft" unicode="&#x2018;" horiz-adv-x="318" 
d="M116 1090h-8q-94 0 -108 112v16q37 280 132 280q96 -11 96 -92q0 -12 -32 -116v-8q32 -42 32 -88q0 -87 -112 -104z" />
    <glyph glyph-name="quoteright" unicode="&#x2019;" horiz-adv-x="321" 
d="M112 1498h8q94 0 108 -112v-16q-37 -280 -132 -280q-96 12 -96 92q0 12 32 116v8q-32 42 -32 88q0 87 112 104z" />
    <glyph glyph-name="quotesinglbase" unicode="&#x201a;" horiz-adv-x="321" 
d="M112 198h8q94 0 108 -112v-16q-37 -280 -132 -280q-96 12 -96 92q0 12 32 116v8q-32 42 -32 88q0 87 112 104z" />
    <glyph glyph-name="quotedblleft" unicode="&#x201c;" horiz-adv-x="656" 
d="M116 1090h-8q-94 0 -108 112v16q37 280 132 280q96 -11 96 -92q0 -12 -32 -116v-8q32 -42 32 -88q0 -87 -112 -104zM438 1090h-8q-94 0 -108 112v16q37 280 132 280q96 -11 96 -92q0 -12 -32 -116v-8q32 -42 32 -88q0 -87 -112 -104z" />
    <glyph glyph-name="quotedblright" unicode="&#x201d;" horiz-adv-x="662" 
d="M112 1498h8q94 0 108 -112v-16q-37 -280 -132 -280q-96 12 -96 92q0 12 32 116v8q-32 42 -32 88q0 87 112 104zM422 1498h8q94 0 108 -112v-16q-37 -280 -132 -280q-96 12 -96 92q0 12 32 116v8q-32 42 -32 88q0 87 112 104z" />
    <glyph glyph-name="quotedblbase" unicode="&#x201e;" horiz-adv-x="627" 
d="M112 198h8q94 0 108 -112v-16q-37 -280 -132 -280q-96 12 -96 92q0 12 32 116v8q-32 42 -32 88q0 87 112 104zM422 198h8q94 0 108 -112v-16q-37 -280 -132 -280q-96 12 -96 92q0 12 32 116v8q-32 42 -32 88q0 87 112 104z" />
    <glyph glyph-name="dagger" unicode="&#x2020;" horiz-adv-x="926" 
d="M384 1372q96 0 96 -204q8 -64 8 -76l1 -15q88 135 147 183q22 12 44 12q81 -9 88 -88q0 -42 -192 -284q-40 -50 -40 -60q243 -197 284 -248q8 -30 8 -40q0 -68 -88 -84h-4q-44 0 -172 116l-24 20l-11 11q15 -105 15 -127q-22 -88 -88 -88q-96 0 -98 129q0 30 -2 73
l-8 -10q-123 -163 -160 -184l-28 -4h-8q-71 0 -84 92q0 42 184 268q0 5 32 48q0 8 -244 208q-40 36 -40 80q19 84 84 84h8q43 0 212 -152l9 -10l-1 14q-20 228 -20 252q0 71 92 84z" />
    <glyph glyph-name="daggerdbl" unicode="&#x2021;" horiz-adv-x="1148" 
d="M592 1560h4q61 0 164 -160l8 -4h4q153 132 184 132h12q88 -16 88 -88q0 -59 -164 -176q-12 -10 -12 -24q168 -204 168 -244v-12q0 -72 -92 -84q-57 0 -160 160l-60 72q-222 -184 -248 -184h-16q-73 0 -84 96q0 53 160 164l76 68v8q-116 146 -116 172v32q0 55 84 72z
M564 860q56 0 80 -84v-4q-6 -37 -68 -188v-4q136 56 152 56q96 -7 96 -92q0 -74 -184 -132q-44 -19 -44 -24v-8q219 -111 260 -152q16 -27 16 -56q0 -73 -96 -84q-24 0 -336 176h-4q-149 -336 -180 -352q-31 -12 -52 -12q-84 20 -84 80v16q0 14 100 232l-8 4
q-64 -28 -100 -28q-80 25 -80 80v16q0 68 136 108v4q-163 87 -164 124q-4 16 -4 28q19 84 84 84h12q25 0 248 -124h4l136 300q32 36 80 36z" />
    <glyph glyph-name="bullet" unicode="&#x2022;" horiz-adv-x="800" 
d="M244 1028h36q161 0 240 -140q28 -46 28 -104v-36q0 -156 -172 -252q-49 -16 -84 -16h-28q-168 0 -252 212q-12 29 -12 80v20q0 170 176 228q32 8 68 8z" />
    <glyph glyph-name="ellipsis" unicode="&#x2026;" horiz-adv-x="1302" 
d="M104 204q102 -5 104 -104q-2 -92 -108 -100q-91 2 -100 108q1 86 104 96zM504 204q102 -5 104 -104q-2 -92 -108 -100q-91 2 -100 108q1 86 104 96zM904 204q102 -5 104 -104q-2 -92 -108 -100q-91 2 -100 108q1 86 104 96z" />
    <glyph glyph-name="perthousand" unicode="&#x2030;" horiz-adv-x="1973" 
d="M252 1448q200 0 268 -320q8 -52 8 -112q0 -252 -176 -332q-42 -12 -64 -12h-24q-165 0 -240 236q-24 78 -24 168q0 289 200 364q36 8 52 8zM892 1444q69 -12 80 -84v-4q0 -31 -220 -596q-229 -615 -284 -740q-32 -32 -64 -32h-16q-76 12 -80 92q0 26 500 1324
q22 36 84 40zM180 1072q0 -157 76 -216q7 -4 16 -4h8q58 0 68 156v12q-4 196 -92 248q-76 -26 -76 -196zM980 756h28q179 0 252 -288q8 -57 8 -120q0 -258 -172 -352q-36 -12 -80 -16q-208 0 -272 352q0 50 -4 72q0 279 196 344q16 8 44 8zM920 408q0 -168 84 -244h24
q60 46 60 184v12q0 163 -90 224l-18 -8q-60 -37 -60 -168zM1580 756h28q179 0 252 -288q8 -57 8 -120q0 -258 -172 -352q-36 -12 -80 -16q-208 0 -272 352q0 50 -4 72q0 279 196 344q16 8 44 8zM1520 408q0 -168 84 -244h24q60 46 60 184v12q0 163 -90 224l-18 -8
q-60 -37 -60 -168z" />
    <glyph glyph-name="guilsinglleft" unicode="&#x2039;" horiz-adv-x="1040" 
d="M440 1524q49 0 128 -32q43 16 68 16h20q116 0 180 -124q12 -43 12 -72q0 -171 -224 -480q-4 0 -16 -16q20 -198 20 -224h12q59 36 120 36q115 0 184 -148q8 -17 12 -64q0 -186 -328 -404q-28 -9 -64 -12q-224 47 -352 168q-108 144 -108 256v16q0 91 180 108h40
q45 0 132 -32l-28 312q-428 99 -428 292q0 115 148 216q36 26 52 60q72 128 240 128zM364 1316v-16l24 -108q0 -76 -92 -88q-46 0 -76 52h-12q-24 -21 -24 -40q46 -48 240 -104q73 -16 96 -16q148 221 148 316v4q0 8 -8 8h-4q0 -98 -52 -124q-27 -12 -44 -12q-76 0 -88 96
v44q-6 16 -28 16h-12q-54 0 -68 -28zM652 368l8 -100h12q100 94 100 136v24q0 6 -16 16h-8q-29 0 -96 -76zM304 368v-4q0 -65 136 -136h4v16q-65 124 -120 124h-20z" />
    <glyph glyph-name="guilsinglright" unicode="&#x203a;" horiz-adv-x="1587" 
d="M1008 1228q54 0 160 -124q197 -195 304 -296q12 -23 12 -40q-25 -123 -248 -304q-254 -164 -528 -164q-418 0 -692 412q-16 26 -16 60q11 68 236 220q230 192 300 192q44 0 144 -116l56 -52q32 24 228 204q28 8 44 8zM732 804q-43 0 -152 116q-56 56 -68 56
q-143 -99 -184 -140v-4q289 -40 368 -48l472 64v8q-156 156 -164 156q-12 -4 -216 -192q-27 -16 -56 -16zM692 604q-171 20 -392 52q0 -4 -4 -4q47 -53 132 -100q136 -72 260 -72h36q252 0 468 180l4 8q-4 0 -4 4q-474 -68 -500 -68z" />
    <glyph glyph-name="fraction" unicode="&#x2044;" horiz-adv-x="1099" 
d="M904 1452q71 0 84 -92q0 -33 -172 -296l-660 -1032q-30 -32 -72 -32q-71 0 -84 92q0 33 172 296l660 1032q30 32 72 32z" />
    <glyph glyph-name="fraction" unicode="&#x2215;" horiz-adv-x="1099" 
d="M904 1452q71 0 84 -92q0 -33 -172 -296l-660 -1032q-30 -32 -72 -32q-71 0 -84 92q0 33 172 296l660 1032q30 32 72 32z" />
    <glyph glyph-name="franc" unicode="&#x20a3;" horiz-adv-x="1241" 
d="M194 529q-14 197 -14 367v32q0 353 120 420q107 76 324 76h44q241 0 436 -48q48 -23 48 -84q-7 -77 -88 -84q-229 36 -400 36h-32q-256 0 -256 -104q-16 -65 -16 -220v-68l528 12q76 -13 80 -88v-4q-1 -71 -92 -88q-62 0 -512 -12v-4q4 -68 10 -139h260q96 -7 96 -92
q0 -73 -96 -84h-245q13 -129 31 -265q0 -72 -96 -88q-79 0 -92 132q-14 114 -24 221h-114q-96 8 -96 92q0 73 96 84h100z" />
    <glyph glyph-name="lira" unicode="&#x20a4;" horiz-adv-x="1216" 
d="M632 1424h32q222 0 436 -208q20 -25 20 -60q-19 -84 -84 -84h-8q-34 0 -136 88q-120 84 -224 84h-44q-100 0 -144 -84q-48 -127 -48 -216q36 0 244 8q88 -19 88 -88v-4q0 -88 -132 -88q-145 -8 -204 -8l-4 -8v-84q0 -21 4 -68l284 16q84 -20 84 -80v-16q0 -88 -172 -88
q-72 -8 -180 -12v-4q0 -46 28 -240l40 4l456 16q67 0 80 -96q0 -63 -100 -84q-511 -20 -560 -20q-79 0 -92 148q-24 152 -32 264h-4q-99 -8 -132 -8q-80 25 -80 80v12q0 88 132 88q8 3 68 8q-4 86 -4 128v36q-122 -4 -156 -4q-76 0 -88 92q0 79 116 88q23 0 132 4
q10 168 88 336q106 152 296 152z" />
    <glyph glyph-name="peseta" unicode="&#x20a7;" horiz-adv-x="2328" 
d="M288.008 1424h32.4004q216.906 0 406.812 -264q75.6025 -139 75.6025 -260v-40q0 -277 -273.607 -384q-76.5029 -21 -201.605 -28l-151.205 12q14.4004 -211 36.002 -372q-6.30078 -77 -79.2031 -88q-79.2012 0 -90.002 128q-43.2012 391 -43.2012 684v44
q0 448 158.404 532q63.9014 36 129.604 36zM162.004 864v-208q0 -20 169.205 -28q313.209 0 313.209 248q0 238 -266.408 360q-36 8 -64.8008 8h-36.002q-86.4023 0 -108.002 -196q-7.20117 -82 -7.20117 -184zM1086 1236q88 -22 88 -88q-28 -157 -52 -324h260
q96 -11 96 -88q0 -79 -112 -92h-56q-63 0 -208 -4v-12q0 -86 -4 -136q10 -280 72 -301q25 -10 68 -11h44q98 0 212 136q21 12 48 12q88 -15 88 -88q0 -88 -204 -208q-78 -32 -152 -32h-32q-216 0 -288 200q-36 146 -36 288q1 86 4 152h-32q-96 8 -96 92q0 75 108 88h40
q48 368 82 396q23 20 62 20zM1826 836h48q252 0 280 -84q4 -22 4 -36q-7 -80 -88 -84q-99 24 -196 24h-52q-80 0 -80 -32q5 -30 204 -96q288 -103 288 -280v-24q0 -191 -304 -224h-88q-186 4 -216 59q-4 20 -4 33v16q22 80 80 80q148 -12 160 -12q180 7 192 48v20
q0 66 -324 172q-168 81 -168 196v28q0 126 160 180q44 16 104 16z" />
    <glyph glyph-name="uni20A9" unicode="&#x20a9;" horiz-adv-x="1633" 
d="M1402 1010q2 -76 2 -170q0 -81 -3 -154h51q96 -7 96 -92q0 -73 -96 -84h-65q-58 -506 -323 -506h-8q-180 0 -296 212l-5 10q-123 -226 -311 -226h-20q-245 0 -307 510h-21q-96 8 -96 92q0 73 96 84h6q-2 64 -2 150v174h-4q-96 8 -96 92q0 73 96 84h10q11 184 43 205
q22 13 59 13q88 -15 88 -88q-6 -59 -9 -130h928q-5 88 -11 158q7 68 84 80h8q96 0 96 -196q2 -19 3 -42h57q96 -7 96 -92q0 -73 -96 -84h-50zM857 510q26 -162 107 -282q46 -42 88 -44h16q94 0 139 326h-350zM297 510q28 -240 107 -322q7 -6 16 -8h32q138 0 197 330h-352z
M1222 686l6 170q-2 81 -5 154h-942q-1 -60 -1 -126v-44q0 -82 3 -154h381q-1 31 -4 98q0 144 96 144q78 0 88 -112v-130h378z" />
    <glyph glyph-name="Euro" unicode="&#x20ac;" horiz-adv-x="1253" 
d="M704 1424h48q188 0 376 -108q28 -27 28 -68q0 -71 -92 -84q-13 0 -184 64q-69 16 -136 16h-36q-231 0 -300 -308h4q91 4 136 4q88 -19 88 -84q0 -100 -180 -100h-72v-112l200 20q75 0 88 -92q0 -81 -116 -92q-12 0 -156 -16v-12q36 -165 112 -224q71 -48 136 -48h44
q128 0 320 92l24 4q88 -22 88 -88q0 -124 -400 -188h-60q-311 0 -428 356q-14 88 -24 88q-60 -4 -84 -4q-75 0 -88 92q0 92 160 92v120h-116q-71 0 -84 92q0 88 152 88h48q29 0 36 68q63 245 212 352q132 80 256 80z" />
    <glyph glyph-name="uni20BF" unicode="&#x20bf;" horiz-adv-x="1142" 
d="M180 744v-52q0 -375 72 -484q69 -32 172 -32q279 0 424 164q20 51 20 64v60q0 112 -236 160q-95 12 -176 12q-20 0 -116 -8q-92 19 -92 92q0 92 148 92q135 24 220 72q96 73 96 168q0 133 -236 184q-36 8 -96 8h-48q-92 0 -112 -64q-40 -140 -40 -436zM200 1405v162
q6 65 96 65q65 0 80 -73v-135h12q59 0 112 -8v151q6 65 96 65q65 0 80 -73v-180q-1 -9 -3 -17q98 -51 167 -142q52 -89 52 -172q0 -139 -120 -268l96 -48q180 -105 180 -280v-36q0 -260 -372 -384v-153q-6 -65 -96 -65q-65 0 -80 73v115q-30 -2 -60 -2h-64v-121
q-6 -65 -96 -65q-65 0 -80 73v147q-106 46 -140 154q-60 185 -60 512v40q0 495 112 620q37 30 88 45z" />
    <glyph glyph-name="uni2116" unicode="&#x2116;" horiz-adv-x="1998" 
d="M828 1420q96 0 96 -164q56 -419 56 -804v-24q0 -345 -100 -404q-32 -24 -72 -24h-8q-159 0 -344 504q-204 524 -271 639l-1 -11q-4 -94 -4 -140v-40q0 -372 52 -864q0 -73 -96 -84q-79 0 -88 136q-48 444 -48 792v44q0 335 96 396q47 20 72 20q145 0 316 -480
q182 -474 296 -684l6 -11q13 76 18 243q0 261 -64 872v8q0 69 88 80zM1459 1279h40q197 0 320 -276q32 -109 32 -188q0 -296 -276 -384q-51 -12 -108 -12q-323 0 -400 288q0 7 -4 72q0 256 228 440q91 60 168 60zM1243 771q0 -136 156 -168q26 -4 52 -4h40q130 0 172 144
q8 41 8 72q0 193 -148 280l-24 4h-40q-94 0 -192 -192q-24 -70 -24 -136zM1181 349h540q96 -7 96 -92q0 -73 -96 -84h-540q-96 8 -96 92q0 73 96 84z" />
    <glyph glyph-name="trademark" unicode="&#x2122;" horiz-adv-x="1462" 
d="M1152 1468q91 0 108 -184q88 -502 88 -532q-16 -88 -84 -88h-8q-86 0 -96 148l-48 276h-4q-55 -116 -92 -116l-24 -4q-66 0 -124 124l-8 4h-4l-76 -384q-30 -52 -84 -52q-84 19 -84 84v20q28 199 95 484h-183q-8 -382 -8 -484q0 -73 -96 -84q-68 0 -84 100q0 43 8 464
h-244q-100 12 -100 88q0 78 100 92q85 0 620 4q6 0 48 -12q39 12 56 12q64 0 144 -160l8 -13q97 179 130 203q14 9 46 10z" />
    <glyph glyph-name="minus" unicode="&#x2212;" horiz-adv-x="850" 
d="M96 786h540q96 -7 96 -92q0 -73 -96 -84h-540q-96 8 -96 92q0 73 96 84z" />
    <glyph glyph-name="lessequal" unicode="&#x2264;" horiz-adv-x="1599" 
d="M452 1116q84 0 188 -200q183 -35 219 -72q25 -19 25 -72q0 -72 -132 -184l-4 -8q48 -123 48 -176v-12q-14 -112 -112 -112q-54 0 -232 84q-133 -100 -216 -100q-104 0 -120 148v12q0 56 24 160q-140 145 -140 224q0 128 260 128q108 180 188 180h4zM1260 1104
q71 0 84 -92q0 -82 -176 -116q-122 -44 -200 -60q-69 0 -88 92q0 80 160 112q184 64 220 64zM300 756h-73l9 -8q92 -85 92 -128v-4l-29 -134l9 6l104 68q16 4 32 4h4q19 0 136 -63l-4 11q-32 82 -32 100q0 54 83 112l16 15l-15 1q-95 0 -128 52q-52 96 -53 106l-7 -10
q-65 -97 -96 -120q-28 -8 -48 -8zM1008 756q401 -31 456 -56q28 -17 32 -64q-14 -100 -92 -100q-423 43 -452 60q-30 13 -36 68q14 89 92 92zM896 544h8q288 -63 328 -108q15 -19 16 -52q-15 -88 -88 -88q-318 76 -333 107q-15 28 -15 57q19 84 84 84zM196 176h540
q96 -7 96 -92q0 -73 -96 -84h-540q-96 8 -96 92q0 73 96 84z" />
    <glyph glyph-name="greaterequal" unicode="&#x2265;" horiz-adv-x="1602" 
d="M848 1112h12q69 0 200 -96h8q164 80 224 80h16q100 -22 100 -100v-28q0 -42 -48 -168q110 -112 116 -128q20 -29 20 -68q0 -114 -244 -140q-99 -170 -136 -184q-22 -16 -56 -16q-82 0 -188 180h-8q-252 0 -252 128v4q0 75 136 216v4q-20 104 -20 160v20q15 136 120 136z
M240 1100q360 -93 360 -132q12 -20 12 -32v-28q-10 -73 -88 -76q-330 93 -362 129q-14 27 -14 51q6 83 92 88zM913 901l3 -13l24 -128q0 -43 -92 -128l-8 -9l68 1q82 0 132 -116l16 -22l4 10q72 136 108 136q84 13 84 20q-92 69 -92 120q0 16 32 100q-122 -56 -140 -56
q-37 0 -128 76zM496 752q80 -25 80 -80v-16q0 -84 -164 -92q-287 -28 -320 -28h-8q-73 0 -84 96q0 92 220 96q47 4 276 24zM512 516q88 -17 88 -84v-12q0 -84 -188 -112q-120 -40 -156 -40h-8q-73 0 -84 96q0 80 216 116q53 20 132 36zM796 176h540q96 -7 96 -92
q0 -73 -96 -84h-540q-96 8 -96 92q0 73 96 84z" />
    </font>
</defs>
</svg>
